<?xml version="1.0" encoding="utf-8"?>
<!-- Generator: Adobe Illustrator 21.1.0, SVG Export Plug-In . SVG Version: 6.00 Build 0)  -->
<svg version="1.1" id="Capa_1" xmlns="http://www.w3.org/2000/svg" xmlns:xlink="http://www.w3.org/1999/xlink" x="0px" y="0px"
	 viewBox="0 0 784 206" style="enable-background:new 0 0 784 206;" xml:space="preserve">
<style type="text/css">
	.st0{fill:#283341;}
	.st1{fill:#FFFFFF;}
</style>
<g>
	<g>
		<g>
			<g>
				<path class="st0" d="M291,129.5c0.2,2,0.7,3.7,1.5,4.9c0.8,1.3,1.7,2.2,2.7,2.9c1,0.7,2,1.1,3.1,1.4c1.1,0.2,2,0.4,2.7,0.4
					c0.9,0,1.7-0.1,2.5-0.3c0.8-0.2,1.5-0.6,2.2-1c0.6-0.5,1.1-1,1.5-1.7c0.4-0.7,0.6-1.5,0.6-2.4c0-1.3-0.4-2.4-1.3-3.4
					c-0.9-1-2-1.9-3.3-2.7c-1.3-0.8-2.7-1.6-4.2-2.4c-1.5-0.8-2.9-1.7-4.2-2.6c-1.3-1-2.4-2.1-3.3-3.3c-0.9-1.2-1.3-2.7-1.3-4.4
					c0-1.3,0.3-2.5,0.8-3.6c0.5-1.1,1.2-2,2.1-2.8c0.9-0.8,1.9-1.4,3.1-1.9c1.2-0.4,2.4-0.7,3.7-0.7c0.9,0,1.8,0.1,2.5,0.3
					c0.8,0.2,1.4,0.4,2.1,0.7c0.3,0.1,0.7,0.4,1.1,0.7c0.4,0.3,0.9,0.6,1.4,0.8c0.5,0.3,1,0.4,1.6,0.5c0.5,0.1,1.1-0.1,1.7-0.5
					l-0.2,9.2H309c-0.1-1.3-0.4-2.6-0.8-3.8c-0.5-1.2-1.1-2.2-1.9-3.1c-0.8-0.9-1.8-1.6-2.9-2.1c-1.1-0.5-2.4-0.8-3.8-0.8
					c-0.7,0-1.4,0.1-2.1,0.4c-0.7,0.2-1.3,0.6-1.9,1.1c-0.5,0.5-1,1-1.3,1.7c-0.3,0.6-0.5,1.3-0.5,2.1c0,1.2,0.5,2.2,1.4,3.1
					c0.9,0.9,2.1,1.7,3.5,2.5c1.4,0.8,2.9,1.6,4.5,2.4c1.6,0.8,3.1,1.6,4.5,2.6c1.4,1,2.5,2.1,3.5,3.3c0.9,1.2,1.4,2.7,1.4,4.3
					c0,1.3-0.3,2.6-0.8,3.7c-0.5,1.2-1.3,2.2-2.2,3.1c-1,0.9-2.1,1.6-3.5,2.1c-1.3,0.5-2.8,0.8-4.4,0.8c-1.2,0-2.2-0.1-3-0.3
					c-0.9-0.2-1.6-0.4-2.3-0.7c-0.3-0.1-0.7-0.3-1-0.5c-0.3-0.2-0.7-0.4-1.1-0.6c-0.4-0.2-1-0.4-1.6-0.5c-0.6-0.1-1.4-0.2-2.4-0.2
					v-8.6H291z"/>
				<path class="st0" d="M324.7,121.8h6.8c1,0,1.9,0,2.6,0c0.7,0,1.4-0.1,1.8-0.2c0.5-0.1,0.9-0.3,1.1-0.7c0.2-0.3,0.4-0.8,0.4-1.4
					h0.9v7h-0.9c0-0.8-0.1-1.4-0.3-1.9c-0.2-0.4-0.6-0.7-1.1-0.9c-0.5-0.1-1.1-0.2-1.8-0.2c-0.7,0-1.6,0-2.6,0h-6.8v9
					c0,0.5,0,1.1,0.1,1.8c0.1,0.7,0.3,1.3,0.6,1.9c0.3,0.6,0.9,1.1,1.7,1.5c0.8,0.4,1.9,0.6,3.4,0.6h3.9c1.1,0,2.1-0.1,2.8-0.4
					c0.8-0.2,1.4-0.6,2-1.2c0.5-0.5,1-1.2,1.4-2.1c0.4-0.8,0.7-1.8,1.1-3h1.4l-1.8,8.4H320v-27.2c0-1.1,0-1.9-0.1-2.6
					c-0.1-0.7-0.2-1.3-0.5-1.7c-0.3-0.4-0.8-0.7-1.4-0.9c-0.7-0.2-1.6-0.3-2.7-0.3v-0.9H341l0.5,7.4h-1c-0.2-1.3-0.5-2.3-0.8-3
					c-0.3-0.7-0.8-1.3-1.3-1.6c-0.5-0.4-1.2-0.6-2-0.7c-0.8-0.1-1.8-0.2-3-0.2h-8.6V121.8z"/>
				<path class="st0" d="M351,113.1c0-1.1,0-1.9-0.1-2.6c0-0.7-0.2-1.3-0.5-1.7c-0.3-0.4-0.8-0.7-1.4-0.9c-0.6-0.2-1.6-0.3-2.7-0.3
					v-0.9h15.5c2.4,0,4.4,0.3,6.1,0.7c1.7,0.5,3,1.2,4,2c1,0.8,1.8,1.8,2.3,2.9c0.5,1.1,0.7,2.2,0.7,3.4c0,1.9-0.6,3.4-1.7,4.7
					c-1.1,1.3-2.6,2.2-4.2,2.6v0.1c1,0.1,1.9,0.4,2.8,0.8c0.9,0.4,1.7,1,2.4,1.6c0.7,0.7,1.3,1.4,1.7,2.4c0.4,0.9,0.6,1.9,0.6,3
					c0,0.7-0.1,1.6-0.4,2.7c-0.3,1.1-0.9,2.1-1.8,3.1c-0.9,1-2.2,1.8-3.9,2.5c-1.7,0.7-4,1-6.8,1H351V113.1z M355.8,137.8
					c1.8,0.4,3.7,0.7,5.7,0.7c1.1,0,2.2-0.1,3.3-0.4c1.1-0.3,2.1-0.7,2.9-1.2c0.9-0.6,1.6-1.3,2.2-2.2c0.6-0.9,0.8-1.9,0.8-3.2
					c0-1.5-0.3-2.7-1-3.7c-0.6-1-1.5-1.8-2.5-2.4c-1-0.6-2.2-1-3.4-1.2c-1.3-0.2-2.5-0.3-3.8-0.3l-4.3,0.2L355.8,137.8z
					 M365.7,121.4c1.1-0.5,1.9-1.1,2.5-1.8c0.6-0.7,1-1.5,1.1-2.2c0.2-0.8,0.2-1.4,0.2-1.9c0-1.3-0.3-2.4-0.8-3.3
					c-0.6-0.9-1.3-1.6-2.2-2.2c-0.9-0.6-1.9-1-3.1-1.2c-1.1-0.3-2.3-0.4-3.4-0.4c-0.9,0-1.6,0.3-2.2,0.7c-0.5,0.4-1,1.2-1.5,2.3
					c-0.5,1.1-0.7,2.7-0.7,4.7v6.1l5.6,0.1C363.2,122.1,364.6,121.9,365.7,121.4z"/>
				<path class="st0" d="M411.8,129.5c0.2,2,0.7,3.7,1.5,4.9c0.8,1.3,1.7,2.2,2.7,2.9c1,0.7,2,1.1,3.1,1.4c1.1,0.2,2,0.4,2.7,0.4
					c0.9,0,1.7-0.1,2.5-0.3c0.8-0.2,1.5-0.6,2.2-1c0.6-0.5,1.1-1,1.5-1.7c0.4-0.7,0.6-1.5,0.6-2.4c0-1.3-0.4-2.4-1.3-3.4
					c-0.9-1-2-1.9-3.3-2.7c-1.3-0.8-2.7-1.6-4.2-2.4c-1.5-0.8-2.9-1.7-4.2-2.6c-1.3-1-2.4-2.1-3.3-3.3c-0.9-1.2-1.3-2.7-1.3-4.4
					c0-1.3,0.3-2.5,0.8-3.6c0.5-1.1,1.2-2,2.1-2.8c0.9-0.8,1.9-1.4,3.1-1.9c1.2-0.4,2.4-0.7,3.7-0.7c0.9,0,1.7,0.1,2.5,0.3
					c0.8,0.2,1.4,0.4,2.1,0.7c0.3,0.1,0.7,0.4,1.1,0.7c0.4,0.3,0.9,0.6,1.3,0.8c0.5,0.3,1,0.4,1.6,0.5c0.5,0.1,1.1-0.1,1.7-0.5
					l-0.2,9.2h-0.9c-0.1-1.3-0.4-2.6-0.8-3.8c-0.5-1.2-1.1-2.2-1.9-3.1c-0.8-0.9-1.8-1.6-2.9-2.1c-1.1-0.5-2.4-0.8-3.8-0.8
					c-0.7,0-1.4,0.1-2.1,0.4c-0.7,0.2-1.3,0.6-1.9,1.1c-0.5,0.5-1,1-1.3,1.7c-0.3,0.6-0.5,1.3-0.5,2.1c0,1.2,0.5,2.2,1.4,3.1
					c0.9,0.9,2.1,1.7,3.5,2.5c1.4,0.8,2.9,1.6,4.5,2.4c1.6,0.8,3.1,1.6,4.5,2.6c1.4,1,2.5,2.1,3.5,3.3c0.9,1.2,1.4,2.7,1.4,4.3
					c0,1.3-0.3,2.6-0.8,3.7c-0.5,1.2-1.3,2.2-2.2,3.1c-1,0.9-2.1,1.6-3.5,2.1c-1.3,0.5-2.8,0.8-4.5,0.8c-1.2,0-2.2-0.1-3.1-0.3
					c-0.8-0.2-1.6-0.4-2.3-0.7c-0.3-0.1-0.7-0.3-1-0.5c-0.3-0.2-0.7-0.4-1.1-0.6c-0.4-0.2-1-0.4-1.6-0.5c-0.6-0.1-1.4-0.2-2.4-0.2
					v-8.6H411.8z"/>
				<path class="st0" d="M447.8,108.8H445c-2.8,0-4.7,0.4-5.7,1.2c-0.9,0.7-1.7,2.5-2.3,5.3h-1.2l0.3-8.6h28.7l0.3,8.6h-1.2
					c-0.6-2.8-1.4-4.5-2.3-5.3c-0.9-0.8-2.8-1.2-5.8-1.2h-2.8v31.5h-5.1V108.8z"/>
				<path class="st0" d="M471.5,106.6h4.8v33.6h-4.8V106.6z"/>
				<path class="st0" d="M245.5,85.4c0,1.3-0.2,2.7-0.5,4.1c-0.3,1.4-0.9,2.6-1.8,3.7c-0.9,1.1-2,2-3.5,2.7c-1.5,0.7-3.4,1-5.7,1
					c-2.4,0-4.4-0.3-5.9-0.9c-1.5-0.6-2.7-1.5-3.5-2.5c-0.9-1.1-1.4-2.3-1.8-3.6c-0.3-1.4-0.5-2.8-0.5-4.3V72.1c0-0.9,0-1.7-0.1-2.3
					c0-0.6-0.2-1.1-0.5-1.5c-0.3-0.4-0.7-0.7-1.3-0.8c-0.6-0.2-1.4-0.2-2.4-0.2v-0.8h8.5V84c0,0.5,0,1,0,1.6c0,0.6,0,1.2,0.1,1.8
					c0,0.6,0.1,1.2,0.2,1.8c0.1,0.6,0.2,1,0.3,1.4c0.3,0.8,0.6,1.4,1.1,1.9c0.5,0.5,1,1,1.6,1.3c0.6,0.4,1.3,0.6,2,0.8
					c0.7,0.2,1.5,0.3,2.2,0.3c1.5,0,2.9-0.3,4.4-0.9c1.5-0.6,2.6-1.5,3.5-2.8c0.4-0.5,0.6-1.1,0.8-1.8c0.2-0.7,0.3-1.4,0.4-2.1
					c0.1-0.7,0.1-1.4,0.2-2.2c0-0.7,0-1.4,0-2V66.4l1.9,0V85.4z"/>
				<path class="st0" d="M284.8,66.4h4.2v29.8h-4.2V66.4z"/>
				<path class="st0" d="M310.5,96.9h-0.8L299.1,72c-0.2-0.6-0.5-1.1-0.8-1.7c-0.3-0.6-0.6-1.1-0.9-1.5c-0.3-0.4-0.8-0.8-1.2-1.1
					c-0.5-0.3-1.1-0.5-1.8-0.5v-0.8h7l9.9,23.7l9.5-23.7h2.2L310.5,96.9z"/>
				<path class="st0" d="M333.1,79.8h6c0.9,0,1.7,0,2.3,0c0.6,0,1.2-0.1,1.6-0.2c0.4-0.1,0.8-0.3,1-0.6c0.2-0.3,0.3-0.7,0.3-1.2h0.8
					v6.2h-0.8c0-0.7-0.1-1.3-0.3-1.7c-0.2-0.4-0.5-0.6-0.9-0.8c-0.4-0.1-1-0.2-1.6-0.2c-0.7,0-1.4,0-2.3,0h-6v8c0,0.5,0,1,0.1,1.6
					c0,0.6,0.2,1.2,0.5,1.7c0.3,0.5,0.8,1,1.5,1.3c0.7,0.4,1.7,0.5,3,0.5h3.4c1,0,1.8-0.1,2.5-0.3c0.7-0.2,1.3-0.6,1.7-1
					c0.5-0.5,0.9-1.1,1.2-1.8c0.3-0.7,0.6-1.6,0.9-2.7h1.3l-1.6,7.5h-18.9V72.1c0-0.9,0-1.7-0.1-2.3c0-0.6-0.2-1.1-0.5-1.5
					c-0.3-0.4-0.7-0.7-1.3-0.8c-0.6-0.2-1.4-0.2-2.4-0.2v-0.8h22.9l0.4,6.5H347c-0.2-1.1-0.5-2-0.7-2.7c-0.3-0.6-0.7-1.1-1.1-1.5
					c-0.5-0.3-1.1-0.5-1.8-0.6c-0.7-0.1-1.6-0.1-2.6-0.1h-7.6V79.8z"/>
				<path class="st0" d="M355.6,72.1c0-0.9,0-1.7-0.1-2.3c0-0.6-0.2-1.1-0.5-1.5c-0.3-0.4-0.7-0.7-1.3-0.8c-0.6-0.2-1.4-0.2-2.4-0.2
					v-0.8h12.9c2.2,0,4,0.3,5.3,0.8c1.4,0.5,2.4,1.2,3.1,2c0.7,0.8,1.3,1.7,1.5,2.5c0.3,0.9,0.4,1.7,0.4,2.3c0,1.1-0.2,2-0.6,2.9
					c-0.4,0.8-0.9,1.6-1.6,2.2c-0.7,0.6-1.5,1.2-2.3,1.6c-0.9,0.4-1.8,0.7-2.8,0.9l5.8,8.1c0.5,0.8,1.1,1.5,1.6,2.1
					c0.5,0.6,1.1,1.2,1.7,1.7c0.6,0.5,1.3,0.9,2,1.2c0.8,0.3,1.6,0.5,2.7,0.6v0.8h-8l-10.9-15.3c0.9,0,1.9-0.1,2.8-0.3
					c0.9-0.2,1.7-0.6,2.4-1.1c0.7-0.5,1.2-1.2,1.7-2c0.4-0.8,0.7-1.9,0.7-3.2c0-0.9-0.1-1.7-0.4-2.5c-0.3-0.8-0.7-1.4-1.2-2
					c-0.5-0.6-1.2-1-1.9-1.3c-0.8-0.3-1.6-0.5-2.5-0.5c-0.3,0-0.7,0-1.1,0.1c-0.4,0-0.8,0.2-1.2,0.4c-0.4,0.2-0.7,0.6-1,1.2
					c-0.3,0.6-0.4,1.4-0.4,2.4v24.1h-4.2V72.1z"/>
				<path class="st0" d="M383.7,86.7c0.2,1.8,0.6,3.3,1.3,4.4c0.7,1.1,1.5,2,2.4,2.6c0.9,0.6,1.8,1,2.7,1.2c0.9,0.2,1.7,0.3,2.4,0.3
					c0.7,0,1.5-0.1,2.2-0.3c0.7-0.2,1.3-0.5,1.9-0.9c0.6-0.4,1-0.9,1.3-1.5c0.3-0.6,0.5-1.3,0.5-2.1c0-1.1-0.4-2.1-1.1-3
					c-0.8-0.9-1.7-1.7-2.9-2.4c-1.2-0.7-2.4-1.5-3.8-2.2c-1.3-0.7-2.6-1.5-3.8-2.3c-1.2-0.9-2.1-1.8-2.9-2.9
					c-0.8-1.1-1.2-2.4-1.2-3.9c0-1.1,0.2-2.2,0.7-3.2c0.5-1,1.1-1.8,1.9-2.5c0.8-0.7,1.7-1.3,2.8-1.7c1-0.4,2.1-0.6,3.3-0.6
					c0.8,0,1.6,0.1,2.2,0.3c0.7,0.2,1.3,0.4,1.8,0.6c0.3,0.1,0.6,0.3,0.9,0.6c0.4,0.3,0.8,0.5,1.2,0.7c0.4,0.2,0.9,0.4,1.4,0.4
					c0.5,0.1,1-0.1,1.5-0.4l-0.1,8.2h-0.8c-0.1-1.2-0.3-2.3-0.7-3.3c-0.4-1-1-1.9-1.7-2.7c-0.7-0.8-1.6-1.4-2.6-1.8
					c-1-0.5-2.1-0.7-3.3-0.7c-0.6,0-1.3,0.1-1.9,0.3c-0.6,0.2-1.2,0.5-1.7,1c-0.5,0.4-0.9,0.9-1.2,1.5c-0.3,0.6-0.5,1.2-0.5,1.8
					c0,1.1,0.4,2,1.2,2.8c0.8,0.8,1.8,1.5,3.1,2.3c1.2,0.7,2.6,1.4,4,2.1c1.4,0.7,2.8,1.5,4,2.3c1.2,0.8,2.2,1.8,3.1,2.9
					c0.8,1.1,1.2,2.4,1.2,3.8c0,1.2-0.2,2.3-0.7,3.3c-0.5,1-1.1,2-2,2.8c-0.9,0.8-1.9,1.4-3.1,1.9c-1.2,0.5-2.5,0.7-3.9,0.7
					c-1.1,0-1.9-0.1-2.7-0.3c-0.7-0.2-1.4-0.4-2-0.6c-0.3-0.1-0.6-0.3-0.9-0.5c-0.3-0.2-0.6-0.4-1-0.6c-0.4-0.2-0.8-0.3-1.4-0.5
					c-0.6-0.1-1.3-0.2-2.1-0.2v-7.7H383.7z"/>
				<path class="st0" d="M409.6,66.4h4.2v29.8h-4.2V66.4z"/>
				<path class="st0" d="M424.3,72.1c0-0.9,0-1.7-0.1-2.3c0-0.6-0.2-1.1-0.5-1.5c-0.3-0.4-0.7-0.7-1.3-0.8c-0.6-0.2-1.4-0.2-2.4-0.2
					v-0.8h11.5c1,0,2.1,0,3.2,0.1c1.1,0,2.2,0.2,3.3,0.3c1.1,0.2,2.1,0.4,3.2,0.7c1,0.3,2,0.8,2.9,1.4c1,0.7,1.9,1.5,2.7,2.4
					c0.8,0.9,1.4,1.9,1.9,3c0.5,1.1,0.9,2.2,1.1,3.4c0.2,1.2,0.4,2.4,0.4,3.6c0,2-0.3,4-1,5.8c-0.7,1.8-1.7,3.4-3,4.8
					c-1.3,1.4-3,2.5-5,3.3c-2,0.8-4.4,1.2-7.1,1.2h-9.6V72.1z M428.6,94c0.8,0.2,1.6,0.3,2.3,0.4c0.8,0.1,1.6,0.2,2.3,0.2
					c1.9,0,3.6-0.4,5.1-1.1c1.5-0.7,2.7-1.7,3.7-2.9c1-1.2,1.7-2.6,2.2-4.2c0.5-1.6,0.8-3.3,0.8-5.1c0-1.8-0.3-3.6-0.8-5.2
					c-0.5-1.6-1.3-3-2.3-4.2c-1-1.2-2.3-2.2-3.8-2.8c-1.5-0.7-3.2-1-5.2-1c-0.9,0.1-1.7,0.4-2.2,0.7c-0.6,0.4-1.1,1-1.6,1.8
					c-0.5,0.9-0.7,2.1-0.7,3.7V94z"/>
				<path class="st0" d="M482.5,72.1c0-0.9,0-1.7-0.1-2.3c0-0.6-0.2-1.1-0.5-1.5c-0.3-0.4-0.7-0.7-1.3-0.8c-0.6-0.2-1.4-0.2-2.4-0.2
					v-0.8h11.5c1,0,2.1,0,3.2,0.1c1.1,0,2.2,0.2,3.3,0.3c1.1,0.2,2.1,0.4,3.2,0.7c1,0.3,2,0.8,2.9,1.4c1,0.7,1.9,1.5,2.7,2.4
					c0.8,0.9,1.4,1.9,1.9,3c0.5,1.1,0.8,2.2,1.1,3.4c0.2,1.2,0.4,2.4,0.4,3.6c0,2-0.3,4-1,5.8c-0.7,1.8-1.7,3.4-3,4.8
					c-1.4,1.4-3,2.5-5,3.3c-2,0.8-4.4,1.2-7.1,1.2h-9.7V72.1z M486.7,94c0.8,0.2,1.6,0.3,2.3,0.4c0.8,0.1,1.6,0.2,2.3,0.2
					c1.9,0,3.6-0.4,5.1-1.1c1.5-0.7,2.7-1.7,3.7-2.9c1-1.2,1.7-2.6,2.2-4.2c0.5-1.6,0.8-3.3,0.8-5.1c0-1.8-0.3-3.6-0.8-5.2
					c-0.5-1.6-1.3-3-2.3-4.2c-1-1.2-2.3-2.2-3.8-2.8c-1.5-0.7-3.2-1-5.2-1c-0.9,0.1-1.7,0.4-2.3,0.7c-0.6,0.4-1.1,1-1.6,1.8
					c-0.5,0.9-0.7,2.1-0.7,3.7V94z"/>
				<path class="st0" d="M542.6,106.6L542.6,106.6l-2.2,0v25.2h-0.1l-0.2-0.3v0l-20.2-24.8h0l0,0h-2.5c0,0,0,6,0,7.2v26.5h2.2v-26.5
					h0.1l22.1,27h0.6l0,0h1v-28.5c0-0.9,0-1.7,0.1-2.3c0-0.6,0.2-1.1,0.5-1.5c0.3-0.4,0.7-0.7,1.3-0.8c0.6-0.2,1-0.2,2.1-0.2v-0.8
					H542.6z"/>
				<path class="st0" d="M274.7,66.3L274.7,66.3l-1.9,0v22.3h-0.1l-0.2-0.2v0l-18-22.1h0l0,0h-2.2c0,0,0,5.3,0,6.4v23.5h1.7v0h0.3
					V73.3l0,0v-0.5h0.1l19.6,24h0.5v0h0.9V71.4c0-0.8,0-1.5,0.1-2.1c0-0.6,0.2-1,0.4-1.4c0.2-0.4,0.6-0.6,1.1-0.7
					c0.5-0.1,0.9-0.2,1.8-0.2v-0.7H274.7z"/>
				<path class="st0" d="M466,65.7h-0.8l-13.4,30.5h7.4v-0.8c-0.4,0-0.8-0.1-1.2-0.1c-0.4-0.1-0.8-0.2-1.1-0.3
					c-0.3-0.1-0.6-0.3-0.8-0.6c-0.2-0.2-0.3-0.6-0.3-1c0-0.4,0.1-0.9,0.4-1.5c0.2-0.5,0.3-0.8,0.5-1.2h0l0.2-0.4l1.7-4.1h11.6l4,10
					h4L466,65.7z M459.2,84.6l5.2-12l5.1,12H459.2z"/>
				<path class="st0" d="M223.8,105.9h-0.9l-15.1,34.4h8.4v-0.9c-0.5,0-0.9-0.1-1.4-0.1c-0.5-0.1-0.9-0.2-1.2-0.3
					c-0.4-0.2-0.7-0.4-0.9-0.6c-0.2-0.3-0.4-0.6-0.4-1.1c0-0.5,0.1-1.1,0.4-1.7c0.2-0.5,0.4-0.9,0.5-1.3l0,0l0.2-0.4l1.9-4.6h13.1
					l4.5,11.3h4.5L223.8,105.9z M216.1,127.2l5.9-13.6l5.7,13.6H216.1z"/>
				<path class="st0" d="M268.5,106.6L268.5,106.6h-2.2v25.2h-0.1l-0.2-0.3v0l-20.2-24.9h0l0,0h-2.5c0,0,0,6,0,7.2v26.5h2.2v-25.8v0
					v-0.6h0.1l22.1,27h0.6l0,0h1v-28.5c0-0.9,0-1.7,0.1-2.3c0-0.6,0.2-1.1,0.5-1.5c0.3-0.4,0.7-0.7,1.3-0.8c0.6-0.2,1-0.2,2.1-0.2
					v-0.8H268.5z"/>
			</g>
			<path class="st0" d="M395.1,105.8h-0.9l-15.1,34.4h8.4v-0.9c-0.5,0-0.9-0.1-1.4-0.2c-0.5-0.1-0.9-0.2-1.3-0.3
				c-0.4-0.2-0.7-0.4-0.9-0.6c-0.2-0.3-0.4-0.6-0.4-1.1c0-0.5,0.1-1.1,0.4-1.7c0.2-0.5,0.4-1,0.5-1.3h0l0.2-0.4l1.9-4.6h13.1
				l4.5,11.3h4.5L395.1,105.8z M387.5,127.1l5.9-13.6l5.7,13.6H387.5z"/>
			<path class="st0" d="M184.5,129.5c0.2,2,0.7,3.7,1.5,4.9c0.8,1.3,1.7,2.2,2.7,2.9c1,0.7,2,1.1,3.1,1.4c1.1,0.2,2,0.4,2.7,0.4
				c0.8,0,1.7-0.1,2.5-0.3c0.8-0.2,1.5-0.6,2.2-1c0.6-0.5,1.1-1,1.5-1.7c0.4-0.7,0.6-1.5,0.6-2.4c0-1.3-0.4-2.4-1.3-3.4
				c-0.9-1-2-1.9-3.3-2.7c-1.3-0.8-2.7-1.6-4.2-2.4c-1.5-0.8-2.9-1.7-4.2-2.6c-1.3-1-2.4-2.1-3.3-3.3c-0.9-1.2-1.3-2.7-1.3-4.4
				c0-1.3,0.3-2.5,0.8-3.6c0.5-1.1,1.2-2,2.1-2.8c0.9-0.8,1.9-1.4,3.1-1.9c1.2-0.4,2.4-0.7,3.7-0.7c0.9,0,1.8,0.1,2.5,0.3
				c0.8,0.2,1.4,0.4,2.1,0.7c0.3,0.1,0.7,0.4,1.1,0.7c0.4,0.3,0.8,0.6,1.3,0.8c0.5,0.3,1,0.4,1.6,0.5c0.5,0.1,1.1-0.1,1.7-0.5
				l-0.1,9.2h-0.9c-0.1-1.3-0.4-2.6-0.8-3.8c-0.5-1.2-1.1-2.2-1.9-3.1c-0.8-0.9-1.8-1.6-2.9-2.1c-1.1-0.5-2.4-0.8-3.8-0.8
				c-0.7,0-1.4,0.1-2.1,0.4c-0.7,0.2-1.3,0.6-1.9,1.1c-0.5,0.5-1,1-1.3,1.7c-0.3,0.6-0.5,1.3-0.5,2.1c0,1.2,0.5,2.2,1.4,3.1
				c0.9,0.9,2.1,1.7,3.5,2.5c1.4,0.8,2.9,1.6,4.5,2.4c1.6,0.8,3.1,1.6,4.5,2.6c1.4,1,2.5,2.1,3.5,3.3c0.9,1.2,1.4,2.7,1.4,4.3
				c0,1.3-0.3,2.6-0.8,3.7c-0.5,1.2-1.3,2.2-2.2,3.1c-1,0.9-2.1,1.6-3.5,2.1c-1.3,0.5-2.8,0.8-4.4,0.8c-1.2,0-2.2-0.1-3.1-0.3
				c-0.8-0.2-1.6-0.4-2.3-0.7c-0.3-0.1-0.7-0.3-1-0.5c-0.3-0.2-0.7-0.4-1.1-0.6c-0.4-0.2-1-0.4-1.6-0.5c-0.6-0.1-1.4-0.2-2.4-0.2
				v-8.6H184.5z"/>
			<path class="st0" d="M498.4,105.8h-0.9l-15.1,34.4h8.4v-0.9c-0.5,0-0.9-0.1-1.4-0.1c-0.5-0.1-0.9-0.2-1.2-0.3
				c-0.4-0.2-0.7-0.4-0.9-0.6c-0.2-0.3-0.4-0.6-0.4-1.1c0-0.5,0.1-1,0.4-1.7c0.2-0.5,0.4-0.9,0.5-1.3h0l0.2-0.4l1.9-4.6h13l4.5,11.3
				h4.5L498.4,105.8z M490.8,127.1l5.9-13.5l5.7,13.5H490.8z"/>
		</g>
	</g>
	<path class="st0" d="M98.8,20.5c-43.5,0-78.9,35.4-78.9,78.9c0,43.5,35.4,78.9,78.9,78.9c43.5,0,78.9-35.4,78.9-78.9
		C177.7,55.9,142.3,20.5,98.8,20.5z M98.8,177.4c-43,0-78.1-35-78.1-78c0-43,35-78,78.1-78c43.1,0,78.1,35,78.1,78
		C176.9,142.4,141.8,177.4,98.8,177.4z"/>
	<path class="st0" d="M98.8,22.8c-42.3,0-76.6,34.4-76.6,76.6c0,42.2,34.4,76.6,76.6,76.6c42.3,0,76.6-34.4,76.6-76.6
		C175.4,57.1,141,22.8,98.8,22.8z M98.8,172.5c-40.4,0-73.2-32.8-73.2-73.1c0-40.4,32.8-73.2,73.2-73.2c40.4,0,73.2,32.8,73.2,73.2
		C172,139.8,139.2,172.5,98.8,172.5z"/>
	<path class="st0" d="M98.8,29.1c-38.8,0-70.3,31.4-70.3,70.2c0,38.8,31.5,70.2,70.3,70.2c38.8,0,70.3-31.4,70.3-70.2
		C169.1,60.6,137.6,29.1,98.8,29.1z M98.8,150.5c-28.3,0-51.2-22.9-51.2-51.2c0-28.3,22.9-51.2,51.2-51.2
		c28.3,0,51.2,22.9,51.2,51.2C150,127.6,127.1,150.5,98.8,150.5z"/>
	<path class="st0" d="M98.8,50.8c-26.9,0-48.6,21.8-48.6,48.6c0,26.8,21.8,48.6,48.6,48.6c26.9,0,48.6-21.8,48.6-48.6
		C147.4,72.5,125.6,50.8,98.8,50.8z M98.8,146.7c-26.2,0-47.4-21.2-47.4-47.3C51.4,73.2,72.6,52,98.8,52c26.2,0,47.4,21.2,47.4,47.3
		C146.2,125.5,124.9,146.7,98.8,146.7z"/>
	<path class="st0" d="M97.9,61.8c0.1,0.1,0.3,0.3,0.3,0.5c0.1,0.1,0.3,0.2,0.2,0.5c0,0,0,0,0,0.1c0,0.1,0.1,0.2,0.1,0.3
		c0,0.1-0.1,0.2-0.1,0.3c0,0.2,0.1,0.3,0,0.5c-0.1,0.2-0.2,0.2-0.3,0.3c0,0.3-0.1,0.5-0.3,0.6c-0.1,0.3-0.2,0.6-0.5,0.6
		c-0.2,0-0.5-0.1-0.8-0.2c-0.1,0-0.3-0.1-0.4-0.2c-0.4-0.2-0.6-0.4-0.8-0.9c-0.1-0.2-0.2-0.4-0.2-0.6c0-0.2,0.2-0.3,0.3-0.3
		c0.1-0.2,0.2-0.4,0.5-0.4c0.2-0.2,0.2-0.6,0.6-0.5c0.1-0.1,0.1-0.3,0.3-0.4c0.2,0,0.3,0,0.4,0c0.1,0,0.2-0.1,0.3-0.2
		c0.1,0,0.1,0.1,0.3,0.1C97.6,61.9,97.8,61.9,97.9,61.8z"/>
	<path class="st0" d="M94.5,64.2C94.6,64.2,94.6,64.2,94.5,64.2c0.5,0.8,1.1,1.6,2.3,1.6c0,0.1-0.2,0.1-0.2,0.2
		c-0.3,0.2-0.7,0.3-1,0.4c-0.1,0-0.2,0.1-0.4,0.1c-0.2,0-0.4-0.1-0.5-0.2c0,0-0.1-0.1-0.1-0.1c-0.1-0.2-0.2-0.4-0.1-0.7
		c0.1,0,0.1,0.1,0.1,0.1c0.1,0.1,0.2,0.3,0.3,0.4c0-0.2-0.3-0.5-0.4-0.8C94.4,64.9,94.5,64.6,94.5,64.2
		C94.5,64.2,94.5,64.2,94.5,64.2z"/>
	<path class="st0" d="M110.4,72.9c0.3,0,0.4,0.1,0.4,0.3c0.2,0.1,0.4,0.3,0.4,0.5c0,0.2-0.2,0.3-0.3,0.4c-0.1,0.1-0.1,0.2-0.2,0.4
		c0,0.1-0.1,0.1-0.2,0.2c0,0.1-0.1,0.1-0.1,0.2c0,0-0.1,0-0.1,0.1c0,0-0.1,0.1-0.1,0.1c-0.1,0.1-0.3,0.2-0.5,0.4
		c-0.1,0-0.2,0.1-0.3,0.1c-0.2,0-0.3,0.1-0.4,0.1c-0.2-0.1-0.3-0.1-0.3-0.4c-0.1-0.1-0.2-0.1-0.3-0.2c0-0.1,0-0.1-0.1-0.2
		c-0.1-0.2-0.2-0.2-0.2-0.4c0,0,0-0.1,0-0.2c0-0.1-0.2-0.2-0.3-0.3c0-0.1,0.1-0.2,0.1-0.3c-0.1-0.2,0-0.4,0.2-0.5
		c0-0.1,0.1-0.2,0.1-0.4c0.1,0,0.1-0.1,0.1-0.1c0,0,0.1,0,0.2,0c0,0,0.1,0,0.1-0.1c0,0,0.1,0,0.1,0c0.1,0,0.2-0.2,0.3-0.2
		c0.1,0,0.1,0,0.2,0c0.1,0,0.2-0.1,0.3-0.1c0.1,0,0.2,0.1,0.2,0.1c0.1,0,0.2,0,0.4,0C110.3,72.6,110.3,72.7,110.4,72.9z"/>
	<path class="st0" d="M71,89.5c0.1,0.2,0.2,0.4,0.2,0.6c0.1,0.5-0.3,0.6-0.6,0.8c-0.2,0.1-0.4,0.2-0.5,0.3c-0.3,0.1-0.9,0.3-1.2,0.4
		c-0.6,0-1-0.1-1.4-0.2c-0.1-0.2-0.2-0.3-0.2-0.5c0-0.1,0.1-0.2,0.1-0.3c0-0.1-0.1-0.3-0.2-0.4c0-0.2,0.1-0.3,0.1-0.5
		c0-0.2-0.1-0.4-0.1-0.6c0,0,0-0.1,0-0.1c0-0.1,0.1-0.2,0.1-0.3c0-0.2-0.2-0.4-0.1-0.5c0-0.2,0.4-0.3,0.4-0.5c0-0.2,0-0.4,0.2-0.4
		c0.1,0,0.1,0,0.2,0c0.1-0.1,0.2-0.3,0.3-0.4c0.2-0.2,0.6,0,0.8,0.1c0.1,0,0.3,0,0.4,0c0.1,0,0.1,0.2,0.3,0.3
		c0.1,0.1,0.3,0.1,0.3,0.1c0.1,0.1,0.1,0.2,0.2,0.3c0.2,0.3,0.5,0.3,0.6,0.7c0,0.1,0,0.3,0,0.4c0,0.1,0.1,0.1,0.2,0.2
		C71.1,89.2,71.2,89.4,71,89.5z"/>
	<path class="st0" d="M127.6,102.9c0.1,0,0.4,0,0.5,0.1c0.1,0,0.1,0.1,0.1,0.2c0,0,0.1,0.1,0.2,0.1c0.1,0,0.2,0,0.3,0.1
		c0.1,0,0.2,0.1,0.3,0.2c0.1,0.1,0.1,0.2,0.1,0.3c0.2,0.1,0.5,0,0.6,0.2c0.1,0.1,0,0.3,0,0.5c0,0.1,0.3,0.2,0.3,0.3
		c0,0.2-0.1,0.3-0.1,0.4c0.1,0.2,0.2,0.3,0.2,0.5c0,0.1-0.1,0.3-0.2,0.3c-0.1,0.2-0.3,0.3-0.4,0.3c-0.1,0.3-0.2,0.5-0.6,0.5
		c-0.1,0.1-0.2,0.2-0.4,0.3c-0.2,0-0.4,0-0.6,0.2c-0.1,0.1-0.2,0.2-0.4,0.2c-0.1,0-0.2,0-0.3-0.1c-0.1,0-0.1-0.2-0.2-0.2
		c-0.1,0-0.1,0.1-0.2,0.1c-0.2,0.1-0.3,0.1-0.5-0.1c-0.1-0.1-0.1-0.1-0.1-0.2c-0.1,0-0.2,0-0.2,0c-0.3,0-0.6-0.2-0.7-0.4
		c0.1-0.8,0.2-1.7,0.4-2.5c0.2-0.5,0.5-1,0.8-1.4c0.1-0.1,0.2-0.3,0.3-0.4c0.1,0,0.3-0.1,0.5,0C127.4,102.6,127.5,102.8,127.6,102.9
		z"/>
	<path class="st0" d="M111.1,76C111.1,76,111.1,75.9,111.1,76C111.1,75.9,111,76,111.1,76z"/>
	<path class="st0" d="M110.8,76.1C110.9,76.1,110.9,76.1,110.8,76.1C110.9,76,110.9,76.1,110.8,76.1z"/>
	<path class="st0" d="M69.4,93.6c0,0,0.1,0,0.1,0C69.5,93.6,69.5,93.6,69.4,93.6z"/>
	<g>
		<path class="st0" d="M139,95.6c0.1-0.1,0.3-0.1,0.5-0.2c0.2,0,0.4-0.1,0.6-0.1c0.2,0.1,0.3,0.2,0.4,0.3c0.2,0,0.3,0.1,0.5,0.1
			c0.9,0.1,1.7-0.8,1.3-1.7c0-0.1-0.1-0.2-0.1-0.2c-0.1-0.2-0.4-0.4-0.7-0.4c-0.1,0-0.2,0-0.2-0.1c-0.1,0-0.4,0-0.5,0.1
			c-0.1,0-0.2,0.1-0.2,0.1c-0.2,0.1-0.4,0.3-0.5,0.6c0,0.1-0.1,0.2-0.1,0.4c0,0.2,0.1,0.3,0,0.5c-0.5,0.1-1,0.2-1.5,0.3
			c-0.1,0-0.4,0.1-0.5,0.1c-0.1,0-0.5-0.2-0.5-0.3c0-0.1,0.1-0.3,0.1-0.4c0.1-0.3,0.2-0.6,0.3-0.9c0.1-0.1,0.1-0.4,0.2-0.4
			c0.1,0,0.2,0,0.3,0c0.1,0,0.2,0,0.3,0c0,0,0.1,0,0.1-0.1c0,0,0.1,0,0.1,0c0.1,0,0.1-0.1,0.2-0.2c0.2-0.2,0.4-0.4,0.5-0.8
			c0-0.4-0.1-0.7-0.3-0.9c-0.2-0.3-0.7-0.5-1.2-0.4c-0.1,0-0.2,0-0.2,0.1c-0.1,0-0.1,0.1-0.2,0.1c-0.2,0.1-0.3,0.3-0.4,0.4
			c-0.1,0.3-0.1,0.7,0,1c0.1,0.1,0.2,0.2,0.2,0.4c0.1,0.2,0,0.4-0.1,0.6c0,0.1-0.1,0.3-0.2,0.3c-0.2-0.1-0.3-0.3-0.4-0.4
			c-0.1-0.1-0.3-0.3-0.4-0.4c-0.1-0.1-0.2-0.3-0.3-0.5c-0.1-0.2-0.2-0.4-0.3-0.6c0-0.4,0.1-0.7,0.3-0.9c0.1-0.1,0.3-0.2,0.4-0.3
			c0.3-0.4,0.3-1,0-1.4c-0.1-0.1-0.2-0.2-0.4-0.3c-0.3-0.1-0.7-0.2-1-0.1c-0.2,0.1-0.5,0.2-0.6,0.4c-0.1,0.1-0.1,0.2-0.2,0.3
			c-0.3,0.6,0,1.3,0.6,1.6c0.1,0.1,0.3,0,0.4,0.1c0,0.4,0.1,0.8,0.2,1c0.3,0.7,0.6,1.3,1,1.9c0.1,0.1,0.2,0.2,0.2,0.4
			c-0.3-0.1-0.6-0.2-1-0.3c-0.1,0-0.3-0.1-0.3-0.1c-0.1-0.1-0.1-0.2-0.1-0.3c0-0.1-0.1-0.2-0.1-0.3c-0.1-0.1-0.3-0.4-0.3-0.5
			c0-0.1,0.1-0.2,0.1-0.3c0.1-0.2,0-0.5-0.1-0.7c-0.2-0.4-0.9-0.6-1.3-0.2c-0.1,0.1-0.2,0.2-0.3,0.4c-0.1,0.3-0.1,0.6,0.1,0.8
			c0.1,0.2,0.4,0.3,0.7,0.3c0.2,0,0.3-0.1,0.5-0.1c0.1,0.1,0.1,0.2,0.2,0.3c0,0.1,0.1,0.3,0.1,0.4c-0.2,0-0.5-0.1-0.7-0.1
			c-0.6-0.1-1.2-0.2-1.9-0.2c-0.1,0-0.3,0-0.4,0c0-0.1,0.1-0.3,0.1-0.4c0.2-0.4,0.6-0.6,0.6-1.1c0-0.3-0.1-0.6-0.3-0.7
			c-0.1-0.1-0.2-0.1-0.3-0.2c-0.2,0-0.4-0.1-0.6-0.1c-0.2,0-0.4,0.1-0.5,0.3c-0.2,0.2-0.5,0.6-0.5,1c0,0.5,0.5,0.8,0.8,0.9
			c0.1,0.2,0.4,0.1,0.4,0.3c-0.2,0-0.3,0.1-0.5,0.1c-0.5,0.1-1,0.2-1.4,0.3c-0.6,0.2-1.1,0.4-1.7,0.6c-0.2,0.1-0.4,0.1-0.5,0.2
			c-0.2,0.1-0.3,0.2-0.5,0.2c-0.1-0.1,0-0.2,0.1-0.4c0-0.3,0.1-0.6,0.1-0.9c0-0.1,0.1-0.3,0-0.4c-0.1,0-0.3,0-0.4,0.1
			c-0.2,0-0.3,0.1-0.4,0.1c-0.4,2.2-1.3,4.1-2.5,5.4c-0.2,0.2-0.4,0.5-0.6,0.7c-0.1,0.1-0.3,0.2-0.4,0.3c-0.1,0.1-0.1,0.1-0.2,0.2
			c-0.1,0.1-0.1,0.1-0.2,0.1c-0.1,0.1-0.1,0.1-0.2,0.2c-0.1,0.1-0.2,0.1-0.2,0.1c-0.2,0.1-0.3,0.2-0.4,0.3c-0.1,0.1-0.1,0.1-0.2,0.1
			c-0.2,0.2-0.5,0.3-0.7,0.4c-0.1,0.1-0.3,0.1-0.4,0.2c0,0-0.1,0-0.2,0c-0.1,0-0.2,0.1-0.2,0.1c-0.1,0-0.2,0.1-0.3,0.1c0,0,0,0,0,0
			c0,0-0.1,0-0.1,0c-0.2,0.1-0.4,0.2-0.7,0.3c-0.1,0-0.2,0.1-0.3,0.1c-0.1,0-0.1,0-0.2,0c0,0-0.1,0-0.1,0c-0.2,0.1-0.5,0.2-0.7,0.3
			c-0.1,0-0.1,0-0.2,0.1c-0.4,0.1-0.9,0.2-1.3,0.3c-0.7,0.2-1.4,0.3-2.1,0.4c-0.1,0-0.1,0-0.2,0c-0.1,0-0.2,0-0.2,0
			c-0.1,0-0.3,0-0.4,0c-0.1,0-0.3,0-0.4,0.1c-0.1,0-0.3,0.1-0.4,0c-0.1,0-0.1-0.3-0.2-0.4c0-0.1,0-0.2,0-0.3c0-0.2-0.1-0.4-0.1-0.6
			c0-0.1-0.1-0.2-0.1-0.2c0-0.1,0-0.1,0-0.2c0-0.2-0.1-0.4-0.1-0.6c0-0.3,0-0.6-0.1-0.9c0-0.1,0-0.2,0-0.3c0-0.4,0-0.6,0.1-1
			c0-0.2,0-0.4,0-0.6c0-0.2,0.1-0.5,0.1-0.7c0.1-0.3,0.1-0.7,0.2-0.9c0-0.2,0.1-0.3,0.1-0.4c0.1-0.3,0.2-0.6,0.3-0.9
			c0.1-0.1,0.1-0.2,0.1-0.3c0-0.1,0.1-0.1,0.2-0.2c0.1-0.3,0.3-0.5,0.4-0.8c0.1-0.1,0.1-0.3,0.3-0.5c0.1-0.1,0.1-0.1,0.2-0.2
			c0.1-0.1,0.1-0.2,0.2-0.2c0.1,0,0.2,0.1,0.3,0.1c0.1,0,0.1,0,0.1,0c0,0,0.1,0,0.1,0.1c0.1,0.1,0.4,0.2,0.5,0.3
			c0.1,0.1,0.2,0.4,0.2,0.5c0,0.1,0,0.2,0,0.2c0,0.3-0.1,0.4-0.2,0.7c-0.1,0.2-0.2,0.4-0.3,0.6c0,0.1-0.1,0.1-0.1,0.2
			c-0.1,0.1-0.2,0.2-0.2,0.2c0,0,0,0.1,0,0.1c-0.1,0.1-0.2,0.2-0.3,0.3c-0.1,0.1-0.1,0.1-0.2,0.2c0,0-0.1,0-0.1,0.1
			c-0.1,0.1-0.2,0.2-0.3,0.3c-0.1,0.1-0.2,0.2-0.3,0.3c-0.1,0.1-0.1,0.2-0.2,0.3c-0.1,0.1-0.1,0.3-0.1,0.4c0,0.3,0.1,0.5,0.1,0.7
			c0,0.1,0.1,0.1,0.2,0.2c0.1,0.1,0.1,0.1,0.1,0.2c0.1,0.1,0.2,0.1,0.3,0.2c0.1,0.1,0.2,0.1,0.3,0.2c0.3,0.2,0.9,0.3,1.3,0.1
			c0.1,0,0.1-0.1,0.2-0.1c0.1-0.1,0.1-0.1,0.2-0.1c0.3-0.2,0.5-0.5,0.5-0.9c0-0.1,0-0.4,0-0.5c0-0.1-0.1-0.2-0.2-0.4
			c-0.1-0.2-0.1-0.3-0.2-0.4c0-0.1-0.1-0.1-0.2-0.2c-0.1-0.1-0.1-0.2-0.2-0.3c-0.1-0.1-0.3-0.2-0.3-0.3c0-0.1,0-0.2,0.1-0.3
			c0.1-0.2,0.1-0.4,0.2-0.6c0-0.1,0-0.2,0.1-0.3c0.2,0.1,0.5,0.2,0.7,0.3c0.2,0.1,0.4,0.3,0.6,0.4c0.1,0.1,0.2,0.3,0.2,0.4
			c0.1,0.2,0.3,0.4,0.2,0.6c0,0.1-0.1,0.1-0.1,0.2c0,0.1,0,0.2,0,0.3c0,0.1,0,0.2,0,0.3c0,0.1,0.1,0.2,0.1,0.3c0,0.1,0,0.3,0.1,0.4
			c0.1,0.2,0.2,0.5,0.4,0.7c0.2,0.2,0.3,0.2,0.6,0.3c0.1,0,0.3,0.1,0.4,0.1c0.2,0,0.3,0,0.5-0.1c0.5-0.1,0.8-0.4,1-0.8
			c0.1-0.3,0.2-0.7,0.2-1c-0.1-0.4-0.2-0.6-0.4-0.9c-0.2-0.2-0.4-0.3-0.7-0.3c-0.3-0.1-0.5-0.2-0.9-0.2c-0.1,0-0.4,0-0.5,0
			c-0.2,0-0.2-0.2-0.3-0.4c0.1-0.1,0.3-0.1,0.5-0.2c0.2-0.1,0.4-0.1,0.6-0.2c0.1,0,0.3-0.1,0.4-0.1c0.1,0,0.2,0,0.3,0
			c0.2,0,0.3-0.1,0.5-0.1c0.1,0,0.2-0.1,0.3-0.1c0.4-0.1,0.7-0.1,1,0c0.2,0.1,0.3,0.1,0.4,0.2c0.1,0.1,0.3,0.3,0.4,0.4
			c0.2,0.1,0.4,0.3,0.6,0.5c0.1,0,0.2,0.1,0.2,0.1c0.2,0.1,0.6,0.2,0.9,0.1c0.2-0.1,0.4-0.4,0.5-0.6c0.1-0.2,0.2-0.5,0.3-0.8
			c0.1-0.2,0.1-0.3,0.1-0.5c0-0.3,0-0.6-0.1-0.8c-0.2-0.4-0.7-0.6-1.4-0.5c-0.1,0-0.2,0.1-0.3,0.1c-0.1,0-0.2,0.1-0.3,0.1
			c-0.2,0.1-0.4,0.2-0.5,0.2c-0.2,0.1-0.4,0.1-0.5,0.2c-0.2,0.1-0.3,0.2-0.5,0.3c-0.2,0.1-0.4,0.1-0.6,0.1c-0.1,0-0.2,0-0.3,0
			c-0.1,0-0.2,0.1-0.3,0.1c-0.1,0-0.1,0-0.2,0c-0.1,0-0.2,0.1-0.3,0.1c-0.1,0-0.2,0-0.3,0c-0.1,0-0.1,0.1-0.2,0.1
			c-0.1,0-0.1,0-0.2,0c-0.1,0-0.3,0.1-0.4,0.1c-0.1,0-0.3,0.1-0.4,0.1c-0.1,0-0.3,0.1-0.4,0.1c-0.1,0-0.3,0.1-0.4,0.2
			c-0.1,0-0.2,0-0.4-0.1c-0.1,0-0.2-0.1-0.3-0.1c-0.1-0.1-0.4-0.3-0.4-0.5c0-0.1,0-0.3,0-0.4c0-0.1-0.1-0.2-0.1-0.3
			c0-0.1-0.1-0.1-0.2-0.2c0-0.1-0.1-0.1-0.1-0.2c-0.2-0.3-0.5-0.6-0.8-0.9c-0.1-0.1-0.2-0.1-0.2-0.1c0-0.1,0.1-0.2,0.1-0.2
			c0.1-0.1,0.2-0.1,0.2-0.1c0.1-0.1,0.2-0.2,0.3-0.3c0.2-0.2,0.4-0.4,0.6-0.6c0.1-0.1,0.2-0.3,0.3-0.3c0.1,0,0.2,0.1,0.3,0.1
			c0.7,0.2,1.3,0.6,1.6,1.1c0.2,0.3,0.2,0.7,0.4,1c0.1,0.2,0.3,0.3,0.4,0.4c0.3,0.1,0.6,0.1,1,0.1c0.1,0,0.1,0,0.2,0
			c0.1,0,0.2-0.1,0.3-0.1c0.4-0.2,0.6-0.4,0.8-0.7c0.1-0.2,0.2-0.5,0.2-0.8c0-0.1,0-0.2-0.1-0.3c-0.1-0.2-0.1-0.4-0.2-0.6
			c-0.2-0.2-0.2-0.3-0.5-0.4c-0.3-0.1-0.6-0.2-0.9-0.2c-0.3,0-0.8,0.2-1,0.3c-0.1,0-0.2,0.2-0.3,0.3c-0.1,0.1-0.2,0.3-0.3,0.3
			c-0.2,0-0.3-0.1-0.4-0.1c-0.3-0.2-0.4-0.3-0.6-0.5c-0.1-0.1-0.3-0.2-0.3-0.3c0-0.1,0.2-0.2,0.3-0.3c0.1-0.1,0.2-0.2,0.3-0.2
			c0.1-0.1,0.2-0.2,0.3-0.2c0.2-0.1,0.3-0.2,0.4-0.3c0,0,0.1-0.1,0.1-0.1c0.2-0.1,0.4-0.1,0.6-0.2c0.1,0,0.2-0.1,0.3-0.1
			c0.1,0,0.1,0,0.2,0.1c0.1,0,0.1,0.1,0.2,0.1c0.4,0.2,0.7,0.4,1.2,0.6c0.3,0.1,0.7,0.2,1,0.3c0.1,0,0.3,0,0.3,0.1
			c0,0.1-0.1,0.2-0.1,0.3c-0.1,0.4,0,0.8,0.1,1c0,0.1,0.1,0.2,0.1,0.2c0.2,0.3,0.7,0.6,1.1,0.7c0.1,0,0.3,0.1,0.4,0.1
			c0.1,0,0.2,0,0.3-0.1c0.1,0,0.2,0,0.3-0.1c0.2-0.1,0.5-0.2,0.6-0.4c0.1-0.1,0.3-0.4,0.4-0.6c0.3-0.9-0.1-1.8-0.6-2.2
			c-0.1-0.1-0.3-0.1-0.5-0.2c-0.2-0.1-0.3-0.1-0.5-0.1c-0.3,0-0.5,0.1-0.7,0.1c-0.1,0-0.2,0-0.2,0.1c-0.1,0.1-0.2,0.3-0.4,0.3
			c-0.1,0-0.2-0.1-0.3-0.1c-0.2-0.1-0.4-0.1-0.6-0.1c-0.1,0-0.2-0.1-0.3-0.1c-0.1,0-0.2,0-0.3,0c-0.3,0-0.4-0.1-0.7-0.3
			c-0.1-0.1-0.4-0.1-0.4-0.3c0-0.1,0.2-0.1,0.4-0.2c0.1,0,0.1-0.1,0.2-0.1c0.1,0,0.2-0.1,0.2-0.1c0.1,0,0.3-0.1,0.4-0.2
			c0.2,0,0.4,0,0.5-0.1c0.2,0,0.4-0.2,0.7-0.1c0.1,0,0.1,0,0.2,0.1c0.1,0,0.1,0,0.2,0c0.1,0,0.2,0.1,0.4,0.1c0.4,0.1,0.8,0.1,1.1,0
			c0.2-0.1,0.3-0.1,0.5-0.2c0.2-0.2,0.4-0.3,0.4-0.6c0-0.2,0-0.4-0.1-0.5c-0.1-0.3-0.2-0.5-0.4-0.7c-0.2-0.2-0.4-0.4-0.6-0.4
			c-0.4-0.1-0.7,0.2-0.9,0.3c-0.1,0.1-0.2,0.2-0.3,0.3c-0.1,0.1-0.2,0.1-0.2,0.1c0,0-0.1,0.1-0.1,0.2c0,0.1-0.1,0.1-0.1,0.1
			c-0.1,0.1-0.1,0.2-0.3,0.3c-0.1,0.1-0.2,0.1-0.3,0.1c-0.1,0-0.2,0.1-0.3,0.1c-0.2,0.1-0.4,0.2-0.6,0.2c-0.1-0.2,0-0.4,0-0.6
			c0.1-0.2,0.1-0.4,0.2-0.5c0.1-0.1,0.1-0.3,0.2-0.5c0.1-0.2,0.2-0.4,0.3-0.4c0.1,0,0.2,0,0.3,0c0.1,0,0.2-0.1,0.2-0.1
			c0.2-0.1,0.3-0.2,0.4-0.2c0.1-0.1,0.2-0.1,0.2-0.1c0.1-0.1,0.2-0.2,0.2-0.4c0.2-0.5,0.2-1.2-0.1-1.6c-0.2-0.3-0.2-0.3-0.4-0.5
			c-0.1-0.1-0.1-0.1-0.2-0.1c-0.3-0.1-0.8-0.1-1.1-0.1c-0.2,0-0.5,0.2-0.6,0.3c-0.1,0.1-0.3,0.3-0.3,0.4c-0.2,0.3-0.3,0.7-0.2,1.1
			c0,0.4,0.2,0.7,0.4,1c0.1,0,0.2,0.1,0.3,0.2c0,0,0.1,0,0.1,0c0.2,0.1,0.1,0.2,0,0.4c-0.2,0.3-0.3,0.6-0.5,0.9
			c-0.1,0.2-0.2,0.4-0.3,0.6c-0.1,0.2-0.1,0.5-0.3,0.7c-0.1,0.1-0.2,0.1-0.3,0.2c-0.1,0.1-0.2,0.1-0.3,0.1c-0.1,0-0.1-0.1-0.2-0.2
			c-0.1-0.1-0.1-0.1-0.2-0.2c-0.1-0.1-0.2-0.3-0.3-0.4c-0.3-0.4-0.4-0.7-0.7-1c0,0-0.1-0.1-0.1-0.1c-0.1-0.2,0.1-0.3,0.2-0.4
			c0.3-0.3,0.5-0.7,0.4-1.2c0-0.4-0.2-0.8-0.5-1c-0.3-0.2-0.9-0.5-1.4-0.3c-0.1,0-0.2,0.1-0.3,0.1c-0.1,0.1-0.3,0.1-0.4,0.1
			c-0.1,0.1-0.2,0.2-0.2,0.3c-0.2,0.3-0.3,0.8-0.3,1.1c0,0.2,0.1,0.3,0.2,0.5c0.1,0.1,0.1,0.2,0.1,0.3c0,0.1,0.1,0.1,0.2,0.2
			c0.1,0.1,0.1,0.1,0.2,0.2c0.1,0.1,0.3,0.1,0.5,0.2c0.2,0.1,0.4,0.1,0.6,0.1c0.2,0.1,0.4,0.3,0.5,0.4c0.1,0.1,0.4,0.4,0.3,0.5
			c0,0.1-0.1,0.1-0.2,0.1c-0.3,0-0.7,0-0.9,0.1c-0.4,0-0.9,0-1.2-0.1c-0.2,0-0.4,0-0.5-0.1c-0.3-0.1-0.5-0.3-0.7-0.5
			c-0.1-0.1-0.3-0.2-0.4-0.3c0-0.1,0-0.1,0-0.2c0-0.1,0-0.2,0-0.2c0-0.5-0.1-0.8-0.3-1.1c-0.1-0.1-0.2-0.1-0.3-0.2
			c-0.1,0-0.1-0.1-0.2-0.2c-0.1-0.1-0.3-0.1-0.5-0.1c-0.4,0-0.5,0-0.8,0.2c-0.4,0.2-0.6,0.3-0.8,0.8c0,0.1-0.1,0.2-0.1,0.3
			c0,0.2,0,0.4,0,0.5c0.1,0.5,0.2,0.8,0.5,1.1c0.3,0.2,0.5,0.3,0.9,0.3c0.2,0,0.4,0,0.5,0c0.1,0,0.3-0.1,0.3-0.2
			c0.1-0.1,0.2-0.2,0.3-0.2c0.1,0,0.1,0.1,0.2,0.1c0.3,0.2,0.5,0.3,0.9,0.4c0.3,0.1,0.5,0.1,0.8,0.2c0.2,0,0.5,0,0.7,0
			c0.2,0,0.5,0,0.7,0c0.2,0,0.4-0.1,0.6-0.1c0.1,0,0.1,0,0.2,0c0.1,0,0.3-0.1,0.4,0c0.1,0.1,0.2,0.5,0.2,0.6c0,0.1-0.1,0.1-0.2,0.2
			c-0.2,0.1-0.4,0.2-0.5,0.3c-0.1,0.1-0.2,0.2-0.2,0.2c-0.1,0-0.2,0-0.2,0c-0.1,0-0.1,0.1-0.2,0.2c-0.1,0.1-0.2,0.1-0.3,0.2
			c0,0-0.1,0.1-0.1,0.1c0,0-0.1,0-0.1,0.1c-0.1,0.1-0.1,0.1-0.2,0.2c-0.1,0.1-0.3,0.2-0.5,0.4c-0.1,0.1-0.3,0.4-0.5,0.4
			c-0.3,0-0.4-0.6-0.5-0.8c-0.1-0.3-0.1-0.5-0.2-0.6c-0.3-0.3-0.7-0.4-1.1-0.2c-0.1,0-0.3,0.1-0.4,0.2c-0.1,0.1-0.2,0.3-0.2,0.5
			c0,0.2,0,0.4,0.1,0.5c0,0.1,0,0.2,0,0.2c0,0,0.1,0.1,0.1,0.1c0.2,0.2,0.3,0.4,0.6,0.5c0.3,0,0.7-0.1,0.8-0.3
			c0.1,0,0.1-0.1,0.3-0.2c0.2,0,0.4,0.1,0.4,0.2c0,0.1-0.1,0.1-0.2,0.2c-0.2,0.2-0.5,0.5-0.6,0.7c-0.1,0.2-0.3,0.3-0.4,0.5
			c-0.1,0.1-0.1,0.2-0.2,0.3c-0.1,0.1-0.1,0.2-0.2,0.2c-0.2-0.2-0.3-0.5-0.4-0.7c-0.1-0.3-0.2-0.8-0.4-1c-0.1-0.1-0.3-0.4-0.4-0.4
			c-0.5-0.1-1-0.1-1.4,0.1c-0.1,0-0.2,0.2-0.3,0.3c-0.2,0.2-0.3,0.4-0.3,0.7c0,0.3,0,0.5,0.1,0.7c0.1,0.2,0.1,0.4,0.2,0.5
			c0,0.1,0.1,0.1,0.1,0.2c0.2,0.3,0.4,0.4,0.8,0.4c0.2,0,0.4,0,0.5-0.1c0.1,0,0.1-0.1,0.2-0.1c0.1,0,0.2,0,0.3-0.1
			c0.1-0.1,0.2-0.3,0.4-0.3c0.1,0,0.1,0.1,0.2,0.1c0.1,0,0.1,0,0.1,0.2c0,0.1-0.2,0.3-0.3,0.4c-0.2,0.3-0.3,0.5-0.5,0.8
			c-0.1,0.2-0.3,0.4-0.4,0.6c0,0.1-0.1,0.1-0.1,0.2c-0.1,0.1-0.2,0.3-0.2,0.4c-0.1,0.2-0.1,0.3-0.2,0.4c-0.1,0.2-0.2,0.3-0.2,0.4
			c-0.1,0.3-0.3,0.6-0.4,0.9c-0.2,0.5-0.3,0.9-0.5,1.4c-0.1,0.4-0.2,0.6-0.3,1c0,0.2-0.1,0.4-0.1,0.5c-0.1,0.1-0.4,0.1-0.6,0.1
			c-0.1,0-0.3-0.1-0.4-0.2c-0.2-0.2-0.4-0.5-0.5-0.7c0-0.2,0.1-0.2,0.1-0.4c0-0.1,0-0.3,0.1-0.4c0-0.1,0-0.3,0-0.4
			c0-0.7-0.1-1.5-0.1-2.2c0-0.3,0-0.5,0-0.8c0-0.2,0.1-0.4,0.2-0.6c0.1-0.3,0.2-0.5,0.2-0.8c0-0.1,0.1-0.3,0.1-0.4
			c0-0.4,0-0.7-0.1-1c-0.1-0.1-0.1-0.3-0.2-0.3c0,0-0.1,0-0.2-0.1c-0.1,0-0.1-0.1-0.2-0.1c-0.1,0-0.1,0-0.2,0c-0.1,0-0.1,0-0.2,0
			c-0.2,0-0.4,0.1-0.5,0.1c-0.1,0-0.2,0-0.3,0.1c-0.1,0-0.3,0.2-0.4,0.2c-0.1,0-0.1,0-0.1,0.1c-0.1,0.1-0.3,0.2-0.4,0.4
			c-0.1,0.1-0.3,0.3-0.3,0.5c-0.2,0.5,0.2,0.9,0.4,1.1c0.1,0.1,0.2,0.3,0.4,0.4c0.3,0.2,0.7,0.3,0.9,0.6c0.1,0.1,0.1,0.2,0.2,0.4
			c0.1,0.3,0.2,0.8,0.2,1.2c0,0.1,0,0.2,0,0.2c0,0.1,0,0.2,0,0.3c0,0.1,0,0.2,0,0.3c0,0.1,0,0.1,0,0.2c0,0.3,0,0.7-0.1,1
			c0,0.1,0,0.3-0.1,0.3c-0.3,0-0.4-0.1-0.5-0.4c-0.1-0.4-0.2-0.8-0.4-1c-0.1-0.2-0.2-0.3-0.4-0.5c-0.2-0.2-0.6-0.5-1-0.5
			c-0.5,0-1,0.2-1.3,0.4c-0.1,0.1-0.2,0.2-0.3,0.4c-0.1,0.1-0.1,0.2-0.2,0.2c-0.1,0.3-0.1,0.7-0.1,0.9c0,0.1,0,0.1,0,0.2
			c0,0.1,0.1,0.2,0.2,0.4c0.1,0.1,0.1,0.2,0.2,0.3c0.3,0.3,0.7,0.3,1.1,0.4c0.3,0,0.7,0,1-0.1c0.1,0,0.2,0,0.3-0.1
			c0.1,0,0.1-0.1,0.2-0.1c0.1,0,0.3,0,0.4,0c0.1,0,0.3,0,0.4,0c0.1,0,0.3,0.1,0.4,0.2c0.1,0.1,0.2,0.2,0.3,0.3
			c0.2,0.2,0.4,0.4,0.6,0.7c-0.2,0.3-0.6,0.3-0.8,0.5c-0.1,0.1-0.2,0.2-0.3,0.2c-0.1,0-0.2-0.1-0.3-0.2c-0.1-0.1-0.2-0.1-0.3-0.1
			c-0.4-0.2-0.8-0.3-1.3-0.3c-0.4,0-0.8,0.3-1,0.5c-0.2,0.2-0.4,0.5-0.4,0.8c-0.1,0.6,0.1,1,0.4,1.3c0.1,0.1,0.3,0.2,0.4,0.3
			c0.2,0.1,0.3,0.2,0.5,0.2c0.2,0,0.4,0,0.6,0h0c0.1,0,0.3-0.1,0.4-0.2c0.3-0.2,0.6-0.5,0.8-0.8c0.1-0.2,0.2-0.4,0.4-0.6
			c0.1-0.1,0.1-0.2,0.2-0.3c0.1-0.1,0.1-0.2,0.2-0.3c0.1,0,0.1-0.1,0.2-0.1c0,0,0.1-0.1,0.1-0.1c0.1-0.1,0.2-0.2,0.3-0.3
			c0.2-0.2,0.5-0.4,0.8-0.4c0,0.2-0.1,0.4-0.1,0.7c-0.1,0.6-0.2,1.2-0.3,1.8c0,0.1,0,0.3-0.1,0.4c-0.1,0.1-0.5,0.1-0.7,0.2
			c-0.3,0.1-0.5,0.1-0.7,0.2c-1,0.3-1.9,0.5-2.7,0.8c-0.2,0.1-0.3,0.1-0.5,0.2c-0.2,0.1-0.4,0.2-0.6,0.3c-0.1,0-0.3,0.1-0.4,0.2
			c-0.3,0.1-0.5,0.2-0.8,0.4c-0.1,0-0.2,0-0.2,0.1c-0.1,0-0.1,0.1-0.2,0.1c-0.2-2-0.3-4.3-0.4-6.4c-0.1-0.9-0.1-1.8-0.1-2.6
			c0-0.4,0-0.9,0-1.3c0-0.4,0-0.8,0-1.2c0-0.3,0-0.7,0-1.1c-0.1-0.6-0.1-1.2-0.1-1.8c0-0.2-0.1-0.4,0-0.6c0-0.1,0.1-0.2,0.2-0.3
			c0.1-0.1,0.2-0.2,0.2-0.3c0.4-0.6,1-1.1,1.4-1.7c0.3-0.4,0.6-0.8,0.9-1.1c0.3-0.4,0.6-0.8,1-1.1c0.7-0.7,1.5-1.3,2.3-1.9
			c0.4-0.3,0.8-0.6,1.2-0.9c0.2-0.2,0.4-0.3,0.6-0.5c0.3-0.3,0.4-0.5,0.8-0.5c0.3,0,0.6,0,0.9,0c0.1,0,0.3-0.1,0.4-0.1
			c0.2,0,0.3,0,0.5,0c0.2,0,0.3-0.1,0.5-0.1c0.2,0,0.4-0.1,0.5-0.1c2.1-0.5,3.8-1.4,5.3-2.4c0.2-0.1,0.4-0.3,0.6-0.4
			c0,0,0.1-0.2,0.2-0.1c0,0.4-0.3,0.7-0.3,1.1c0,0.3,0.1,0.5,0.2,0.7c0.2,0.3,0.7,0.4,1.1,0.4c0.1,0,0.2,0,0.3,0
			c0.7-0.1,1.1-1.1,0.7-1.7c-0.1-0.1-0.2-0.2-0.4-0.3c-0.4-0.2-1-0.1-1.2-0.5c0.4-0.4,0.7-0.7,1.1-1.1c0.2-0.2,0.3-0.4,0.5-0.6
			c0.2-0.2,0.3-0.4,0.5-0.6c0.1,0.1,0.2,0.2,0.2,0.4c0.1,0.1,0.1,0.3,0.1,0.4c-0.1,0.1-0.2,0.1-0.4,0.2c-0.3,0.2-0.5,0.4-0.5,0.8
			c0,0.4,0.4,0.8,0.8,0.8c0.6,0.1,1-0.4,1-0.9c0-0.3-0.2-0.6-0.4-0.7c-0.1-0.1-0.2-0.1-0.3-0.2c0,0,0-0.1-0.1-0.2
			c-0.1-0.4-0.2-0.7-0.3-1c0.3-0.4,0.5-0.9,0.8-1.3c0.1,0,0.3,0.1,0.4,0.1c0,0.4-0.1,0.7-0.1,1.1c0,0.6,0.1,1.2,0.2,1.7
			c0.1,0.3,0.3,0.5,0.4,0.7c-0.2,0.3-0.4,0.6-0.3,1c0.1,0.5,0.5,0.9,0.9,1c0.3,0.1,0.7,0,0.9-0.1c0.4-0.2,0.7-0.5,0.8-1
			c0.1-0.5-0.2-0.8-0.4-1c-0.2-0.2-0.4-0.3-0.7-0.4c-0.2,0-0.3,0-0.5,0c-0.1,0-0.1-0.1-0.2-0.1c-0.2-0.1-0.4-0.3-0.5-0.5
			c-0.2-0.3-0.2-0.7-0.2-1.2c0-0.2,0-0.4,0-0.6c0-0.2,0-0.4,0-0.6c0.2,0,0.4,0.1,0.5,0.2c0.2,0.1,0.3,0.2,0.4,0.4c0,0.1,0,0.2,0,0.2
			c0.1,0.6,0.5,1.2,1.3,1.1c0,0,0.1,0,0.1-0.1c0.1,0,0.1,0,0.2,0c0.3-0.1,0.6-0.4,0.7-0.7c0.1-0.2,0.1-0.5,0.1-0.8
			c-0.1-0.5-0.6-0.9-1.3-0.9c-0.3,0-0.6,0.2-0.7,0.3c-0.1,0.1-0.2,0.2-0.3,0.3c-0.5-0.3-1-0.6-1.4-0.9c-0.1-0.1-0.2-0.1-0.2-0.2
			c0-0.1,0.3-0.5,0.3-0.5c0.1-0.1,0.3-0.2,0.5-0.2c0.3-0.2,0.6-0.3,0.9-0.5c0.2-0.1,0.3-0.2,0.5-0.3c0.1,0.1,0.1,0.2,0.2,0.3
			c0.4,0.4,1.2,0.6,1.8,0.2c0,0,0.1-0.1,0.1-0.1c0.1,0,0.1-0.1,0.2-0.1c0.2-0.2,0.3-0.6,0.3-0.9c0-0.6-0.6-1.2-1.3-1.1
			c-0.3,0-0.6,0.1-0.8,0.3c-0.3,0.2-0.5,0.6-0.5,1.1c-0.3,0.2-0.7,0.5-1.1,0.6c-0.1,0.1-0.3,0.1-0.4,0.1c0-0.3,0.1-0.4,0.2-0.6
			c0.1-0.2,0.1-0.5,0.2-0.6c0.1-0.1,0.3-0.3,0.4-0.5c0.2-0.3,0.5-0.6,0.5-1.1c0-0.6-0.6-0.9-1.1-0.9c-0.1,0-0.3,0-0.4,0.1
			c-0.5,0.3-0.5,1.3-0.2,1.9c0,0.1,0.1,0.2,0.1,0.3c0,0.2,0,0.4-0.1,0.6c-0.1,0.5-0.2,0.9-0.3,1.3c0,0.1,0,0.2-0.1,0.2
			c-0.1,0-0.1-0.1-0.2-0.2c-0.4-0.5-0.5-1.2-0.7-1.8c0.2-0.3,0.4-0.7,0.4-1.1c-0.1-0.6-0.5-1-0.9-1.2c-0.5-0.1-1,0-1.3,0.2
			c-0.2,0.1-0.3,0.3-0.4,0.5c-0.3,0.6-0.1,1.2,0.2,1.5c0.3,0.3,0.7,0.5,1.2,0.5c0.1,0.2,0.2,0.4,0.3,0.6c0.2,0.5,0.6,1,1,1.3
			c0.1,0.1,0.2,0.2,0.2,0.2c0,0.1-0.1,0.2-0.1,0.3c-0.2,0.5-0.4,0.8-0.6,1.2c0,0.1-0.2,0.4-0.3,0.4c-0.1,0-0.4-0.3-0.4-0.4
			c-0.1-0.2-0.3-0.3-0.3-0.5c-0.2-0.4,0.1-0.5,0.3-0.7c0.1-0.2,0.2-0.4,0.3-0.7c0-0.3-0.1-0.7-0.2-0.9c0,0-0.1-0.1-0.1-0.1
			c-0.3-0.3-1-0.5-1.5-0.3c-0.3,0.2-0.6,0.6-0.6,1.1c0,0.2,0,0.5,0,0.7c0.1,0.4,0.5,0.5,0.8,0.6c0.1,0,0.2,0,0.4,0.1
			c0.3,0.1,0.5,0.4,0.7,0.7c0.1,0.2,0.3,0.5,0.3,0.8c-0.2,0.3-0.5,0.5-0.7,0.8c-0.1,0.1-0.2,0.2-0.3,0.2c-0.1-0.1-0.2-0.2-0.3-0.3
			c-0.2-0.1-0.4-0.2-0.6-0.3c-0.2-0.1-0.5-0.1-0.7-0.2c-0.2-0.1-0.6-0.4-0.6-0.7c0-0.1,0.1-0.2,0.2-0.4c0.4-0.7,0.4-1.7,0.5-2.6
			c0-0.2,0-0.3,0-0.5c0.1-0.1,0.2-0.3,0.2-0.4c0.1-0.1,0.1-0.3,0.2-0.4c0.1-0.2,0.2-0.5,0.3-0.8c0.1-0.4-0.1-0.8-0.3-0.9
			c-0.6-0.4-1.4,0-1.9,0.3c-0.2,0.2-0.3,0.5-0.2,0.8c0.1,0.3,0.2,0.5,0.4,0.7c0.1,0.1,0.2,0.3,0.3,0.4c0.2,0.3,0.4,0.6,0.4,1
			c0.1,0.6-0.1,1.4-0.2,1.9c0,0.1-0.2,0.5-0.2,0.5c-0.1,0-0.3-0.2-0.4-0.3c0-0.1,0-0.3,0-0.4c0-0.3-0.1-0.6-0.2-0.8
			c0-0.1-0.1-0.2-0.1-0.2c0,0-0.1,0-0.1-0.1c0,0,0-0.1,0-0.1c-0.3-0.4-0.8-0.5-1.3-0.3c-0.3,0.1-0.5,0.3-0.7,0.6
			c-0.1,0.2-0.2,0.5-0.2,0.7c0,0.6,0.4,0.9,0.9,1.1c0.2,0.1,0.5,0.1,0.8,0.1c0.2,0,0.3-0.1,0.5-0.1c0.1,0,0.2,0.1,0.3,0.1
			c0.1,0,0.3,0.1,0.3,0.1c0.2,0.1,0.3,0.3,0.4,0.5c0.1,0.2,0.2,0.4,0.3,0.7c-0.1,0.1-0.3,0.1-0.4,0.2c-0.1,0-0.3,0.2-0.4,0.2
			c-0.1,0-0.2-0.1-0.3-0.2c-0.1-0.1-0.2-0.2-0.3-0.2c-0.3-0.2-0.7-0.4-1.1-0.3c-0.4,0.1-0.8,0.5-0.9,1c0,0.1,0,0.3,0,0.4
			c0,0.3,0.2,0.6,0.4,0.7c0.2,0.2,0.6,0.5,0.9,0.5c0.2,0,0.4-0.1,0.6-0.2c0.2-0.1,0.3-0.3,0.5-0.5c0.3-0.3,0.6-0.7,1-0.9
			c0.2-0.1,0.4-0.2,0.7-0.3c0.6-0.2,1,0.1,1.2,0.6c-0.1,0.2-0.4,0.3-0.6,0.4c-1.3,0.8-2.9,1.6-4.8,1.8c-0.4,0-0.9,0-1.3,0
			c-0.1,0-0.2,0-0.2-0.1c0-0.1,0.1-0.2,0.1-0.3c0.2-0.4,0.3-0.8,0.5-1.2c0.1-0.3,0.2-0.6,0.3-1c0.1-0.4,0.2-0.9,0.3-1.4
			c0.1-0.5,0.1-1.1,0-1.7c0-0.1,0-0.1-0.1-0.2c0-0.1,0-0.2,0-0.3c-0.1-0.4-0.2-0.8-0.3-1.2c0-0.1,0-0.2-0.1-0.2
			c-0.1,0-0.1,0.1-0.2,0.2c-0.1,0.2-0.2,0.3-0.4,0.4c-0.1,0.1-0.2,0.1-0.2,0.2c0,0.1,0.1,0.2,0.1,0.3c0.1,0.3,0.2,0.6,0.2,0.9
			c-0.1-0.1-0.2-0.1-0.4-0.2c-0.1-0.1-0.3-0.2-0.3-0.3c0-0.1,0-0.3,0-0.4c0-0.1,0-0.3,0-0.4c0-0.3,0-0.6-0.2-0.7
			c-0.1,0.3-0.3,0.6-0.5,0.9c-0.1,0.1-0.2,0.2-0.2,0.2c0,0-0.1,0-0.1,0.1c0,0-0.1,0.1-0.1,0.1c-0.2,0.2-0.5,0.3-0.7,0.5
			c-0.1,0-0.2,0-0.3,0.1c-0.1,0-0.2,0.1-0.2,0.1c0.1,0.1,0.3,0.1,0.5,0.1c0.2,0,0.5,0.1,0.7,0c0.2,0,0.3-0.2,0.4-0.2
			c0,0.2-0.3,0.2-0.2,0.3c0.1,0,0.2,0,0.3,0c0.2,0.1,0.3,0.2,0.5,0.2c0.2,0.1,0.4,0.2,0.5,0.3c0,0.1,0.1,0.2,0.1,0.3
			c0,0.1,0.1,0.1,0.2,0.3c0,0.1-0.1,0.2-0.1,0.4c-0.2,0.9-0.6,1.6-1,2.2c-0.1,0.1-0.1,0.2-0.2,0.3c-0.5,0.7-1.1,1.4-1.7,1.9
			c-0.2,0.2-0.3,0.3-0.5,0.4c-0.1,0.1-0.1,0.1-0.2,0.2c0,0-0.1,0-0.1,0c-0.2,0.1-0.3,0.3-0.5,0.4c-0.5,0.4-1,0.8-1.6,1.2
			c-0.2,0.1-0.4,0.2-0.5,0.4c-0.2,0.1-0.3,0.3-0.5,0.4c-0.1,0.1-0.3,0.1-0.4,0.2c-0.3,0.2-0.5,0.3-0.8,0.5c-0.1,0.1-0.3,0.2-0.4,0.2
			c-0.4-1.1-0.3-2.8,0-3.8c0.1-0.2,0.1-0.3,0.2-0.5c0.1-0.2,0.2-0.3,0.3-0.5c0.1-0.1,0.2-0.3,0.3-0.5c0.1-0.1,0.2-0.4,0.4-0.4
			c0.1,0,0.2,0,0.3,0.1c0.3,0.1,0.6,0.2,0.8,0.4c0.2,0.3,0.2,0.6,0.5,0.7c0.2,0.1,0.5,0,0.7,0c0.2-0.1,0.5-0.3,0.6-0.6
			c0.1-0.5-0.1-0.9-0.4-1c-0.3-0.2-0.8-0.1-1.1,0.1c-0.1,0.1-0.2,0.4-0.4,0.4c-0.2,0-0.5-0.2-0.6-0.3c-0.1,0-0.2-0.1-0.2-0.2
			c0.3-0.4,0.7-0.6,1.2-0.9c0.2,0.2,0.4,0.3,0.7,0.4c0.3,0.1,0.6,0.1,0.9,0.1c0,0.3,0.1,0.6,0.2,0.8c0.1,0.2,0.5,0.4,0.8,0.4
			c0.3,0,0.5-0.2,0.7-0.3c0.2-0.2,0.3-0.5,0.2-0.9c-0.1-0.2-0.2-0.4-0.4-0.5c-0.2-0.1-0.6-0.2-0.8-0.1c-0.2,0-0.2,0.1-0.3,0.2
			c-0.1,0.1-0.1,0.1-0.2,0.2c-0.1,0-0.3,0-0.4,0c-0.1,0-0.3,0-0.4-0.1c-0.2-0.1-0.5-0.1-0.6-0.3c0.1-0.1,0.2-0.1,0.3-0.2
			c0.3-0.2,0.7-0.3,1.1-0.4c0.4,0.2,1.4,0.1,1.5-0.4c0-0.2-0.1-0.5-0.2-0.7c-0.1-0.1-0.2-0.2-0.3-0.2c-0.6-0.1-1,0.5-1.2,0.8
			c-0.1,0.1-0.3,0.1-0.4,0.2c-0.1,0.1-0.2,0.2-0.4,0.2c0.1-0.4,0.2-0.8,0.4-1.1c0.6-0.1,0.9-0.8,0.6-1.3c-0.4-0.8-1.7-0.5-1.6,0.5
			c0,0.3,0.2,0.5,0.3,0.7c0.1,0.1,0.2,0.1,0.3,0.2c-0.1,0.3-0.3,0.7-0.4,1c-0.1,0.1-0.1,0.3-0.1,0.4c0,0.1-0.2,0.2-0.3,0.2
			c-0.1,0-0.2-0.2-0.2-0.2c-0.2-0.3-0.5-0.5-0.6-0.8c0.1-0.1,0.2-0.2,0.3-0.3c0-0.1,0-0.1,0.1-0.2c0.1-0.7-0.6-1.2-1.2-0.9
			c-0.3,0.1-0.5,0.5-0.5,0.8c0,0.3,0.3,0.6,0.6,0.7c0.2,0.1,0.3,0,0.4,0.1c0.2,0.1,0.3,0.2,0.4,0.3c0,0,0.1,0.1,0.1,0.2
			c-0.2,0.1-0.4,0.1-0.7,0.1c-0.3,0-0.6,0.1-0.8,0c-0.2,0-0.3-0.1-0.4-0.2c-0.1-0.1-0.2-0.1-0.2-0.2c0-0.6-0.4-1.1-1-1
			c-0.3,0.1-0.6,0.4-0.7,0.7c-0.2,0.7,0.5,1.3,1.2,1.1c0.2-0.1,0.2-0.2,0.4-0.3c0.6,0.4,1.7,0.2,2.4,0.1c0.1,0.1,0.1,0.2,0.1,0.3
			c0,0.1-0.1,0.1-0.2,0.2c-0.2,0.1-0.3,0.2-0.4,0.3c0,0-0.1,0.2-0.2,0.2c-0.1,0-0.1,0-0.2-0.1c-0.2,0-0.5-0.1-0.7-0.1
			c-0.1-0.1-0.1-0.2-0.3-0.3c-0.4-0.2-0.9,0-0.9,0.4c0,0.3,0.1,0.6,0.4,0.7c0.4,0.1,0.6,0,0.8-0.3c0.1-0.1,0-0.2,0.1-0.3
			c0.2,0,0.4,0,0.5,0.1c-0.3,0.3-0.7,0.7-1,1.1c-0.1,0.1-0.2,0.4-0.3,0.4c-0.1,0-0.3-0.1-0.3-0.2c-0.1-0.1-0.1-0.3-0.1-0.4
			c-0.3-0.6-1.1-0.4-1.3,0c-0.2,0.4,0,0.9,0.2,1.1c0.2,0.3,0.6,0.2,0.9,0c0.1-0.1,0.1-0.2,0.2-0.2c-0.4,1-0.9,2.2-1.1,3.6
			c0,0.5-0.1,1-0.1,1.4c0,0.1,0,0.3,0.1,0.4c-0.2,0.2-0.4,0.3-0.5,0.5c-0.1,0-0.1,0.1-0.2,0.1c-0.1-2.2-0.3-4.4-0.4-6.6
			c0-0.5-0.1-1.1-0.1-1.6c0-0.2,0-0.4,0-0.5c-0.1-0.6-0.1-1.2-0.1-1.8c-0.1-0.9-0.1-1.9-0.1-2.7c0-0.2,0-0.4,0-0.6
			c0-0.5,0-0.9,0-1.4c0-0.4,0-0.9,0-1.3c0-0.2-0.1-0.3-0.1-0.6c0-0.3,0.1-0.6,0.2-0.9c0-0.1,0.1-0.2,0.1-0.3
			c0.1-0.4,0.2-0.8,0.4-1.1c0.4-0.7,0.8-1.2,1.3-1.7c0.4,0.1,0.8,0.4,0.7,0.9c0,0.2-0.2,0.5-0.3,0.7c-0.3,0.4-0.6,0.7-1,1
			c-0.5,0.3-1.2,0.8-0.8,1.6c0.1,0.3,0.5,0.7,0.9,0.8c0.3,0.1,0.6,0,0.8-0.1c0.3-0.2,0.7-0.5,0.7-0.9c0-0.4-0.2-0.8-0.3-1.1
			c-0.1-0.1-0.2-0.3-0.2-0.4c0.1-0.1,0.2-0.3,0.2-0.4c0.1-0.1,0.1-0.3,0.2-0.4c0.3,0.2,0.9,0.4,1,0.8c0,0.1,0,0.2,0,0.3
			c0,0.1,0.1,0.2,0.1,0.3c0,0.1-0.1,0.2-0.1,0.3c-0.1,0.4,0,0.8,0,1.1c0.1,0.3,0.2,0.4,0.4,0.5c0.4,0.3,1,0.2,1.4,0
			c0.2-0.1,0.4-0.4,0.5-0.7c0.2-0.7-0.3-1.2-0.8-1.5c-0.3-0.1-0.6-0.2-1-0.3c-0.1-0.1-0.2-0.2-0.2-0.4c0.8-0.3,1.7-0.5,2.5-0.2
			c0.4,0.1,0.7,0.4,0.9,0.6c0.2,0.2,0.5,0.6,0.9,0.7c0.3,0.1,0.7-0.1,0.8-0.3c0.2-0.2,0.5-0.7,0.5-1.1c0.1-0.4-0.1-0.7-0.3-0.9
			c-0.5-0.3-1.4-0.1-1.8,0.2c-0.1,0.1-0.3,0.1-0.4,0.2c-0.2,0.1-0.6,0-1,0c-0.8,0-1.5,0-2,0.2c-0.1,0.1-0.2,0.1-0.4,0.1
			c-0.2,0-0.3-0.1-0.4-0.3c-0.2-0.2-0.3-0.5-0.4-0.9c0-0.2-0.1-0.4-0.1-0.6c-0.1-0.3-0.3-0.5-0.4-0.7c0.3-0.2,0.5-0.4,0.8-0.6
			c0.1-0.1,0.2-0.2,0.3-0.2c0.1,0,0.3,0.1,0.4,0.2c0.3,0.2,0.7,0.4,0.9,0.7c0.1,0.2,0.1,0.4,0.1,0.6c0.1,0.3,0.2,0.6,0.4,0.7
			c0.6,0.4,1.5,0.2,1.9-0.2c0.3-0.3,0.3-0.9,0.1-1.3c0,0,0-0.1-0.1-0.1c-0.2-0.3-0.7-0.5-1.2-0.5c-0.4,0-0.6,0.2-0.8,0.3
			c-0.1,0.1-0.1,0.1-0.2,0.1c-0.2,0-0.4-0.2-0.6-0.3c-0.1-0.1-0.1-0.2-0.2-0.2c-0.1-0.1-0.1-0.2-0.2-0.3c0.6-0.3,1.2-0.6,2-0.8
			c0.5,0.7,1.2,1.1,1.9,1.6c-0.1,0.9,0.4,1.4,1,1.6c0.8,0.2,1.6-0.3,1.7-1c0.1-0.3,0-0.7-0.1-0.9c-0.3-0.5-1-0.9-1.7-0.6
			c-0.1,0-0.2,0.2-0.3,0.2c-0.1,0-0.4-0.1-0.5-0.2c-0.5-0.2-1-0.4-1.3-0.8c0.2-0.1,0.5-0.1,0.8-0.2c0.3,0,0.6-0.1,0.9-0.1
			c0.1,0,0.3,0.1,0.4,0.2c0.1,0.1,0.3,0.1,0.4,0.1c0.3,0.1,0.6,0.2,0.9,0.1c0.1,0,0.3-0.1,0.4-0.3c0.2-0.2,0.2-0.7,0.1-1
			c0-0.1-0.1-0.2-0.2-0.3c-0.1-0.2-0.3-0.3-0.5-0.4c-0.2,0-0.4,0-0.6,0.1c-0.3,0.1-0.5,0.3-0.7,0.4c-0.1,0.1-0.2,0.2-0.3,0.3
			c0,0-0.1,0-0.1,0c-0.3,0-0.6,0.1-0.9,0.1c0.1-0.4,0.3-0.8,0.6-1.1c0.1-0.1,0.2-0.3,0.3-0.3c0,0,0.1,0,0.2,0c0.5,0,0.9-0.3,1.1-0.6
			c0.2-0.3,0.2-0.7,0.1-1c-0.1-0.4-0.5-0.8-1-0.9c-0.6-0.1-1.1,0.4-1.3,0.8c-0.1,0.3-0.1,0.8,0.1,1c0.1,0.2,0.2,0.3,0.3,0.4
			c0,0.1,0.1,0.1,0.2,0.1c-0.1,0.2-0.2,0.3-0.3,0.4c-0.3,0.4-0.6,0.8-0.9,1.3c-0.2,0.1-0.4,0.1-0.6,0.2c-0.1-0.1-0.2-0.3-0.2-0.4
			c-0.2-0.4-0.4-0.8-0.6-1.3c0.4-0.2,0.7-0.5,0.7-1c0.1-0.8-0.6-1.4-1.2-1.3c-0.4,0-0.8,0.3-1,0.6c-0.2,0.3-0.2,0.8,0,1
			c0.1,0.3,0.4,0.5,0.7,0.6c0.1,0,0.2,0,0.3,0.1c0.1,0.1,0.3,0.3,0.3,0.4c0.1,0.2,0.2,0.4,0.2,0.6c-0.4,0-0.8-0.1-1.3-0.1
			c-0.7-0.1-1.2-0.3-1.5-0.8c0-0.1-0.1-0.2-0.1-0.3c0-0.1,0.1-0.2,0.1-0.3c0-0.2,0-0.4-0.1-0.5c-0.1-0.4-0.6-0.8-1.1-0.8
			c-0.6,0-1,0.4-1.2,0.7c-0.1,0.2-0.1,0.5-0.1,0.7c0.1,0.8,1,1.5,1.9,0.9c0.7,0.8,2,1,3.4,1c0,0.1,0,0.3,0.1,0.4
			c-0.8,0.3-1.6,0.7-2.3,1.1c-0.7,0.5-1.3,1-1.9,1.6c-0.3-0.3-0.2-0.7-0.3-1.1c-0.1-0.5-0.6-1-1.3-0.8c-0.1,0-0.2,0.1-0.3,0.1
			c-0.2,0.1-0.4,0.3-0.4,0.5c-0.1,0.4,0,1.1,0.2,1.3c0,0.1,0.2,0.1,0.2,0.2c0.3,0.1,0.6,0.1,1,0c0.2,0,0.4-0.1,0.6-0.1
			c-0.1,0.2-0.2,0.3-0.4,0.4c-0.1,0.1-0.2,0.3-0.3,0.4c-0.2,0.3-0.4,0.6-0.7,0.9c-0.2,0.2-0.5,0.3-0.8,0.5c-0.3,0.1-0.6,0.2-0.9,0.2
			c-0.3,0-0.7-0.1-0.9-0.2c0,0-0.1,0-0.1,0c-0.2-0.1-0.4-0.1-0.5-0.2c-0.6-0.3-1.1-0.6-1.6-1c-0.1-0.1-0.3-0.1-0.3-0.2
			c-0.1-0.2,0-0.4,0.1-0.5c-0.1,0-0.2,0-0.3-0.1c-0.1-0.1-0.2-0.2-0.3-0.2c0,0.1,0,0.2,0,0.3c-0.3-0.2-0.6-0.4-0.9-0.6
			c-0.3-0.2-0.6-0.4-1-0.5c-0.7-0.3-1.5-0.5-2.3-0.8c0-0.2,0-0.3,0-0.4c1.1-0.2,2.3-0.4,2.9-1c0.1-0.1,0.2-0.2,0.3-0.3
			c0.2,0.1,0.4,0.2,0.7,0.1c0.5,0,0.8-0.4,1-0.7c0.3-0.8-0.2-1.5-0.7-1.7c-0.6-0.2-1.3,0.1-1.5,0.7c-0.1,0.4,0,0.8,0.1,1.2
			c-0.2,0.2-0.3,0.4-0.5,0.6c-0.2,0.2-0.7,0.4-1,0.5c-0.2,0.1-0.4,0.1-0.6,0.2c-0.2,0-0.4,0.1-0.6,0.1c0.1-0.4,0.2-0.6,0.4-0.8
			c0.2-0.2,0.5-0.3,0.8-0.5c0.2-0.2,0.4-0.7,0.3-1.1c-0.2-0.8-1.2-1.1-1.8-0.7c-0.2,0.1-0.4,0.4-0.5,0.8c0,0.4,0.1,0.7,0.3,0.9
			c0.2,0.2,0.4,0.3,0.6,0.4c-0.2,0.4-0.3,0.9-0.5,1.3c-0.1,0.1-0.1,0.3-0.2,0.4c-0.2,0-0.3-0.1-0.5-0.1c-0.4-0.4-0.7-0.8-1.1-1.2
			c-0.1-0.1-0.3-0.2-0.4-0.4c0.1-0.1,0.2-0.2,0.3-0.3c0.2-0.4,0.2-1,0.1-1.3c-0.2-0.3-0.5-0.6-0.8-0.7c-0.4-0.1-1,0.1-1.2,0.4
			c-0.6,0.7-0.1,2,0.8,2.1c0.2,0,0.4,0,0.5,0c0.1,0,0.2,0.2,0.3,0.3c0.2,0.2,0.4,0.4,0.5,0.6c0.1,0.1,0.2,0.2,0.2,0.4
			c-0.2,0-0.3,0-0.5,0c-0.2,0-0.4,0-0.5,0c-0.1,0-0.2-0.1-0.3-0.2c-0.3-0.2-0.7-0.4-1.1-0.4c-0.3,0-0.5,0.2-0.6,0.4
			c0,0-0.1,0.1-0.1,0.1c-0.2,0.4-0.1,1.3,0.4,1.4c0.4,0.1,0.8,0,1.1-0.2c0.2-0.1,0.4-0.3,0.7-0.3c0.3-0.1,0.6-0.1,0.9-0.1
			c0.2,0,0.3,0,0.5,0c0.2,0,0.3,0,0.4,0c-0.2,0.3-0.4,0.5-0.7,0.7c-0.1,0.1-0.3,0.2-0.5,0.3c-0.1,0.1-0.4,0.2-0.5,0.2
			c-0.1,0-0.1-0.1-0.2-0.1c-0.5-0.2-1.1-0.1-1.4,0.2c-0.3,0.2-0.6,0.7-0.5,1.3c0.1,0.7,0.7,1.2,1.5,1.1c0.5,0,0.9-0.4,1.1-0.8
			c0.2-0.5,0.1-0.9-0.1-1.4c0.6-0.3,1.3-0.7,1.7-1.2c0.1-0.1,0.1-0.2,0.2-0.3c0.7,0.1,1.5,0.3,2,0.6c-0.1,0.2-0.2,0.4-0.3,0.6
			c-0.1,0.1-0.3,0.4-0.5,0.4c-0.1,0-0.2-0.1-0.3-0.1c-0.3-0.2-0.6-0.3-1-0.2c-0.1,0-0.2,0.1-0.3,0.1c-0.1,0-0.2,0.1-0.3,0.2
			c-0.2,0.2-0.4,0.6-0.3,1c0,0.9,1,1.2,1.8,0.9c0.3-0.1,0.6-0.3,0.7-0.6c0.1-0.3,0-0.6,0.1-0.9c0.1-0.4,0.5-0.7,0.8-0.9
			c0.1-0.1,0.3-0.2,0.4-0.2c0.1,0,0.2,0.1,0.3,0.1c0.3,0.2,0.6,0.4,0.9,0.5c-0.3,0.3-0.4,0.8-0.4,1.3c0,0.1,0,0.2,0,0.3
			c0,0.4-0.3,0.9-0.6,0.9c-0.1,0-0.3-0.1-0.4-0.1c-0.2,0-0.6-0.1-0.9-0.1c-0.7,0-1.4,0.2-2,0.3c-0.1,0-0.3-0.1-0.5-0.1
			c-0.2,0-0.3-0.1-0.4-0.1c-0.7-0.2-1.6-0.1-1.7,0.7c0,0.3,0.1,0.5,0.2,0.7c0.2,0.4,0.5,0.9,1,0.9c0.4,0,0.6-0.3,0.8-0.4
			c0.4-0.4,0.6-0.9,1.2-1.1c0.5-0.2,1.3-0.3,2-0.2c0.2,0,0.5,0.1,0.7,0.1c0.6,0.1,0.9-0.2,1.1-0.5c0-0.1,0.1-0.2,0.2-0.2
			c0.2,0.2,0.4,0.5,0.5,0.8c-0.2,0.4-0.4,0.9-0.4,1.4c0,0.5,0.5,0.9,0.8,1c0.5,0.1,0.9-0.1,1.1-0.3c0.2-0.2,0.4-0.6,0.4-0.9
			c0-0.4-0.2-0.6-0.4-0.8c-0.3-0.3-0.8-0.5-1.2-0.8c-0.4-0.3-0.7-0.7-0.9-1.1c-0.2-0.5,0.1-0.9,0.5-1c0.5,0.4,0.9,0.8,1.4,1.3
			c0.2,0.2,0.3,0.5,0.5,0.8c0.1,0.1,0.2,0.3,0.2,0.4c0.1,0.2,0.2,0.3,0.2,0.5c0,0.2,0,0.5,0,0.7c-0.1,1.5-0.1,2.8-0.2,4.2
			c0,0.4,0,0.7,0,1.1c0,0.4-0.1,0.9-0.1,1.3c0,0.4,0,0.8-0.1,1.1c0,0.1-0.1,0.2-0.1,0.3c0,0.3,0,0.6,0,1c-0.1,0.9-0.1,1.9-0.1,2.8
			c-0.1,1.1-0.1,2.3-0.1,3.4c0,0.1,0,0.3,0,0.5c-0.2-0.1-0.4-0.3-0.6-0.5c0.1,0,0-0.1,0-0.1c0-0.2,0-0.4,0-0.6c0-0.5-0.1-1-0.2-1.4
			c0-0.2-0.1-0.4-0.2-0.6c-0.2-0.6-0.4-1.2-0.7-1.8c-0.1-0.2-0.2-0.4-0.3-0.6c0.3,0.2,0.5,0.4,0.8,0.3c0.2-0.1,0.4-0.4,0.4-0.7
			c0.1-0.7-0.9-1-1.2-0.5c-0.1,0.2-0.1,0.7-0.5,0.7c-0.1,0-0.2-0.2-0.3-0.3c-0.2-0.3-0.4-0.5-0.6-0.7c-0.1-0.1-0.3-0.2-0.3-0.3
			c0.1-0.1,0.3-0.1,0.5-0.1c0.1,0.1,0.1,0.2,0.1,0.3c0.1,0.2,0.4,0.3,0.6,0.3c0.2,0,0.4-0.2,0.4-0.4c0.2-0.6-0.6-1.1-1-0.6
			c0,0.1,0,0.2-0.1,0.2c-0.1,0-0.2,0-0.2,0c-0.2,0-0.4,0.1-0.6,0.1c-0.1-0.1-0.3-0.2-0.4-0.3c-0.1-0.2-0.4-0.1-0.4-0.3
			c0-0.1,0.1-0.2,0.2-0.3c0.1,0,0.3,0.1,0.5,0.1c0.2,0,0.3,0,0.5,0.1c0.6,0,1-0.1,1.3-0.3c0.2,0.1,0.2,0.2,0.4,0.2
			c0.6,0.2,1-0.2,1.1-0.8c0-0.5-0.4-0.9-0.9-0.9c-0.5,0-0.8,0.5-0.7,1c-0.1,0.1-0.3,0.3-0.5,0.3c0,0,0,0,0,0c-0.3,0.1-0.8,0-1.1,0
			c-0.1,0-0.3,0-0.3-0.1c0.1-0.3,0.3-0.4,0.6-0.5c0.1,0,0.3,0,0.4-0.1c0.6-0.3,0.5-1.2-0.1-1.4c-0.5-0.2-1.1,0.2-1.1,0.7
			c0,0.4,0.2,0.5,0.3,0.7c-0.1,0.2-0.2,0.3-0.4,0.5c-0.1,0.1-0.3,0.5-0.4,0.5c-0.1,0-0.3-0.1-0.3-0.2C90,78.3,90,78.1,89.9,78
			c-0.1-0.3-0.3-0.6-0.4-0.9c0.1-0.1,0.2-0.1,0.3-0.2c0.3-0.3,0.3-0.9,0-1.2c-0.2-0.2-0.5-0.3-0.8-0.2c-0.3,0.1-0.6,0.5-0.6,0.9
			c0,0.5,0.4,0.8,0.8,0.8c0.1,0.3,0.3,0.6,0.3,1c-0.3-0.1-0.5-0.2-0.8-0.3c-0.2-0.2-0.6-0.7-1-0.7c-0.4,0-0.7,0.5-0.6,0.9
			c0.1,0.2,0.4,0.4,0.6,0.4c0.3,0,0.5-0.1,0.8-0.1c0.1,0,0.3,0,0.4,0.1c0.2,0.1,0.5,0.1,0.7,0.2c0.1,0,0.2,0.1,0.3,0.2
			c-0.3,0.3-0.8,0.3-1.3,0.4c-0.2-0.2-0.6-0.4-1.1-0.3c-0.2,0.1-0.5,0.4-0.6,0.7c-0.1,0.6,0.3,1,0.7,1.1c0.7,0.1,1.2-0.4,1.1-1.2
			c0.4-0.1,0.8-0.1,1.2-0.3c0.2-0.1,0.3-0.2,0.4-0.3c0.4,0.3,0.8,0.5,1.1,0.8c-0.1,0.1-0.2,0.2-0.3,0.3c-0.1,0.1-0.3,0.2-0.4,0.2
			c-0.1,0-0.2-0.2-0.2-0.2c-0.2-0.2-0.6-0.4-1-0.3c-0.4,0.1-0.6,0.7-0.4,1.1c0.1,0.3,0.7,0.6,1.2,0.4c0.3-0.1,0.3-0.4,0.4-0.7
			c0.2-0.3,0.6-0.5,1.1-0.6c0.2,0.2,0.4,0.4,0.5,0.6c0,0.1,0,0.1,0.1,0.2c0,0.1,0.1,0.1,0.1,0.2c0.1,0.2,0.2,0.4,0.3,0.6
			c0.2,0.4,0.3,1,0.4,1.5c0.1,0.6,0.1,1.1,0,1.7c0,0.2,0,0.4-0.1,0.5c-0.5-0.2-0.9-0.5-1.3-0.7c-0.1,0-0.2,0-0.2-0.1
			c-0.1,0-0.2-0.1-0.3-0.2c-0.3-0.2-0.6-0.4-0.9-0.5c-0.4-0.2-0.8-0.5-1.1-0.8c-0.4-0.3-0.8-0.5-1.1-0.8c-0.3-0.3-0.7-0.6-1-0.9
			c-0.6-0.6-1.3-1.3-1.8-2.1c-0.2-0.4-0.5-0.8-0.6-1.3c-0.2-0.5-0.3-1.1-0.2-1.7c0-0.3,0.1-0.6,0.1-0.8c0-0.1,0.1-0.2,0.1-0.3
			c0,0-0.1-0.1-0.2-0.2c-0.1-0.1-0.2-0.2-0.4-0.4c-0.1-0.1-0.1-0.1-0.2-0.2c-0.4,1-0.5,2.6-0.2,3.8c0.3,1,0.7,2,1.1,2.8
			c0.1,0.1,0.2,0.2,0.2,0.4c-0.3,0.1-0.7,0.1-1,0.1c-0.3,0-0.7,0-1-0.1c-0.4,0-0.8-0.1-1.1-0.2c-1.2-0.3-2.1-0.7-3-1.2
			c-0.2-0.1-0.5-0.2-0.5-0.4c0,0,0-0.1,0.1-0.2c0.2-0.4,0.5-0.5,1-0.4c0.5,0.1,0.8,0.3,1.1,0.5c0.4,0.3,0.7,0.8,1.1,1
			c0.2,0.1,0.4,0.2,0.6,0.1c0.4-0.1,0.8-0.5,0.9-0.9c0.1-0.2,0.1-0.5,0-0.8c-0.1-0.3-0.5-0.6-0.8-0.7c-0.1,0-0.1,0-0.2,0
			c0,0-0.1,0-0.1,0c-0.3,0-0.6,0.2-0.8,0.3c-0.3,0.1-0.4,0.3-0.6,0.5c-0.1-0.1-0.3-0.1-0.4-0.2c-0.1,0-0.3,0-0.4-0.2
			c0.1-0.2,0.2-0.5,0.3-0.7c0,0,0.1-0.2,0.1-0.2c0.2-0.2,0.5-0.3,0.8-0.4c0.3,0.1,0.5,0.1,0.8,0.1c0.1,0,0.2-0.1,0.3-0.1
			c0.1,0,0.2-0.1,0.3-0.1c0.3-0.1,0.5-0.4,0.6-0.7c0.1-0.7-0.4-1.3-0.8-1.4c-0.2-0.1-0.5-0.1-0.7,0c-0.6,0.2-0.9,1-0.8,1.9
			c-0.1,0.1-0.2,0.2-0.4,0.3c-0.2-0.3-0.3-0.5-0.4-0.8c-0.2-0.5-0.3-1.2-0.1-1.8c0.1-0.3,0.3-0.6,0.5-0.8c0.2-0.3,0.4-0.5,0.4-0.9
			c0.1-0.4-0.2-0.6-0.4-0.7c-0.4-0.2-1.2-0.5-1.6-0.2c-0.3,0.2-0.4,0.7-0.2,1.2c0.1,0.4,0.3,0.6,0.4,0.9c0.1,0.1,0.2,0.3,0.3,0.4
			c0.1,0.2,0.1,0.6,0.1,0.9c0.1,0.7,0.2,1.4,0.5,1.9c0.1,0.1,0.2,0.2,0.2,0.3c0,0.3-0.3,0.6-0.6,0.7c-0.2,0.1-0.5,0.1-0.7,0.2
			c-0.2,0.1-0.4,0.2-0.5,0.3c-0.1,0.1-0.2,0.3-0.3,0.4c-0.2-0.1-0.3-0.2-0.5-0.4c-0.1-0.1-0.4-0.3-0.5-0.5c0-0.1,0.1-0.3,0.1-0.5
			c0.1-0.5,0.4-0.8,0.7-1c0.1-0.1,0.2-0.1,0.3-0.1c0.3-0.1,0.5-0.2,0.7-0.5c0.1-0.2,0.1-0.5,0.1-0.7c0-0.4-0.2-0.8-0.5-0.9
			c-0.1-0.1-0.4-0.2-0.5-0.3c-0.5,0-0.9,0.2-1.1,0.4c-0.2,0.2-0.3,0.7-0.2,1.1c0,0.2,0.2,0.5,0.3,0.6c0.1,0.1,0.4,0.3,0.4,0.4
			c0,0.1-0.1,0.3-0.1,0.3c0,0.1-0.1,0.2-0.2,0.3c-0.1,0.1-0.4,0.5-0.5,0.4c-0.1,0-0.2-0.3-0.3-0.4c-0.3-0.4-0.6-0.9-0.8-1.3
			c0.1-0.1,0.3-0.3,0.4-0.4c0.1-0.2,0.3-0.3,0.4-0.5c0.1-0.2,0.2-0.4,0.3-0.6c0.1-0.2,0.2-0.4,0.3-0.6c0.6,0,1.1-0.4,1.3-0.8
			c0.2-0.4,0.1-0.9-0.1-1.2c-0.3-0.4-0.9-0.8-1.5-0.5c-0.7,0.2-1.1,1.1-0.7,1.9c0.1,0.1,0.2,0.2,0.3,0.4c0,0,0,0.2,0,0.3
			c-0.1,0.5-0.3,1.1-0.5,1.5c0,0.1-0.1,0.2-0.2,0.2c-0.2-0.4-0.3-0.9-0.4-1.4c0-0.2-0.1-0.4-0.1-0.6c0-0.1,0.1-0.2,0.1-0.3
			c0.1-0.4,0.2-1-0.1-1.4c-0.1-0.3-0.5-0.4-0.8-0.3c-0.5,0.1-1.1,0.5-0.8,1.2c0.1,0.2,0.2,0.4,0.4,0.6c0.1,0.1,0.1,0.2,0.2,0.2
			c0.1,0.1,0.2,0.2,0.3,0.2c0,0.1,0.1,0.2,0.1,0.3c0,0.1,0.1,0.2,0.1,0.3c0.1,0.2,0.2,0.4,0.2,0.6c-0.3,0-0.7-0.2-0.9-0.3
			c-0.1-0.1-0.4-0.2-0.5-0.3c0-0.1,0-0.3-0.1-0.4c-0.2-0.5-0.8-0.9-1.5-0.7c-0.4,0.1-0.7,0.4-0.8,0.8c-0.2,0.5,0.1,1,0.4,1.2
			c0.1,0,0.1,0.1,0.2,0.1c0.4,0.3,1.1,0.2,1.5-0.1c0.1-0.1,0.2-0.3,0.4-0.5c0.4,0.2,0.9,0.5,1.4,0.7c0.2,0.1,0.4,0.1,0.5,0.2
			c0,0,0.1,0.2,0.1,0.2c0,0.1,0.1,0.2,0.1,0.3c-0.5,0.4-1,0.7-1.5,1.1c-0.1-0.1-0.2-0.2-0.3-0.3c-0.4-0.3-0.8-0.3-1.1-0.1
			c-0.3,0.1-0.6,0.4-0.7,0.8c-0.2,0.8,0.4,1.4,1.1,1.4c0.3,0,0.6-0.2,0.8-0.3c0.1-0.1,0.2-0.2,0.2-0.4c0.1-0.2,0.1-0.4,0.2-0.7
			c0-0.2,0.3-0.3,0.4-0.4c0.1-0.1,0.3-0.2,0.5-0.2c0,0.3,0.1,0.7,0.1,1.1c0,0.4,0,0.9-0.1,1.2c-0.1,0.2-0.4,0.5-0.7,0.6
			c-0.1,0-0.1,0-0.2,0c-0.5,0-0.9,0.4-1.1,0.7c-0.3,0.7,0.3,1.5,0.8,1.6c0.8,0.2,1.5-0.4,1.5-1.1c0-0.4-0.2-0.6-0.4-0.9
			c0.6-0.7,0.6-2.2,0.4-3.3c0.1-0.1,0.3-0.1,0.4-0.2c0.2,0.3,0.4,0.6,0.6,0.9c0.1,0.1,0.2,0.2,0.2,0.3c0,0.1-0.1,0.2-0.1,0.3
			c-0.1,0.3-0.2,0.6-0.2,0.9c-0.3,0.2-0.6,0.4-0.6,0.8c0,0.6,0.5,0.8,0.9,0.8c0.4,0,0.8-0.4,0.8-0.8c0-0.3-0.2-0.6-0.5-0.8
			c-0.1-0.1-0.2,0-0.3-0.1c0-0.3,0.1-0.6,0.3-0.7c0.2,0.2,0.3,0.4,0.5,0.6c0.2,0.2,0.3,0.4,0.5,0.5c0.4,0.3,0.8,0.6,1.1,1
			c-0.5,0.4-1.2,0.3-1.5,0.8c-0.1,0.2-0.1,0.4-0.1,0.6c0,0.5,0.4,0.9,0.8,1c0.3,0.1,0.7,0,0.9-0.2c0.2-0.1,0.4-0.3,0.4-0.6
			c0-0.3-0.1-0.6-0.2-0.9c-0.1-0.2-0.2-0.3-0.1-0.5c1.2,0.8,2.4,1.5,3.8,1.9c0.7,0.2,1.5,0.5,2.3,0.6c0.6,0.1,1.3,0.1,2,0.1
			c0.2,0,0.4,0,0.6,0c0.3,0,0.5,0.2,0.7,0.4c0.5,0.4,1.1,0.8,1.6,1.1c0.8,0.5,1.5,1,2.2,1.5c0.7,0.5,1.3,1.1,1.9,1.8
			c0.4,0.5,0.9,1,1.3,1.5c0.1,0.1,0.4,0.4,0.4,0.5c0,0.1,0,0.3,0,0.4c0,0.8-0.1,1.5-0.1,2.1c0,0.3,0,0.6,0,0.9
			c-0.1,0.7-0.1,1.5-0.1,2.3c0,0.5,0,1,0,1.4c-0.1,1.4-0.1,2.8-0.2,4.2c0,0.9-0.1,1.9-0.1,2.8c-0.1,0.7-0.1,1.4-0.1,2.1
			c0,0.3,0,0.5-0.1,0.7c-0.4-0.2-0.9-0.4-1.3-0.5c-1.2-0.4-2.4-0.9-3.7-1.2c-0.2,0-0.4-0.1-0.5-0.2c-0.1-0.6-0.2-1.3-0.3-1.8
			c0-0.2-0.2-0.4,0-0.5c0.3,0.1,0.5,0.2,0.7,0.4c0.2,0.1,0.4,0.3,0.6,0.5c0.2,0.2,0.3,0.4,0.5,0.6c0.1,0.2,0.2,0.5,0.4,0.7
			c0,0.1,0.1,0.1,0.2,0.1c0.2,0.2,0.4,0.5,0.7,0.6c0.1,0,0.2,0.1,0.3,0.1c0.7,0.2,1.1-0.2,1.5-0.5c0.2-0.2,0.4-0.4,0.5-0.8
			c0-0.3,0-0.5-0.1-0.8c-0.2-0.2-0.3-0.5-0.6-0.6c-0.2-0.1-0.4-0.2-0.6-0.3c-0.3,0-0.8,0.1-1,0.1c-0.2,0.1-0.4,0.1-0.6,0.2
			c-0.1,0.1-0.3,0.2-0.4,0.2c-0.1,0-0.2-0.1-0.3-0.2c-0.3-0.2-0.6-0.3-0.8-0.6c0.1-0.2,0.3-0.4,0.5-0.6c0.1-0.1,0.2-0.2,0.3-0.3
			c0.1-0.1,0.2-0.2,0.4-0.2c0.1,0,0.3,0,0.5,0c0.1,0,0.3-0.1,0.4-0.1c0.1,0,0.2,0.1,0.2,0.1c0.7,0.3,1.8,0.2,2.2-0.2
			c0.1,0,0.1-0.2,0.1-0.2c0,0,0.1,0,0.1-0.1c0.1-0.1,0.1-0.2,0.2-0.3c0-0.1,0-0.1,0-0.2s0-0.1,0-0.2c0-0.2,0-0.4-0.1-0.6
			c0-0.1-0.1-0.2-0.2-0.3c-0.1-0.2-0.2-0.3-0.3-0.4c-0.1-0.1-0.3-0.2-0.5-0.3c-0.1-0.1-0.3-0.1-0.4-0.1c-0.4-0.1-0.8,0.1-1,0.2
			c-0.1,0.1-0.3,0.2-0.4,0.3c-0.1,0.1-0.1,0.2-0.2,0.3c-0.1,0.1-0.2,0.3-0.2,0.4c-0.1,0.1-0.1,0.3-0.2,0.5c0,0.2-0.1,0.4-0.2,0.5
			c-0.1,0.1-0.3,0.1-0.4,0.1c-0.1-0.1-0.1-0.3-0.1-0.4c0-0.4,0-0.7,0-1.1c0-0.6,0-1.4,0.2-1.9c0.1-0.2,0.1-0.3,0.3-0.4
			c0.1,0,0.1-0.1,0.2-0.1c0.1-0.1,0.3-0.1,0.4-0.2c0.1-0.1,0.3-0.3,0.4-0.4c0.1-0.1,0.2-0.3,0.3-0.4c0.1-0.1,0.1-0.2,0.1-0.4
			c0-0.2,0-0.4,0-0.4c-0.1-0.3-0.3-0.4-0.5-0.6c-0.1-0.1-0.1-0.1-0.2-0.1c-0.1-0.1-0.3-0.2-0.4-0.3c-0.1-0.1-0.3-0.1-0.5-0.1
			c-0.2,0-0.3-0.1-0.4-0.1c-0.3,0-0.6,0.1-0.8,0.2c-0.1,0.1-0.3,0.4-0.3,0.7c0,0.3,0,0.6,0,0.9c0,0.1,0,0.3,0.1,0.4
			c0.1,0.3,0.3,0.6,0.3,0.9c0.1,0.3,0,0.7,0,1.1c-0.1,0.8-0.1,1.5-0.1,2.3c0,0.1,0,0.2,0.1,0.3c0,0.1,0.1,0.2,0.1,0.4
			c0,0.2-0.2,0.6-0.5,0.7c-0.2,0.1-0.4,0.2-0.7,0.2c-0.3,0-0.3-0.4-0.3-0.8c-0.1-0.5-0.3-0.9-0.4-1.3c-0.1-0.2-0.2-0.4-0.2-0.6
			c-0.1-0.4-0.3-0.8-0.4-1.1c0-0.1-0.1-0.1-0.1-0.1c-0.1-0.2-0.2-0.4-0.3-0.6c0-0.1-0.1-0.2-0.2-0.3c0-0.1-0.1-0.2-0.1-0.3
			c0-0.1-0.1-0.1-0.1-0.2c0-0.1-0.1-0.2-0.1-0.2c-0.1-0.2-0.3-0.5-0.4-0.7c0-0.1-0.1-0.2-0.1-0.2c-0.1-0.1-0.3-0.2-0.3-0.4
			c0.1-0.1,0.2-0.2,0.4-0.2c0.2,0,0.3,0.2,0.4,0.3c0.1,0,0.1,0.1,0.2,0.1c0.3,0.1,0.8,0.3,1.2,0.1c0.2-0.1,0.4-0.3,0.5-0.5
			c0.1-0.2,0.2-0.5,0.2-0.8c0.1-0.5-0.2-1-0.6-1.2c-0.4-0.2-0.8-0.2-1.4-0.1c-0.1,0.1-0.2,0.3-0.3,0.4c-0.1,0.1-0.1,0.1-0.1,0.2
			c0,0.1-0.1,0.2-0.1,0.3c0,0.1-0.1,0.3-0.1,0.4c0,0.1-0.1,0.1-0.1,0.2c-0.1,0.1-0.2,0.6-0.4,0.6c-0.1,0-0.2-0.2-0.2-0.2
			c-0.1-0.2-0.2-0.4-0.4-0.5c-0.2-0.1-0.3-0.3-0.4-0.5c0-0.1-0.1-0.2-0.2-0.3c0,0-0.1,0-0.1-0.1c0,0-0.1-0.1-0.1-0.1
			c-0.1-0.1-0.2-0.1-0.2-0.2c0-0.1,0.3-0.2,0.4-0.2c0.1,0,0.2,0.2,0.4,0.2c0.2,0.1,0.6,0.2,0.9,0.1c0.2-0.1,0.3-0.3,0.4-0.5
			c0.1-0.3,0.2-0.7,0-1c-0.1-0.2-0.2-0.3-0.5-0.4c-0.2-0.1-0.3-0.2-0.6-0.1c-0.2,0-0.5,0.2-0.6,0.3c-0.1,0.1-0.1,0.4-0.2,0.6
			c0,0.1-0.1,0.1-0.1,0.2c-0.1,0.2-0.2,0.6-0.4,0.6c-0.1,0-0.2-0.1-0.3-0.2c-0.1-0.1-0.2-0.2-0.2-0.2c-0.2-0.1-0.3-0.3-0.5-0.4
			c-0.2-0.1-0.3-0.2-0.5-0.4c-0.1-0.1-0.3-0.2-0.4-0.3c0,0-0.1,0-0.2,0c-0.1,0-0.1-0.1-0.2-0.2c-0.1,0-0.2-0.1-0.2-0.1
			c-0.2-0.1-0.4-0.2-0.4-0.3c0-0.1,0.1-0.5,0.2-0.6c0.1-0.1,0.3,0,0.4,0c0.1,0,0.2,0,0.3,0c0.6,0.1,1.1,0.1,1.6,0
			c0.3,0,0.6-0.1,0.9-0.1c0.2-0.1,0.6-0.1,0.7-0.2c0.1-0.1,0.2-0.3,0.4-0.2c0.1,0,0.2,0.2,0.3,0.2c0.1,0.1,0.2,0.1,0.2,0.1
			c0.4,0,0.7,0.1,1,0c0.2-0.1,0.3-0.2,0.4-0.3c0.2-0.2,0.3-0.4,0.4-0.7c0-0.1,0.1-0.2,0.1-0.2c0.1-0.5-0.1-0.8-0.2-1.1
			c-0.1-0.2-0.3-0.4-0.5-0.5c-0.4-0.2-0.8-0.4-1.3-0.2c-0.1,0-0.2,0.1-0.3,0.2c-0.2,0.1-0.3,0.2-0.4,0.3c-0.2,0.4-0.3,0.8-0.2,1.4
			c0,0.1-0.1,0.1-0.2,0.1c-0.2,0.1-0.4,0.3-0.6,0.5C83.5,90,83.2,90,82.9,90c-0.6,0-1,0-1.6,0c-0.2,0-0.5,0-0.6-0.1
			c0-0.1,0.1-0.2,0.2-0.3c0.1-0.1,0.1-0.3,0.2-0.3c0.2-0.2,0.4-0.3,0.7-0.3c0.6-0.1,1-0.3,1.3-0.8c0.1-0.2,0.2-0.5,0.2-0.7
			c0-0.3-0.2-0.7-0.3-0.9c-0.1-0.2-0.2-0.2-0.5-0.4c-0.1,0-0.2-0.1-0.3-0.1c-0.4-0.1-0.7,0-1,0.1c-0.4,0.2-0.5,0.3-0.7,0.7
			c-0.2,0.5-0.1,1.1,0.2,1.6c0.1,0.1,0.4,0.3,0.4,0.4c0,0.1-0.2,0.3-0.3,0.3c0,0.1-0.1,0.1-0.1,0.2c-0.1,0.2-0.3,0.4-0.4,0.6
			c-0.1,0.1-0.2,0.3-0.3,0.4c0,0.1-0.1,0.1-0.2,0.2c-0.1,0.1-0.1,0.2-0.2,0.2c-0.1,0-0.1-0.1-0.3-0.2c-0.1-0.1-0.2-0.1-0.3-0.1
			c-0.1-0.1-0.2-0.4-0.2-0.5c-0.1-0.3-0.2-0.5-0.3-0.7c-0.2-0.3-0.3-0.6-0.4-0.8c-0.1-0.1-0.2-0.2-0.2-0.3c0.1-0.1,0.2-0.1,0.2-0.2
			c0.1-0.1,0.2-0.1,0.2-0.2c0.1-0.1,0.3-0.2,0.4-0.4c0.1-0.3,0.2-0.8,0.1-1.1c0-0.2-0.1-0.3-0.1-0.4c-0.1-0.3-0.3-0.5-0.5-0.6
			C78,85.1,77.8,85,77.7,85c-0.3-0.1-0.8-0.1-1.1,0.1c-0.1,0.1-0.3,0.3-0.4,0.4c-0.2,0.3-0.4,0.7-0.4,1.3c0,0.3,0.2,0.7,0.4,0.9
			c0.1,0.1,0.3,0.2,0.4,0.3c0.2,0.1,0.4,0.2,0.7,0.2c0.1,0.1,0.2,0.3,0.3,0.4c0.2,0.3,0.4,0.6,0.5,1c0,0.1,0.2,0.5,0,0.6
			c-0.1,0-0.2-0.1-0.3-0.1c-0.3-0.1-0.4-0.2-0.6-0.2c-0.1,0-0.3-0.1-0.3-0.1c-0.1-0.1-0.3-0.4-0.4-0.5c-0.2-0.1-0.4-0.3-0.6-0.4
			c-0.2-0.1-0.5-0.3-0.8-0.3c-0.3,0-0.5,0.3-0.7,0.5c-0.2,0.3-0.4,0.7-0.3,1.1c0,0.1,0,0.3,0.1,0.4c0.1,0.1,0.4,0.3,0.4,0.4
			c0.5,0.2,1.3,0.1,1.8,0c0.1,0,0.2-0.1,0.2-0.1c0.2,0,0.4,0,0.6,0.1c0.2,0,0.4,0.1,0.6,0.1c0.2,0.1,0.2,0.1,0.5,0.2
			c0.1,0.1,0.5,0.1,0.5,0.2c0,0.1-0.2,0.2-0.3,0.3c-0.1,0.1-0.3,0.2-0.4,0.2c-0.1,0-0.2,0-0.2,0c-0.2,0-0.4,0.1-0.5,0.1
			c-0.1,0-0.2,0-0.3,0.1c-0.1,0-0.4,0.1-0.6,0.1c-0.1,0-0.3-0.3-0.4-0.3c-0.3-0.1-0.6-0.2-1-0.2c-0.3,0-0.6,0.1-0.9,0.2
			c-0.2,0.1-0.4,0.3-0.5,0.5c-0.1,0.1-0.2,0.3-0.2,0.5c-0.1,0.5,0.1,1,0.3,1.3c0.2,0.3,0.3,0.3,0.6,0.5c0.2,0.1,0.3,0.1,0.6,0.2
			c0.1,0,0.2,0.1,0.3,0.1c0.2,0,0.4-0.1,0.6-0.2c0.4-0.1,0.6-0.4,0.8-0.6c0.1-0.2,0.2-0.3,0.2-0.6c0-0.1,0-0.1,0-0.2
			c0-0.2-0.1-0.4-0.1-0.7c0.2-0.1,0.5-0.1,0.7-0.2c0.1,0,0.1,0,0.2,0c0.2,0,0.3-0.1,0.5-0.2c0.1,0,0.2,0,0.2-0.1
			c0.3-0.1,0.5-0.3,0.8-0.4c0.1-0.1,0.3-0.2,0.4-0.2c0.1,0,0.2,0.1,0.3,0.2c0.1,0.1,0.3,0.1,0.4,0.1c0.1,0,0.1,0.1,0.2,0.1
			c0.1,0,0.1,0.1,0.2,0.1c0.1,0.1,0.3,0.2,0.4,0.3c0,0,0.1,0.1,0.2,0.1c0.1,0,0.2,0.1,0.2,0.1c0,0,0.1,0.1,0.1,0.2
			c0.1,0.1,0.2,0.1,0.2,0.1c0,0.1-0.2,0.2-0.3,0.3c-0.1,0.1-0.2,0.1-0.3,0.2c-0.1,0.1-0.3,0.3-0.5,0.3c-0.3,0.1-0.4-0.1-0.5-0.3
			c-0.2-0.2-0.3-0.3-0.7-0.4c-0.2-0.1-0.3-0.1-0.5-0.1c-0.3,0-0.5,0-0.8,0.1c-0.3,0.1-0.4,0.1-0.6,0.4c-0.1,0.2-0.2,0.3-0.3,0.6
			c0,0.1-0.1,0.2-0.1,0.3c0,0.3,0.1,0.6,0.2,0.8c0.2,0.3,0.5,0.5,0.8,0.6c0.1,0,0.2,0.1,0.3,0.1c0.1,0,0.2,0,0.2,0
			c0.1,0,0.2,0,0.3,0c0.5,0,0.8-0.1,1-0.4c0.1-0.1,0.1-0.2,0.2-0.3c0.1-0.2,0.1-0.4,0.2-0.7c0-0.1,0.1-0.1,0.1-0.2
			c0.2-0.3,0.6-0.5,1-0.7c0.1-0.1,0.3-0.1,0.4-0.2c0.1,0,0.1,0,0.2,0c0.1,0,0.1-0.1,0.2-0.1c0.1,0,0.2,0.1,0.3,0.2
			c0.1,0.1,0.2,0.2,0.2,0.3c0.1,0.1,0.2,0.2,0.3,0.3c0.1,0.1,0.2,0.2,0.3,0.3c0.1,0.1,0.3,0.1,0.3,0.3c-0.1,0.1-0.2,0.1-0.3,0.1
			c-0.2,0.1-0.4,0.3-0.5,0.5c-0.1,0.2-0.3,0.4-0.5,0.6c0,0.1-0.1,0.2-0.2,0.3c0,0.1,0,0.3,0,0.4c0,0.1-0.2,0.4-0.3,0.5
			c0,0-0.1,0-0.2,0.1c-0.1,0-0.1,0.1-0.2,0.1c-0.3,0.1-0.5-0.1-0.7-0.2c-0.3-0.1-0.6-0.2-0.8-0.2c-0.2-0.1-0.4-0.1-0.5-0.1
			c-0.1,0-0.2,0-0.3,0c-0.1,0-0.1-0.1-0.2-0.1c-0.1,0-0.1,0-0.2,0c-0.1,0-0.1-0.1-0.2-0.1c-0.1,0-0.2,0-0.3,0c-0.1,0-0.1,0-0.2,0
			c-0.2,0-0.3,0-0.5-0.1c-0.2-0.1-0.3-0.2-0.4-0.3c-0.2-0.1-0.3-0.2-0.5-0.2c-0.3-0.1-0.5-0.2-0.8-0.3c-0.1,0-0.2-0.1-0.3-0.1
			c-0.6-0.1-1.1,0.1-1.3,0.5c-0.3,0.5,0,1.1,0.1,1.5c0.1,0.3,0.2,0.5,0.3,0.7c0.1,0.1,0.3,0.2,0.4,0.3c0.4,0.1,0.8,0,1-0.2
			c0.3-0.2,0.6-0.4,0.8-0.7c0.2-0.2,0.3-0.3,0.7-0.4c0.2,0,0.5,0,0.8,0c0.4,0.1,0.8,0.1,1.1,0.2c0.2,0.1,0.5,0.1,0.7,0.2
			c0.1,0,0.2,0.1,0.3,0.1c0.2,0.1,0.3,0.1,0.4,0.2c0,0.1-0.2,0.4-0.3,0.4c-0.1,0-0.3,0-0.4,0c-0.3,0-0.7,0.1-1,0.2
			c-0.1,0-0.2,0-0.3,0.1c-0.3,0.1-0.5,0.5-0.6,0.7c-0.1,0.2-0.1,0.5-0.1,0.8c0,0.2,0.1,0.3,0.1,0.5c0.1,0.2,0.3,0.5,0.5,0.6
			c0.2,0.1,0.4,0.1,0.6,0.1c0.2,0,0.4,0.1,0.6,0c0.1,0,0.3,0,0.4-0.1c0.3-0.1,0.4-0.3,0.6-0.5c0.1-0.2,0.2-0.3,0.2-0.5
			c0-0.1,0-0.1,0-0.2c0-0.1,0.1-0.2,0.1-0.2c0-0.1,0-0.2,0-0.4c0-0.2-0.1-0.3-0.1-0.5c0-0.1,0.1-0.3,0.1-0.4
			c0.1-0.3,0.2-0.5,0.4-0.6c0.3-0.3,0.7-0.5,1.2-0.6c0.1,0.2,0.2,0.6,0.3,0.8c0,0.1,0.1,0.2,0.1,0.3c0,0.1-0.2,0.2-0.3,0.3
			c-0.1,0.1-0.1,0.2-0.2,0.3c-0.1,0.1-0.1,0.2-0.2,0.3c-0.1,0.1-0.1,0.2-0.1,0.4c-0.1,0.1-0.2,0.2-0.2,0.3c0,0.1,0,0.2,0,0.3
			c0,0.3,0,0.4,0.1,0.6c0.1,0.3,0.2,0.4,0.5,0.6c0.2,0.1,0.3,0.3,0.5,0.3c0.4,0.1,0.8,0,1-0.2c0.2-0.1,0.3-0.3,0.5-0.4
			c0-0.1,0.2-0.2,0.2-0.3c0-0.1,0.1-0.2,0.1-0.4c0.1-0.5-0.1-0.8-0.3-1.1c-0.1-0.2-0.3-0.4-0.5-0.5c-0.2-0.2-0.5-0.4-0.8-0.7
			c-0.2-0.2-0.3-0.5-0.4-0.8c-0.1-0.3-0.3-0.6-0.2-1c0-0.1,0.1-0.4,0.2-0.5c0.1-0.1,0.2-0.1,0.3-0.2c0.2-0.1,0.3-0.1,0.5-0.2
			c0.1,0,0.2-0.1,0.3-0.1c0.1,0,0.1,0.1,0.2,0.2c0.1,0.1,0.2,0.2,0.2,0.2c0.1,0.1,0.2,0.3,0.2,0.4c0.1,0.2,0.2,0.3,0.2,0.5
			c0.1,0.2,0.2,0.3,0.2,0.5c0.1,0.2,0.2,0.3,0.2,0.5c0.2,0.5,0.3,1.1,0.4,1.7c0,0.2,0.1,0.4,0.1,0.6c0,0.6,0.1,1.2,0.1,1.8
			c0,0.4,0,0.8-0.1,1.2c0,0.1-0.1,0.2-0.1,0.3c0,0.1,0,0.2,0,0.2c0,0.1-0.1,0.1-0.1,0.2c0,0.1,0,0.1,0,0.2c0,0.1,0,0.1,0,0.2
			c0,0.1,0,0.3-0.1,0.4c-0.3,0-0.5-0.1-0.8-0.1c-0.2,0-0.4-0.1-0.6-0.1c-0.2,0-0.4,0-0.6,0c-0.1,0-0.2,0-0.4-0.1
			c-0.5-0.1-0.9-0.2-1.4-0.2c-0.2,0-0.5-0.1-0.7-0.2c-0.5-0.1-0.9-0.2-1.3-0.3c-0.4-0.1-0.8-0.4-1.2-0.5c-0.3-0.2-0.7-0.3-1.1-0.5
			c-0.4-0.2-0.7-0.3-1.1-0.5c-0.4-0.2-0.9-0.5-1.2-0.8c-0.1-0.1-0.2-0.1-0.2-0.2c-0.1-0.1-0.2-0.2-0.3-0.3c-0.1-0.1-0.2-0.1-0.3-0.2
			c-0.1-0.1-0.1-0.1-0.2-0.1c-0.6-0.5-1-1.1-1.5-1.7c-0.8-1.1-1.4-2.6-1.8-4.2c0-0.1,0-0.2,0-0.3c0-0.1-0.2-0.1-0.2-0.2
			c0,0,0-0.1,0-0.2c-0.1-0.3-0.2-0.7-0.3-1c0.1-0.1,0.2-0.2,0.2-0.4c0.2-0.2,0.3-0.5,0.4-0.8c0.1-0.3,0.2-0.6,0.3-0.9
			c-0.1,0-0.2,0.1-0.2,0.2c-0.1,0.1-0.1,0.1-0.2,0.2c-0.3,0.2-0.7,0.4-1.2,0.5C69.2,92,68.6,92.1,68,92c-0.1,0-0.3-0.1-0.4-0.1
			c0,0.2,0.1,0.3,0.2,0.4c0.1,0.1,0.2,0.2,0.3,0.3c0.3,0.3,0.5,0.5,1,0.6c0.1,0,0.2,0,0.3,0.1c-0.1,0.1-0.4,0-0.5,0.2
			c0,0.2,0.2,0.2,0.4,0.2c0,0.1,0,0.1,0.1,0.2c0.3,0.4,0.5,0.9,0.8,1.3c0,0.2,0.1,0.5,0,0.6c-0.2,0-0.3-0.1-0.5-0.2
			c-0.4-0.2-0.8-0.3-1.2-0.5c-0.3-0.1-0.5-0.2-0.8-0.3c-0.5-0.1-0.9-0.3-1.4-0.3c-0.1,0-0.2,0-0.3-0.1c0-0.1,0.2-0.1,0.3-0.2
			c0.1-0.1,0.2-0.1,0.3-0.2c0.2-0.1,0.4-0.3,0.5-0.5c0.3-0.6-0.3-1.3-0.7-1.5c-0.4-0.1-0.8,0-1,0.1c-0.2,0.2-0.4,0.4-0.4,0.7
			c0,0.6,0.6,0.9,0.7,1.5c-0.1,0-0.2,0-0.3,0c-0.4,0-0.8,0.1-1.2,0.1c-0.2,0-0.5,0.1-0.7,0.1c-0.2,0.1-0.5,0.1-0.7,0.1
			c0-0.2,0-0.3,0.1-0.4c0-0.1,0.1-0.3,0.2-0.3c0.1,0,0.2,0,0.3,0.1c0.1,0,0.2,0.1,0.3,0.1c0.1,0,0.3-0.1,0.4-0.1
			c0.2-0.1,0.4-0.5,0.4-0.8c0-0.4-0.3-0.7-0.6-0.8c-0.6-0.1-1.1,0.3-1.1,0.8c0,0.2,0.1,0.3,0.2,0.5c-0.2,0.3-0.4,0.7-0.5,1.1
			c-0.2,0.1-0.4,0.2-0.6,0.2c-0.1,0-0.2,0.1-0.3,0.1c-0.1,0-0.2,0.1-0.3,0.1c0-0.1,0.1-0.2,0.2-0.3c0.4-0.5,0.7-1.1,1-1.7
			c0.1-0.3,0.2-0.5,0.2-0.8c0-0.1,0-0.2,0-0.3c0.6-0.1,1.1-0.6,1-1.2c0-0.4-0.3-0.8-0.6-1c-0.2-0.1-0.4-0.2-0.7-0.2
			c-0.2,0-0.4,0.1-0.6,0.1c-0.1,0.2-0.3,0.2-0.4,0.3c0,0,0,0.1-0.1,0.2c0,0.1-0.1,0.1-0.1,0.1c-0.2,0.4-0.1,0.8,0.1,1.1
			c0.1,0.2,0.3,0.2,0.4,0.4c0.2,0.2,0.2,0.5,0.2,0.8c0,0.2-0.1,0.4-0.3,0.5c-0.2,0.4-0.4,0.6-0.7,0.9c-0.1,0.1-0.3,0.3-0.4,0.4
			c-0.2-0.3-0.3-0.7-0.3-1c0-0.1,0.1-0.1,0.1-0.2c0.2-0.3,0.3-0.8,0.1-1.2c-0.1-0.2-0.3-0.4-0.5-0.5c-0.8-0.4-1.6,0.3-1.7,1
			c0,0.4,0.2,0.8,0.4,1c0.2,0.2,0.5,0.3,0.8,0.3c0.1,0,0.2-0.1,0.3,0c0.1,0,0.1,0.3,0.1,0.4c0.1,0.2,0.1,0.3,0.2,0.4
			c0.1,0.3,0.2,0.6,0.2,0.9c-0.1,0.1-0.2,0.1-0.2,0.1c-0.1,0-0.2,0.1-0.3,0.1c-0.1,0-0.3-0.1-0.5-0.1c-0.4-0.1-0.7-0.2-1-0.2
			c-0.2,0-0.4,0-0.5-0.1c0.1-0.5-0.1-0.9-0.4-1.2c0,0-0.1-0.1-0.1-0.1c0,0-0.1-0.1-0.2-0.1c-0.3-0.2-0.7-0.2-1-0.1
			c-0.2,0-0.3,0.1-0.4,0.2c-0.3,0.2-0.5,0.5-0.4,1c0.1,0.8,1.1,1.4,1.9,1c0.2-0.1,0.3-0.3,0.4-0.3c0,0,0.1,0,0.2,0
			c0.2,0,0.4,0.1,0.6,0.1c0.1,0,0.6,0.1,0.6,0.3c0,0.1-0.1,0.1-0.2,0.2c-0.3,0.2-0.5,0.4-0.8,0.5c-0.3,0-0.8,0.1-1.1,0.2
			c-0.1,0.1-0.3,0.1-0.4,0.2c0,0-0.1,0.1-0.1,0.2c0,0.1-0.1,0.1-0.1,0.1c-0.2,0.5,0.1,1,0.4,1.2c0.1,0.1,0.2,0.1,0.3,0.1
			c0.2,0,0.3,0,0.4,0c0.2-0.1,0.2-0.1,0.4-0.3c0.1-0.1,0.2-0.1,0.2-0.2c0.2-0.2,0.3-0.4,0.4-0.7c0-0.1,0-0.2,0.1-0.3
			c0.1-0.1,0.2-0.2,0.4-0.4c0.4-0.3,0.7-0.5,1.1-0.8c0.1-0.1,0.1-0.1,0.2-0.1c0.1,0.2,0,0.4,0,0.5c-0.1,0.4-0.2,0.7-0.4,1
			c-0.1,0.1-0.1,0.4-0.2,0.4c-0.1,0.1-0.2,0-0.3,0.1c-0.1,0-0.1,0.1-0.2,0.1c-0.2,0.2-0.4,0.4-0.5,0.6c-0.4,0.7,0,1.5,0.5,1.8
			c0.1,0.1,0.3,0.1,0.4,0.1c0.4,0.1,0.7-0.1,1-0.3c0.2-0.2,0.5-0.5,0.6-0.9c0.1-0.4-0.1-0.8-0.2-0.9c-0.1-0.1-0.3-0.3-0.4-0.4
			c0-0.1,0-0.2,0.1-0.3c0-0.1,0-0.2,0.1-0.3c0.1-0.6,0.2-1.2,0.1-1.8c0.2-0.2,0.4-0.2,0.7-0.3c0.2-0.1,0.5-0.2,0.7-0.3
			c0.2-0.1,0.3-0.1,0.5-0.1c0.1,0.1,0.1,0.4,0.1,0.7c0,0.3,0,0.5-0.2,0.6c-0.6,0-1.1,0.2-1.3,0.6c-0.1,0.2-0.3,0.4-0.3,0.6
			c0,0.3,0.2,0.6,0.3,0.7c0.2,0.3,0.5,0.5,1,0.4c0.3,0,0.5-0.2,0.8-0.4c0.1-0.1,0.2-0.2,0.3-0.3c0.1-0.1,0.2-0.3,0.2-0.4
			c0-0.3-0.1-0.5-0.2-0.8c-0.1-0.2-0.2-0.3-0.3-0.4c-0.1-0.1-0.1-0.4,0-0.6c0-0.4,0.1-0.7,0.4-1c0.2,0,0.4,0,0.6-0.1
			c0.2,0,0.5,0,0.6,0c0,0.4,0.1,0.7,0.3,1c0.1,0.2,0.3,0.4,0.4,0.5c0.1,0.2,0.2,0.7,0.1,0.9c-0.1,0.1-0.2,0.2-0.4,0.2
			c-0.2,0.1-0.4,0.2-0.6,0.3c-0.2,0.1-0.4,0.3-0.5,0.4c-0.2,0.2-0.5,0.4-0.7,0.7c-0.1,0.1-0.3,0.2-0.4,0.4c-0.1,0.1-0.1,0.1-0.2,0.1
			c-0.1,0.1-0.3,0.1-0.4,0.1c-0.1,0.1-0.3,0.1-0.4,0.2c-0.2,0.1-0.4,0.2-0.5,0.4c-0.2,0.1-0.3,0.3-0.4,0.5c-0.1,0.2,0,0.4,0,0.5
			c0.1,0.3,0.5,0.5,0.9,0.7c0.2,0.1,0.5,0.2,0.8,0.1c0.2,0,0.5-0.3,0.5-0.5c0.1-0.4,0.1-0.8,0.1-1.3c0.1-0.4,0.2-0.7,0.4-1
			c0.3-0.5,0.7-0.7,1.1-0.9c0.2-0.1,0.3-0.2,0.5-0.2c0,0.2-0.1,0.3-0.2,0.4c-0.1,0.4-0.3,0.9-0.3,1.3c0,0.4,0.2,0.8,0.4,1
			c0,0,0.1,0.1,0.2,0.1c0.1,0,0.1,0.1,0.2,0.1c0,0,0.1,0,0.2,0c0.2,0,0.5,0,0.7,0c0.3-0.1,0.5-0.3,0.6-0.5c0.1-0.2,0.3-0.5,0.2-0.8
			c-0.1-0.4-0.4-0.9-0.8-1.1c-0.1,0-0.2-0.1-0.3-0.1c-0.1,0-0.1-0.2-0.2-0.3c-0.1-0.2-0.2-0.3-0.2-0.6c0-0.2,0.1-0.9,0.3-0.9
			c0.1,0,0.3,0.1,0.4,0.1c0.2,0.1,0.3,0.1,0.4,0.1c0.1,0.1,0.1,0.3,0.1,0.4c0,0.2,0.1,0.4,0.2,0.6c0.1,0.2,0.2,0.5,0.4,0.5
			c0.2,0.1,0.5,0.2,0.9,0.2c0.1,0,0.3-0.1,0.5-0.2c0.1-0.1,0.2-0.1,0.3-0.2c0.4-0.4,0.3-1.5-0.2-1.8c-0.1,0-0.2-0.1-0.3-0.1
			c-0.5-0.1-1.1,0.1-1.6,0.1c-0.3,0-0.7-0.1-0.8-0.1c0,0-0.1,0-0.1,0c0,0-0.1-0.1-0.1-0.1c-0.3-0.1-0.6-0.3-0.6-0.7
			c0-0.2,0-0.5,0.2-0.5c0.1,0,0.4,0,0.6,0.1c0.3,0.1,0.5,0.1,0.8,0.2c0.1,0,0.2,0.1,0.2,0.1c0.5,0.1,1,0.3,1.4,0.6
			c0.1,0,0.1,0.1,0.2,0.1c0.1,0,0.1,0.1,0.2,0.1c0.4,0.2,0.8,0.5,1.1,0.8c0.5,0.4,0.9,0.8,1.3,1.3c0.4,0.5,0.8,1,1.1,1.5
			c0.3,0.6,0.7,1,1.1,1.5c0.1,0.1,0.2,0.2,0.3,0.3c0.1,0.1,0.2,0.2,0.3,0.3c0.4,0.5,0.8,0.9,1.3,1.3c0.4,0.3,0.8,0.5,1.1,0.8
			c0.2,0.1,0.3,0.3,0.4,0.4c0.1,0.1,0.2,0.1,0.3,0.2c0.4,0.2,0.8,0.5,1.2,0.7c0.4,0.2,0.8,0.4,1.1,0.5c0.2,0.1,0.5,0.2,0.7,0.3
			c0.3,0.1,0.7,0.2,1,0.3c0.7,0.1,1.4,0.4,2.1,0.5c0.2,0,0.3,0.1,0.5,0.1c0.2,0,0.4,0.1,0.5,0.1c0.1,0,0.1,0.1,0.2,0.1
			c0.1,0,0.2,0,0.2,0c0.4,0.1,0.9,0.2,1.4,0.4c0.1,0,0.1,0.1,0.2,0.1c0.1,0,0.2,0,0.2,0.1c0.3,0.1,0.6,0.2,0.9,0.3
			c0.1,0.1,0.2,0.2,0.4,0.2c0.1,0,0.2,0,0.3,0.1c-0.1,0.6-0.4,1-0.6,1.5c-0.1,0.2-0.3,0.5-0.4,0.7c-0.1,0.2-0.3,0.4-0.4,0.6
			c-0.6,0.8-1.3,1.5-2.2,2c-0.3-0.2-0.4-0.3-0.4-0.6c0-0.1,0.1-0.4,0.2-0.5c0.2-0.4,0.7-0.7,1.1-0.8c0.3-0.1,0.7-0.2,0.9-0.3
			c0.3-0.1,0.7-0.4,0.7-0.7c0.1-0.7-0.3-1.3-0.8-1.4c-0.6-0.1-1.2,0.3-1.4,0.7c-0.1,0.3,0,0.7,0,1c0,0.1,0.1,0.3,0.1,0.4
			c0,0.1-0.2,0.2-0.3,0.3c-0.1,0.1-0.2,0.3-0.3,0.3c-0.1,0-0.3-0.2-0.3-0.4c-0.2-0.3-0.4-0.5-0.3-0.9c0-0.1,0-0.2,0-0.3
			c0-0.1,0.1-0.2,0.2-0.3c0.2-0.3,0.3-0.6,0.3-1.1c0-0.6-0.6-1-1.2-1c-0.6,0-1.1,0.5-1.1,1.1c0,0.7,0.6,1.1,1.1,1.4
			c0.1,0,0.2,0,0.2,0.1c-0.1,0.2-0.2,0.2-0.4,0.3c-0.4,0.1-0.9,0-1.2-0.1c-0.3-0.1-0.6-0.3-0.8-0.5c-0.2-0.2-0.4-0.6-0.5-0.9
			c-0.2-0.3-0.5-0.8-1-0.7c-0.4,0.1-1,0.7-1.1,1c-0.1,0.3,0,0.7,0.1,0.8c0.3,0.3,0.9,0.4,1.5,0.4c0.2,0,0.4-0.1,0.6,0
			c0.2,0,0.5,0.1,0.7,0.2c0.6,0.2,1.2,0.5,1.9,0.4c0.2,0,0.3-0.1,0.4,0c0.3,0.1,0.4,0.5,0.4,0.9c0,0.2-0.1,0.4-0.1,0.6
			c0,0.2,0,0.4,0,0.6c0,0.2,0.1,0.3,0.2,0.5c-0.3,0.2-0.5,0.2-0.8,0.4c-0.1,0-0.2,0.1-0.3,0.1c-0.1,0-0.2-0.2-0.3-0.2
			c-0.3-0.2-0.5-0.6-0.6-1c-0.1-0.4,0.1-0.7,0.1-1c0-0.3-0.3-0.5-0.5-0.6c-0.2-0.1-0.5-0.2-0.8-0.2c-0.4,0-0.8,0.3-0.9,0.6
			c-0.1,0.2-0.1,0.5-0.1,0.8c0.1,0.3,0.5,0.6,0.8,0.8c0.3,0.1,0.7,0.1,0.9,0c0.1,0,0.2-0.1,0.3-0.1c0.2,0,0.3,0.3,0.4,0.4
			c0.1,0.2,0.2,0.4,0.2,0.7c-0.3,0.1-0.6,0.1-0.9,0.2c-0.2,0-0.4,0-0.5,0c-0.2,0-0.4,0-0.5,0c-0.1-0.1-0.1-0.2-0.1-0.3
			c-0.2-0.5-0.5-0.8-0.9-1.1c-0.1-0.1-0.4-0.3-0.4-0.4c0-0.1,0.1-0.1,0.1-0.2c0.1-0.2,0.2-0.4,0.2-0.6c0.2-1.1-0.9-1.7-1.7-1.3
			c-0.3,0.1-0.5,0.3-0.7,0.6c-0.2,0.4-0.1,1,0.2,1.3c0.2,0.3,0.6,0.5,1,0.5c0.1,0,0.3-0.1,0.4-0.1c0.1,0,0.3,0.2,0.4,0.3
			c0.2,0.1,0.3,0.2,0.4,0.3c0.2,0.2,0.3,0.4,0.5,0.6c0,0.1,0.1,0.2,0.1,0.2c-0.7,0-1.4-0.2-1.9-0.4c-0.3-0.4-0.9-0.9-1.6-0.8
			c-0.5,0.1-0.8,0.9-0.5,1.4c0.2,0.4,0.8,0.5,1.4,0.3c0.2,0,0.4-0.2,0.6-0.2c0.1,0,0.4,0.1,0.6,0.1c0.2,0,0.4,0,0.6,0.1
			c-0.1,0.2-0.3,0.4-0.5,0.5c-0.1,0.1-0.2,0.1-0.3,0.2c-0.1,0.1-0.2,0.2-0.3,0.2c-0.1,0-0.2-0.1-0.3-0.1c-0.8-0.1-1.5,0.6-1.4,1.3
			c0,0.5,0.5,0.9,1,1c0.6,0.1,1-0.3,1.2-0.7c0.1-0.1,0.1-0.2,0.1-0.3c0.1-0.4-0.1-0.7-0.2-1c0.2-0.2,0.5-0.4,0.8-0.6
			c0.1-0.1,0.2-0.2,0.4-0.3c0.1-0.1,0.3-0.3,0.4-0.3c0.1,0,0.2,0,0.3,0c0.1,0,0.2,0,0.2,0c0.1,0.6,0.2,1.1,0.3,1.7
			c-0.5,0.1-0.9,0.4-1,0.9c-0.2,0.9,0.8,1.7,1.6,1.3c0.2-0.1,0.4-0.4,0.6-0.6c0.2-0.5,0-1-0.3-1.3c-0.1-0.1-0.2-0.2-0.3-0.3
			c-0.2-0.2-0.3-0.6-0.2-0.9c0.2,0,0.4,0.1,0.5,0.2c0.4,0.2,0.7,0.3,1,0.5c0.2,0.1,0.3,0.2,0.4,0.4c0,0.1,0.1,0.2,0.1,0.3
			c0.1,0.1,0.1,0.2,0.1,0.3c0,0.1-0.1,0.3-0.2,0.3c-0.1,0.1-0.1,0.3-0.1,0.5c0,0.7,0.5,1.1,1,1.2c0.6,0,1.1-0.4,1.2-0.8
			c0.2-0.7-0.3-1.6-1.2-1.5c-0.1,0-0.2,0.1-0.3,0c-0.1-0.2-0.2-0.4-0.4-0.5c-0.1-0.1-0.3-0.3-0.5-0.4c-0.3-0.2-0.6-0.3-0.9-0.5
			c-0.2-0.1-0.4-0.2-0.7-0.2c-0.1,0-0.2-0.1-0.3-0.2c0-0.1,0-0.3,0.1-0.4c0.4-0.1,0.7-0.1,1.1-0.1c0.1,0,0.2-0.1,0.3-0.1
			c0.1,0,0.2,0.1,0.2,0.2c0.2,0.2,0.3,0.3,0.5,0.4c0.1,0.1,0.2,0.1,0.2,0.2c0,0.1,0,0.2,0,0.3c0,0,0,0.1,0.1,0.1
			c0.4,0.8,1.6,0.5,1.6-0.3c0-0.2-0.1-0.4-0.2-0.5c-0.2-0.2-0.5-0.4-0.9-0.3c-0.1,0-0.2,0.1-0.3,0.2c0,0-0.1,0.1-0.2,0.1
			c-0.1,0-0.2-0.1-0.3-0.2c-0.1-0.1-0.2-0.2-0.2-0.3c0.2-0.1,0.4-0.1,0.6-0.2c0.5-0.1,1.1-0.3,1.6-0.5c0.1,0,0.2-0.1,0.3-0.1
			c0.1,0,0.2,0.2,0.3,0.3c0.1,0.3-0.1,0.5-0.1,0.9c0,0.6,0.7,0.9,1.2,0.8c0.3-0.1,0.5-0.3,0.6-0.6c0.1-0.2,0.1-0.4,0.1-0.6
			c0-0.7-0.5-0.9-1.1-0.9c-0.1,0-0.2,0-0.3,0c0.1-0.1,0.2-0.2,0.3-0.2c0.4-0.2,0.7-0.5,1-0.7c1.1-0.8,2.1-1.7,2.9-2.8
			c0.2-0.2,0.3-0.5,0.5-0.6c0.2,0.1,0.4,0.2,0.5,0.3c0.2,0.1,0.4,0.2,0.5,0.3c0.2,0.1,0.4,0.2,0.5,0.3c0.1,0.1,0.1,0.1,0.2,0.2
			c0.1,0.1,0.2,0.1,0.3,0.2c0.3,0.2,0.6,0.5,0.9,0.8c0.3,0.3,0.6,0.6,0.8,0.9c0.1,0.1,0.1,0.2,0.1,0.3c0.1,0.2,0,0.4,0,0.7
			c0,0.3-0.1,0.7-0.1,1.1c0,0.3,0,0.6-0.1,0.9c-0.1,1.2-0.1,2.5-0.2,3.7c0,0.6,0,1.3-0.1,1.9c0,0.3,0,0.8-0.1,1.1
			c0,0.3-0.1,0.6-0.1,0.9c-0.1,1.6-0.4,3-0.9,4.2c-0.2,0.5-0.4,0.9-0.6,1.4c-0.2,0.4-0.4,0.9-0.7,1.3c-0.5,0.8-1.1,1.6-1.8,2.2
			c-0.3,0.3-0.7,0.6-1.1,1c0.4,0.4,0.9,0.9,1.3,1.4c0.1,0.1,0.3,0.4,0.4,0.4c0.1,0,0.4-0.2,0.5-0.3c0.6-0.3,1.1-0.7,1.6-1
			c0.9-0.5,1.9-1,3.1-1.3c0.3-0.1,0.5-0.1,0.8-0.1c1.1,0,1.7,0.6,2.1,1.4c0.6,1.4,0.5,3.6,0.2,5.2c0,0.2-0.1,0.3,0,0.5
			c0.1,0,0.1,0,0.2,0c0,0,0,0,0.1,0c0,0,0.1,0,0.1,0c0.5,0,1-0.1,1.5-0.1c0.5,0,1,0,1.4-0.1c-0.1-2,0.3-4,2.4-3.5
			c0.6,0.1,1.2,0.4,1.8,0.7c0.6,0.3,1.1,0.6,1.6,0.9c1-0.6,2-1.3,2.9-1.9c0.1,0,0.2-0.1,0.2-0.1c-1.1-0.6-2.1-1.1-3.1-1.8
			c-1-0.6-1.9-1.3-2.6-2.2c-0.8-0.9-1.3-1.9-1.7-3.1c-0.3-0.9-0.5-2-0.5-3.1c-0.1-1.3-0.1-2.8-0.2-4.2c0-0.1,0-0.1,0-0.2
			c0-0.1,0-0.1,0-0.2c0-0.1,0-0.1,0-0.2c0-0.4,0-0.8,0-1.2c-0.1-1-0.1-1.9-0.1-2.9c0-0.1,0-0.1,0-0.2c0-0.1,0-0.1,0-0.2
			c0-0.1,0-0.1,0-0.2c0-0.3,0-0.6,0-0.9c0-0.3-0.1-0.7-0.1-1c0-0.2,0.1-0.4,0.1-0.6c0.2-0.6,0.4-1.1,0.8-1.5c0.6-0.7,1.3-1.3,2-1.8
			c0.4-0.3,0.8-0.5,1.2-0.7c0.4-0.2,0.8-0.5,1.3-0.6c0.4-0.1,0.7-0.3,1.1-0.4c0.3,0.4,0.6,0.9,1,1.3c0.4,0.5,0.9,0.9,1.3,1.3
			c0.6,0.5,1.2,1,1.8,1.4c0.1,0.1,0.2,0.2,0.3,0.2c0.1,0.1,0.3,0.1,0.3,0.3c-0.7-0.1-1.3,0.1-1.4,0.7c0,0.4,0.1,0.9,0.3,1.1
			c0.2,0.2,0.5,0.3,0.8,0.3c0.4,0,0.8-0.4,0.9-0.9c0-0.3-0.2-0.6-0.1-0.9c0-0.1,0.1-0.3,0.3-0.3c0.1,0,0.2,0.1,0.3,0.1
			c0.1,0,0.2,0.1,0.3,0.1c0.5,0.2,1.1,0.4,1.6,0.5c0.1,0,0.2,0,0.3,0.1c-0.1,0.2-0.3,0.4-0.6,0.5c-0.2-0.1-0.3-0.2-0.4-0.3
			c-0.6-0.2-1.2,0.2-1.2,0.8c0,0.4,0.4,0.7,0.7,0.8c0.6,0.1,1-0.4,1-1c0.2-0.1,0.3-0.2,0.5-0.4c0.1-0.1,0.4-0.4,0.5-0.4
			c0.1,0,0.1,0,0.2,0c0.4,0,0.8,0.1,1.1,0.1c0,0.1,0.1,0.3,0,0.4c-0.3,0.1-0.6,0.2-0.8,0.3c-0.5,0.2-1,0.5-1.4,0.9
			c-0.1,0.1-0.2,0.2-0.3,0.3c-0.1,0.1-0.1,0.2-0.2,0.4c-0.7-0.2-1.4,0.2-1.5,0.8c-0.1,0.7,0.3,1.3,0.8,1.4c0.7,0.2,1.5-0.2,1.5-1.1
			c0-0.1-0.1-0.4-0.1-0.5c0-0.1-0.2-0.2-0.2-0.4c0-0.1,0.1-0.2,0.1-0.3c0-0.1,0.1-0.2,0.1-0.3c0.1-0.1,0.3-0.2,0.4-0.4
			c0.2-0.1,0.3-0.2,0.5-0.3c0.4-0.2,0.8-0.4,1.1-0.5c0.1,0.2,0,0.4,0,0.5c0,0.2-0.1,0.3-0.2,0.4c-0.2,0.2-0.5,0.4-0.6,0.6
			c-0.5,0.8,0.2,1.7,1,1.7c0.6,0,1.1-0.5,1.1-1.1c0-0.3-0.1-0.5-0.2-0.6c-0.1-0.2-0.3-0.4-0.5-0.5c-0.1-0.1-0.3,0-0.4-0.1
			c0.1-0.6,0.2-1.2,0.3-1.7c0.1-0.1,0.3,0,0.5,0c0.4,0.3,0.8,0.7,1.2,0.9c0.1,0.1,0.3,0.2,0.4,0.3c0,0.1-0.2,0.2-0.2,0.4
			c-0.3,0.8,0.3,1.5,0.9,1.6c0.2,0,0.5,0,0.7-0.1c0.1,0,0.2-0.1,0.3-0.2c0.3-0.3,0.5-0.7,0.4-1.2c-0.1-0.2-0.3-0.6-0.5-0.7
			c-0.2-0.2-0.6-0.3-0.9-0.2c-0.1,0-0.2,0.1-0.3,0.1c-0.1,0-0.2-0.1-0.3-0.2c-0.1-0.1-0.2-0.2-0.3-0.2c-0.2-0.2-0.5-0.3-0.5-0.5
			c0.2-0.1,0.4-0.1,0.6-0.1c0.1,0,0.2,0,0.3,0c0.1,0,0.2-0.1,0.3-0.1c0.1,0,0.2,0.1,0.4,0.1c0.4,0.1,1,0.2,1.3,0
			c0.1-0.1,0.3-0.3,0.4-0.4c0.1-0.2,0-0.4,0-0.6c-0.1-0.3-0.2-0.5-0.4-0.6c-0.2-0.1-0.5-0.1-0.8,0c-0.3,0.1-0.6,0.3-0.8,0.5
			c-0.1,0.1-0.2,0.2-0.3,0.3c-0.1,0.1-0.3,0.1-0.5,0.1c-0.3,0.1-0.6,0.1-1,0.2c-0.2,0-0.3,0.1-0.5,0c0-0.1,0.1-0.2,0.1-0.2
			c0.1-0.2,0.3-0.4,0.5-0.6c0.1-0.2,0.4-0.3,0.6-0.5c0.1-0.1,0.2-0.1,0.2-0.1c0.1,0,0.2,0,0.3,0.1c0.9,0.1,1.6-0.7,1.5-1.5
			c-0.1-0.6-0.6-1.1-1.2-1.1c-0.7,0-1.3,0.5-1.3,1.2c0,0.4,0.2,0.7,0.3,1c-0.2,0.2-0.5,0.4-0.8,0.6c-0.2,0.2-0.5,0.5-0.6,0.8
			c0,0.1-0.1,0.3-0.2,0.3c-0.1,0-0.4,0-0.5,0c-0.2,0-0.4,0-0.5,0c-0.4,0-0.7-0.1-1-0.2c0.1-0.2,0.1-0.4,0.2-0.6
			c0.1-0.2,0.2-0.5,0.4-0.5c0.1,0,0.2,0.1,0.3,0.1c0.4,0.1,0.7,0.1,1.1-0.1c0.2-0.1,0.4-0.3,0.5-0.4c0.3-0.5,0.1-1.2-0.3-1.5
			c-0.5-0.3-1.2-0.2-1.6,0.1c-0.2,0.1-0.3,0.4-0.4,0.6c0,0.3,0.1,0.6,0.1,1c0,0.3-0.2,0.5-0.4,0.7c-0.2,0.2-0.3,0.4-0.6,0.5
			c-0.3-0.1-0.6-0.2-0.9-0.3c-0.1,0-0.2-0.1-0.3-0.1c0-0.1,0.1-0.2,0.1-0.3c0.1-0.3,0.1-0.7,0-1.1c0-0.1-0.1-0.2-0.1-0.3
			c0-0.3,0.2-0.8,0.4-0.9c0.1,0,0.3,0,0.4,0c0.5,0,1-0.1,1.4-0.2c0.4-0.1,0.8-0.3,1.3-0.4c0.2-0.1,0.4,0,0.7,0
			c0.7,0.1,1.7-0.1,1.7-0.9c0-0.4-0.2-0.6-0.4-0.8c-0.1-0.1-0.3-0.3-0.4-0.4c-0.2-0.1-0.5-0.2-0.7-0.1c-0.7,0.3-0.7,1.3-1.3,1.7
			c-0.4,0.3-1.1,0.6-1.8,0.5c-0.2,0-0.4-0.1-0.5-0.3c0.1-0.1,0.3-0.2,0.4-0.3c0.4-0.2,0.8-0.7,0.8-1.3c0-0.5-0.4-0.9-0.8-1
			c-0.7-0.3-1.6,0.2-1.6,0.9c0,0.5,0.2,0.9,0.4,1.2c0,0.1,0.1,0.1,0.1,0.2c0,0.1,0,0.2,0,0.3c0,0.5-0.1,0.7-0.3,0.9
			c-0.1,0.1-0.3,0.4-0.4,0.4c-0.1,0-0.3-0.2-0.3-0.3c-0.1-0.1-0.3-0.2-0.3-0.3c0-0.1,0-0.1,0.1-0.2c0.1-0.2,0.1-0.5,0.1-0.7
			c0-0.2,0-0.4,0-0.6c-0.1-0.4-0.6-0.7-1-0.7c-0.4,0-0.7,0.2-0.9,0.4c-0.2,0.2-0.4,0.7-0.3,1.1c0,0.1,0.1,0.2,0.2,0.3
			c0.2,0.3,0.5,0.4,0.9,0.5c0.6,0.2,1,0.4,1.4,0.7c0.1,0.1,0.4,0.4,0.4,0.7c0,0.4-0.2,0.5-0.4,0.7c-1.3-0.8-2.2-1.9-2.9-3.2
			c-0.2-0.4-0.5-0.9-0.6-1.5c0.2-0.1,0.4-0.1,0.5-0.2c0.5-0.2,0.9-0.4,1.4-0.5c0.3,0,0.5-0.1,0.8-0.2c0.4-0.1,0.9-0.2,1.3-0.3
			c0.1,0,0.2,0,0.3,0c0.1,0,0.1-0.1,0.2-0.1c0.1,0,0.2,0,0.3,0c0.1,0,0.2-0.1,0.2-0.1c0.1,0,0.2,0,0.3,0c0.1,0,0.2-0.1,0.3-0.1
			c0.3-0.1,0.6-0.2,0.8-0.3c0.2-0.1,0.4-0.2,0.6-0.3c0,0,0.1,0,0.1-0.1c0.1,0,0.2-0.1,0.3-0.1c0.3-0.2,0.7-0.3,1-0.5
			c0.2-0.1,0.5-0.3,0.7-0.4c0.2-0.1,0.4-0.1,0.4-0.3c0.3,0.3,0.7,0.6,1.1,0.7c0.5,0.1,1,0.2,1.6,0.2c0,0.2,0.2,0.3,0.3,0.4
			c0.2,0.3,0.3,0.5,0.5,0.8c0.1,0.1,0.2,0.2,0.3,0.4c0.1,0.1,0.2,0.3,0.4,0.3c-0.3-0.9,0-1.9,0.4-2.7c0.2-0.5,0.5-1,0.8-1.4
			c0.1-0.1,0.1-0.1,0.1-0.2c-0.2,0-0.5,0.1-0.7,0.2c-0.2,0.1-0.4,0.2-0.6,0.3c-0.3,0.2-0.5,0.4-0.7,0.7c-0.1,0.1-0.1,0.3-0.2,0.2
			c0.1-0.2,0.2-0.4,0.2-0.7c-0.4,0.1-0.5,0.5-0.7,0.8c0,0,0,0.2-0.1,0.2c0-0.2,0.1-0.3,0.1-0.4c0.1-0.1,0.1-0.2,0.1-0.3
			c-0.2,0-0.5,0.1-0.8,0.1c-0.5,0-1,0.1-1.2-0.2c1.4-1,2.6-2.3,3.5-3.8c0.5-0.7,0.9-1.5,1.5-2.1c0.6-0.6,1.2-1.2,2-1.6
			c0.5-0.3,1-0.6,1.6-0.8c0.3-0.1,0.6-0.2,0.9-0.3c0.3-0.1,0.7-0.2,1-0.2c0.1,0.2,0.1,0.3,0.1,0.6c0,0.2-0.2,0.4-0.4,0.5
			c-0.2,0.1-0.4,0.2-0.7,0.3c-0.3,0.1-0.7,0.1-1.1,0c-0.1,0-0.3-0.1-0.4-0.1c-0.4-0.1-0.9,0-1.1,0.1c-0.5,0.3-0.6,1.3-0.2,1.9
			c0.2,0.1,0.3,0.2,0.5,0.3c0.4,0.1,0.8,0,1.1-0.1c0.3-0.3,0.4-0.6,0.6-1.1c0-0.1,0.1-0.1,0.1-0.2c0-0.1,0-0.2,0-0.2
			c0.1-0.1,0.4-0.1,0.5-0.2c0.1-0.1,0.2-0.1,0.4-0.1c0.1,0.1,0.1,0.3,0.2,0.4c0,0.2,0.1,0.4,0.1,0.5c0,0.3-0.1,0.4-0.2,0.6
			c-0.1,0.1-0.1,0.2-0.2,0.3c-0.1,0.1-0.2,0.1-0.3,0.1c-0.3,0.2-0.7,0.7-0.8,1.1c-0.1,0.4,0.1,0.7,0.3,0.9c0.1,0.1,0.3,0.3,0.4,0.3
			c0.2,0.1,0.7,0.2,1,0.1c0.3-0.1,0.5-0.3,0.7-0.6c0.3-0.6-0.1-1.4-0.2-1.9c-0.1-0.1-0.2-0.2-0.1-0.4c0.4,0.2,0.7,0.4,0.9,0.6
			c0,0,0.1,0,0.1,0.1c0.5,0.4,1,0.9,1,1.9c0,0.5,0,1,0.2,1.3c0.1,0.1,0.2,0.2,0.2,0.2c0.3,0.1,0.7,0,0.9-0.1c0.5-0.2,0.9-0.4,1-0.8
			c0-0.1,0-0.3,0-0.4c-0.1-0.2-0.2-0.3-0.3-0.4c-0.3-0.3-0.7-0.5-1.1-0.6c-0.1-0.1-0.2-0.1-0.4-0.1c-0.1,0-0.2-0.1-0.3-0.2
			c-0.1-0.1-0.2-0.1-0.2-0.2c-0.4-0.5-0.9-1-1.5-1.3c-0.1-0.1-0.3-0.1-0.4-0.2c-0.2-0.1-0.3-0.1-0.4-0.2c-0.1-0.2,0-0.7,0-0.9
			c0.1-0.1,0.2-0.2,0.2-0.4c0.2-0.2,0.4-0.5,0.4-0.8c0.1-0.2,0-0.3,0.1-0.5c0.4-0.1,0.9,0.1,1.3,0.1c0.2,0.3,0.4,0.7,0.4,1.2
			c0,0.1,0,0.3,0,0.5c-0.1,0.2-0.2,0.3-0.3,0.4c-0.1,0.1-0.2,0.3-0.2,0.5c0,0.2,0,0.4,0.1,0.6c0.1,0.2,0.2,0.3,0.4,0.5
			c0.3,0.2,0.7,0.4,1.1,0.3c0.2,0,0.4-0.2,0.6-0.4c0.2-0.2,0.4-0.5,0.4-0.8c0-0.2-0.1-0.4-0.2-0.6c-0.2-0.3-0.5-0.5-0.9-0.6
			c-0.1,0-0.3,0-0.5,0c-0.2,0-0.2-0.4-0.2-0.6c0-0.3,0-0.6,0.1-0.7c0.5,0.1,1,0.3,1.5,0.5c0.1,0.1,0.4,0.1,0.4,0.2
			c0,0.1,0,0.2-0.1,0.3c-0.1,0.3,0,0.8,0.1,1.1c0,0.1,0.1,0.3,0.1,0.5c0,0.2,0.1,0.4,0.1,0.5c0,0.1-0.2,0.2-0.2,0.2
			c-0.1,0.1-0.1,0.2-0.2,0.2c-0.6,0.9,0.1,1.8,0.8,2c0.5,0.1,0.9-0.1,1.1-0.3c0.4-0.3,0.7-1,0.4-1.5c0,0,0-0.1-0.1-0.1
			c-0.1-0.2-0.2-0.3-0.3-0.4c-0.1,0-0.1-0.1-0.2-0.1c-0.2-0.1-0.3-0.1-0.5-0.2c-0.1,0-0.1-0.1-0.2-0.2c-0.1-0.2-0.3-0.5-0.3-0.7
			c-0.1-0.2-0.1-0.4-0.2-0.5c0-0.2-0.1-0.4,0-0.5c0.2,0.1,0.3,0.2,0.5,0.3c0.3,0.2,0.5,0.4,0.8,0.6c0.1,0.1,0.4,0.3,0.4,0.4
			c0,0.2,0.1,0.4,0.1,0.5c0,0.1,0.1,0.1,0.1,0.2c0.2,0.3,0.4,0.5,0.7,0.7c0.4,0.2,0.6,0,0.9-0.2c0.1-0.1,0.3-0.3,0.3-0.4
			c0.2-0.4,0-0.7-0.2-1c-0.4-0.3-0.9-0.4-1.5-0.5c-0.3-0.2-0.5-0.4-0.8-0.6c-0.1-0.1-0.2-0.1-0.2-0.2
			C138.7,95.6,138.8,95.6,139,95.6z M97.2,112.7c-0.1,1.3,0,2.6-0.1,3.8c0,0.6,0,1.3,0,1.9c0,0.3-0.1,0.6-0.1,0.9
			c0,0.3,0,0.6-0.1,0.9c-0.1-0.1-0.1-0.3-0.2-0.4c0-0.2,0-0.4-0.1-0.5c-0.1-0.3-0.1-0.7-0.1-1.1c-0.1-0.7-0.1-1.4-0.2-2.2
			c-0.1-1.4-0.2-2.9-0.3-4.3c0-0.5,0-1,0.1-1.4c0-0.7,0.1-1.4,0.1-2.1c0.1-2.5,0.2-5.1,0.8-7.3c0,0,0,0,0.1,0h0
			c0,2.6,0.1,5.2,0.1,7.8C97.2,110.1,97.2,111.4,97.2,112.7z M97.1,72.6c0,0.1,0,0.2-0.1,0.3c0-0.2-0.1-0.4-0.1-0.6
			c0-0.2-0.1-0.5-0.1-0.7c0.1-0.4,0.2-0.9,0.4-1.1c0.1,0.1,0.2,0.1,0.3,0.1C97.3,71.1,97.2,71.9,97.1,72.6z M98.1,79.7
			c-0.1,0-0.1-0.2-0.1-0.3c-0.1-0.8-0.2-1.8-0.3-2.7c-0.1-1.5,0-2.9,0.2-4.2c0-0.2,0-0.3,0.1-0.5c0-0.1,0-0.2,0.1-0.2
			c0-0.1,0-0.2,0-0.2c0-0.1,0.1-0.1,0.1-0.2c0,0,0,0,0,0C98.2,74,98.3,77,98.1,79.7z"/>
	</g>
	<g>
		<polygon class="st1" points="58.6,139.4 62.4,142.6 63.3,141.6 58.6,137.6 51.1,146.2 55.9,150.2 56.7,149.2 53,146 55.5,143.1 
			59,146.1 59.9,145 56.4,142 		"/>
		<polygon class="st1" points="71.8,147.4 64.8,153.6 67.2,144.7 67.3,144.5 65.9,143.7 59.9,153.3 61,154 65.3,147.1 63.1,155.3 
			64,155.9 70.4,150.3 66.1,157.2 67.1,157.8 73.1,148.2 		"/>
		<path class="st1" d="M81.1,151.9c-0.3-0.3-0.6-0.5-0.9-0.6l-3.6-1.4l-4.2,10.6l1.2,0.5l1.7-4.4l2.5,1c0.4,0.1,0.8,0.2,1.1,0.2
			c0.4,0,0.7-0.1,1.1-0.3c0.3-0.2,0.6-0.5,0.9-0.8c0.3-0.3,0.5-0.7,0.7-1.2c0.2-0.5,0.3-0.9,0.3-1.4c0-0.4,0-0.8-0.1-1.2
			C81.6,152.5,81.4,152.1,81.1,151.9z M79.5,152.4c0.5,0.2,0.7,0.5,0.9,0.9c0.2,0.4,0.1,0.9-0.1,1.6c-0.3,0.6-0.6,1.1-1,1.3
			c-0.4,0.2-0.8,0.2-1.3,0l-2.3-0.9l1.5-3.7L79.5,152.4z"/>
		<path class="st1" d="M91.6,154.9c-0.2-0.3-0.5-0.5-0.8-0.7c-0.3-0.2-0.6-0.3-1-0.4l-4-0.7l-2,11l0,0.2l1.2,0.2l0.9-4.8l2.7,0.5
			c0.3,0,0.5,0.1,0.7,0.3c0.1,0.2,0.2,0.4,0.3,0.7c0.1,0.3,0.1,0.6,0,1c0,0.4-0.1,0.8-0.1,1.1c0,0.1,0,0.2-0.1,0.4l-0.1,0.5
			c0,0.2,0,0.3,0,0.5c0,0.2,0,0.3,0.1,0.4l0,0.1l1.4,0.3l-0.2-0.4c0-0.1-0.1-0.3-0.1-0.5c0-0.2,0-0.5,0-0.7c0-0.3,0.1-0.5,0.1-0.8
			c0-0.3,0.1-0.5,0.1-0.7c0-0.3,0.1-0.6,0.1-0.9c0-0.3,0-0.6-0.1-0.8c-0.1-0.3-0.2-0.5-0.4-0.7c-0.1-0.1-0.1-0.1-0.2-0.2
			c0.4-0.1,0.7-0.4,0.9-0.7c0.4-0.5,0.6-1.1,0.8-1.8c0.1-0.5,0.1-1,0-1.4C91.9,155.6,91.8,155.2,91.6,154.9z M90,158.6
			c-0.2,0.1-0.4,0.2-0.5,0.3c-0.2,0-0.4,0.1-0.6,0l-2.7-0.5l0.7-3.8l2.7,0.5c0.5,0.1,0.9,0.3,1.1,0.7c0.2,0.4,0.2,0.9,0.1,1.5
			c-0.1,0.3-0.1,0.6-0.3,0.8C90.3,158.3,90.1,158.5,90,158.6z"/>
		<polygon class="st1" points="96,165.5 96,165.7 102.2,166 102.3,164.6 97.3,164.4 97.5,160.6 102.1,160.8 102.1,159.4 97.5,159.3 
			97.7,155.8 102.6,156 102.6,154.6 96.5,154.4 		"/>
		<polygon class="st1" points="111.1,153.1 112.7,161.5 106.7,154 105.4,154.2 107.6,165.4 108.8,165.1 107.2,156.7 113.2,164.3 
			114.4,164.1 112.3,152.9 		"/>
		<path class="st1" d="M122.2,151c-1-0.6-2.1-0.7-3.4-0.3l-2.9,1.1l4.1,10.6l2.9-1.1c1.2-0.5,2-1.4,2.3-2.5c0.3-1.1,0.1-2.5-0.6-4.3
			C124,152.8,123.1,151.6,122.2,151z M120.8,160.7l-3.2-8.1l1.3-0.5c1-0.4,1.9-0.4,2.6,0c0.4,0.2,0.7,0.6,1,1
			c0.3,0.5,0.6,1.1,0.9,1.8c0.3,0.7,0.5,1.4,0.6,2c0.1,0.6,0.1,1,0,1.4c-0.1,0.4-0.3,0.7-0.6,1c-0.3,0.3-0.7,0.5-1.3,0.7
			L120.8,160.7z"/>
		<polygon class="st1" points="132,155.5 129.9,152.2 133.8,149.7 133.1,148.6 129.2,151.1 127.4,148.1 131.5,145.5 130.8,144.3 
			125.6,147.6 131.5,157.1 131.6,157.3 136.9,153.9 136.2,152.8 		"/>
		<path class="st1" d="M145.5,145.4c-0.2-0.1-0.4-0.3-0.6-0.5c-0.2-0.2-0.4-0.4-0.6-0.5l-0.5-0.5c-0.2-0.2-0.5-0.4-0.7-0.6
			c-0.2-0.2-0.5-0.3-0.7-0.4c-0.3-0.1-0.5-0.1-0.8-0.1c-0.1,0-0.2,0-0.2,0c0.1-0.4,0.1-0.8,0-1.2c-0.2-0.6-0.5-1.2-1-1.7
			c-0.4-0.4-0.7-0.7-1.1-0.8c-0.4-0.2-0.7-0.3-1.1-0.3l-0.1,0c-0.3,0-0.7,0.1-1,0.2c-0.3,0.1-0.6,0.3-0.9,0.6l-2.9,2.8l7.8,8.3
			l0.9-0.9l-3.3-3.5l2-1.9c0.2-0.2,0.4-0.3,0.6-0.3l0.1,0c0.2,0,0.5,0.1,0.7,0.2c0.3,0.1,0.5,0.3,0.8,0.6c0.3,0.2,0.6,0.5,0.8,0.8
			l0.3,0.3c0.1,0.1,0.2,0.2,0.3,0.3c0.1,0.1,0.2,0.2,0.4,0.3c0.1,0.1,0.3,0.2,0.4,0.2l0.1,0.1l1-1l-0.4-0.1
			C145.9,145.6,145.7,145.5,145.5,145.4z M140.3,142.3c0,0.2,0,0.4-0.1,0.6c-0.1,0.2-0.2,0.4-0.3,0.5l-2,1.9l-2.6-2.8l2-1.9
			c0.4-0.4,0.8-0.5,1.2-0.4c0.4,0.1,0.9,0.3,1.3,0.8c0.2,0.2,0.4,0.4,0.5,0.7C140.2,141.9,140.3,142.1,140.3,142.3z"/>
		<path class="st1" d="M44.5,83.7c-0.3-0.4-0.7-0.7-1.1-1c-0.4-0.3-1-0.5-1.6-0.7L41.5,82l-0.2,1.2l0.2,0.1c0.4,0.1,0.8,0.3,1.1,0.5
			c0.3,0.2,0.6,0.4,0.8,0.7c0.2,0.3,0.4,0.5,0.5,0.8c0.1,0.3,0.1,0.6,0,1c-0.1,0.5-0.3,0.9-0.6,1.2c-0.3,0.3-0.6,0.6-1.1,0.7
			c-0.4,0.2-0.9,0.3-1.4,0.3c-0.5,0-1,0-1.5-0.1c-0.5-0.1-1-0.2-1.4-0.4c-0.5-0.2-0.8-0.5-1.2-0.8c-0.3-0.3-0.6-0.6-0.7-1
			c-0.1-0.4-0.2-0.8-0.1-1.3c0.1-0.3,0.2-0.5,0.3-0.7c0.1-0.2,0.3-0.4,0.5-0.6c0.2-0.2,0.5-0.3,0.8-0.4c0.3-0.1,0.6-0.1,1-0.1h0
			l0.2,0l0.2-1.2l-0.2,0c-0.5,0-1,0-1.5,0.1c-0.4,0.1-0.8,0.3-1.2,0.6c-0.3,0.3-0.6,0.6-0.8,0.9c-0.2,0.4-0.4,0.8-0.4,1.2
			c-0.1,0.7-0.1,1.3,0.1,1.9c0.2,0.6,0.5,1.1,0.9,1.5c0.4,0.4,0.9,0.8,1.5,1.1c0.6,0.3,1.2,0.5,1.9,0.6c0.5,0.1,1,0.1,1.5,0.1
			c0.2,0,0.3,0,0.5,0c0.6,0,1.2-0.2,1.8-0.4c0.5-0.2,1-0.6,1.4-1.1c0.4-0.5,0.6-1,0.8-1.7c0.1-0.5,0.1-1,0-1.4
			C45,84.5,44.8,84.1,44.5,83.7z"/>
		<path class="st1" d="M48.7,72.7c-0.2,0-0.4-0.1-0.6-0.2c-0.2-0.1-0.4-0.1-0.7-0.2l-0.6-0.2C46.6,72,46.3,72,46,71.9
			c-0.3-0.1-0.5-0.1-0.8,0c-0.3,0-0.5,0.1-0.7,0.2c-0.1,0-0.1,0.1-0.2,0.1c0-0.4-0.2-0.7-0.4-1c-0.3-0.5-0.8-0.8-1.4-1.1
			c-0.8-0.4-1.6-0.4-2.2-0.1c-0.3,0.1-0.6,0.4-0.8,0.6c-0.2,0.3-0.4,0.6-0.6,0.9l-1.6,3.7l9.1,3.9l0.2,0.1l0.5-1.1l-4-1.7l1.1-2.6
			c0.1-0.3,0.3-0.5,0.4-0.6c0.2-0.1,0.4-0.2,0.7-0.2c0.3,0,0.6,0,0.9,0.1c0.3,0.1,0.6,0.2,1,0.3c0.1,0,0.2,0.1,0.3,0.1l0.4,0.1
			c0.1,0,0.3,0.1,0.4,0.1c0.1,0,0.2,0,0.3,0l0.2,0l0.6-1.3l-0.4,0.1C49,72.8,48.9,72.8,48.7,72.7z M39.1,74.7l1.1-2.5
			c0.2-0.5,0.5-0.8,0.9-0.9c0.4-0.1,0.8-0.1,1.3,0.1c0.2,0.1,0.4,0.2,0.6,0.4c0.2,0.2,0.3,0.3,0.3,0.5c0.1,0.2,0.1,0.4,0.1,0.6
			c0,0.2,0,0.4-0.1,0.6L42.2,76L39.1,74.7z"/>
		<polygon class="st1" points="54.9,64.5 53.9,63.8 51,67.9 48.2,65.9 50.9,62.2 49.9,61.5 47.2,65.2 44.7,63.5 47.5,59.5 
			46.6,58.8 43,63.8 51.3,69.6 		"/>
		<polygon class="st1" points="61.8,57.5 60.9,56.6 57.3,60 55,57.6 58.4,54.4 57.5,53.5 54.2,56.7 52.1,54.4 55.7,51.1 54.8,50.2 
			50.4,54.4 57.2,61.8 		"/>
		<path class="st1" d="M65.8,54.7L63.5,51l2.4-1.4c0.3-0.2,0.5-0.3,0.7-0.2c0.2,0,0.4,0.1,0.6,0.3c0.2,0.2,0.4,0.4,0.6,0.6
			c0.2,0.3,0.4,0.5,0.6,0.8l0.2,0.3c0.1,0.1,0.2,0.2,0.2,0.3c0.1,0.1,0.2,0.2,0.3,0.3c0.1,0.1,0.2,0.2,0.3,0.3l0.1,0.1l1.2-0.7
			l-0.4-0.2c-0.1,0-0.2-0.1-0.4-0.3c-0.1-0.1-0.3-0.3-0.4-0.5c-0.1-0.2-0.3-0.4-0.4-0.6c-0.1-0.2-0.2-0.4-0.3-0.5
			c-0.2-0.2-0.3-0.5-0.5-0.7c-0.2-0.2-0.4-0.4-0.6-0.5c-0.2-0.1-0.5-0.2-0.7-0.2l-0.1,0c0,0-0.1,0-0.1,0c0.2-0.3,0.3-0.7,0.3-1
			c0-0.6-0.2-1.1-0.5-1.7c-0.2-0.4-0.5-0.7-0.8-0.9c-0.3-0.2-0.6-0.4-1-0.4c-0.3-0.1-0.7-0.1-1,0c-0.3,0.1-0.7,0.2-1,0.4l-3.4,2.1
			l5.2,8.6L65.8,54.7z M61.1,47.1l2.3-1.4c0.5-0.3,0.9-0.4,1.2-0.2c0.4,0.1,0.7,0.4,1,0.9c0.1,0.2,0.2,0.5,0.3,0.7
			c0,0.2,0,0.4,0,0.6c0,0.2-0.1,0.4-0.3,0.5c-0.1,0.2-0.3,0.3-0.5,0.4L62.9,50L61.1,47.1z"/>
		<path class="st1" d="M130.8,54.7c0.4,0.3,0.9,0.4,1.4,0.5c0.1,0,0.2,0,0.2,0c0.4,0,0.8-0.1,1.2-0.2c0.5-0.2,0.9-0.5,1.4-0.8
			c0.4-0.4,0.9-0.8,1.2-1.4l0.1-0.2l-1.1-0.6l-0.1,0.2c-0.3,0.4-0.6,0.7-0.9,1c-0.3,0.3-0.6,0.5-1,0.6c-0.3,0.1-0.6,0.2-1,0.2h0
			c-0.3,0-0.6-0.1-0.9-0.3c-0.4-0.3-0.7-0.6-0.9-1c-0.2-0.4-0.3-0.8-0.3-1.3c0-0.5,0.1-1,0.3-1.5c0.2-0.5,0.4-1,0.7-1.5
			c0.3-0.5,0.6-0.9,1-1.3c0.4-0.4,0.8-0.7,1.2-1c0.4-0.2,0.8-0.4,1.3-0.4c0.4,0,0.9,0.1,1.3,0.3c0.2,0.1,0.4,0.3,0.6,0.5
			c0.2,0.2,0.3,0.5,0.4,0.7c0.1,0.3,0.1,0.6,0.1,0.9c0,0.3-0.1,0.7-0.2,1l-0.1,0.2l1.1,0.6l0.1-0.2c0.2-0.5,0.4-1,0.4-1.5
			c0-0.5,0-1-0.1-1.4c-0.1-0.4-0.3-0.8-0.6-1.2c-0.3-0.3-0.6-0.6-0.9-0.8c-0.6-0.3-1.2-0.5-1.8-0.5h0c-0.6,0-1.2,0.2-1.8,0.4
			c-0.6,0.3-1.1,0.7-1.6,1.2c-0.5,0.5-0.9,1.1-1.3,1.7c-0.4,0.6-0.7,1.3-0.9,2c-0.2,0.7-0.3,1.3-0.3,1.9c0,0.6,0.2,1.2,0.5,1.8
			C129.8,53.9,130.3,54.3,130.8,54.7z"/>
		<path class="st1" d="M137.8,59.5l3.3-3.4l2,1.9c0.2,0.2,0.4,0.4,0.4,0.6c0,0.2,0,0.5-0.1,0.7c-0.1,0.3-0.3,0.5-0.5,0.8
			c-0.2,0.3-0.5,0.6-0.7,0.8l-0.2,0.3c-0.1,0.1-0.2,0.2-0.3,0.4c-0.1,0.1-0.2,0.2-0.3,0.4c-0.1,0.1-0.2,0.3-0.2,0.4l0,0.1l1,1
			l0.1-0.4c0-0.1,0.1-0.3,0.2-0.4c0.1-0.2,0.3-0.4,0.4-0.6c0.2-0.2,0.3-0.4,0.5-0.6c0.2-0.2,0.3-0.4,0.4-0.5
			c0.2-0.2,0.4-0.5,0.6-0.7c0.2-0.2,0.3-0.5,0.4-0.7c0.1-0.3,0.1-0.5,0.1-0.8c0-0.1,0-0.2-0.1-0.2c0.4,0.1,0.8,0.1,1.1,0
			c0.6-0.2,1.1-0.5,1.6-1c0.3-0.3,0.6-0.7,0.8-1.1c0.2-0.4,0.2-0.7,0.2-1.1c0-0.3-0.1-0.7-0.2-1c-0.2-0.3-0.4-0.6-0.6-0.9l-2.9-2.8
			l-7.7,7.9L137.8,59.5z M142,55.2l2.6-2.6l1.9,1.9c0.4,0.4,0.5,0.7,0.5,1.2c0,0.4-0.3,0.8-0.7,1.3c-0.2,0.2-0.4,0.4-0.6,0.5
			c-0.2,0.1-0.4,0.2-0.6,0.2l-0.1,0c-0.2,0-0.3,0-0.5-0.1c-0.2-0.1-0.4-0.2-0.5-0.3L142,55.2z"/>
		<polygon class="st1" points="149,64.6 151.5,68.5 152.6,67.8 150.1,63.9 153,62.1 155.6,66.2 156.7,65.5 153.4,60.4 144.1,66.3 
			147.5,71.6 148.6,70.8 145.9,66.7 		"/>
		<path class="st1" d="M160.4,73.2l-11.5,0.6l0.5,1.2l3.4-0.2l1.2,3.2l-2.7,2.1l0.5,1.2l9.2-7L160.4,73.2z M158.7,74.4l-3.7,2.7
			l-0.9-2.5L158.7,74.4z"/>
		<path class="st1" d="M163.6,87l-0.5-4l-10.9,1.3l0.2,1.2L157,85l0.3,2.7c0.1,0.3,0,0.6-0.1,0.7c-0.1,0.2-0.3,0.4-0.6,0.5
			c-0.3,0.1-0.6,0.2-0.9,0.3c-0.4,0.1-0.7,0.1-1.1,0.2l-0.4,0.1c-0.1,0-0.3,0.1-0.5,0.1c-0.2,0-0.3,0.1-0.5,0.1
			c-0.1,0-0.3,0.1-0.4,0.2l-0.1,0.1l0.2,1.4l0.3-0.3c0.1-0.1,0.2-0.2,0.4-0.2c0.2-0.1,0.4-0.1,0.7-0.2c0.3-0.1,0.5-0.1,0.8-0.1
			l0.6-0.1c0.3-0.1,0.6-0.1,0.9-0.2c0.3-0.1,0.5-0.2,0.7-0.4c0.2-0.2,0.4-0.3,0.5-0.6c0-0.1,0.1-0.1,0.1-0.2
			c0.2,0.3,0.5,0.5,0.9,0.7c0.6,0.2,1.2,0.3,1.9,0.2c0.5-0.1,0.9-0.2,1.3-0.4c0.4-0.2,0.6-0.4,0.9-0.7c0.2-0.3,0.4-0.6,0.4-0.9
			C163.7,87.7,163.7,87.3,163.6,87z M162,84.4l0.3,2.7c0.1,0.5,0,0.9-0.3,1.2c-0.3,0.3-0.7,0.5-1.3,0.6c-0.3,0-0.6,0-0.8,0
			c-0.2-0.1-0.4-0.1-0.6-0.3c-0.2-0.1-0.3-0.3-0.4-0.4c-0.1-0.2-0.2-0.4-0.2-0.6l-0.3-2.7L162,84.4z"/>
	</g>
	<g>
		<polygon class="st1" points="97.4,34 100.5,34 98.9,38.7 		"/>
		<polygon class="st1" points="100.5,43.5 97.4,43.5 98.9,38.7 		"/>
		<polygon class="st1" points="94.2,40.3 94.2,37.2 98.9,38.8 		"/>
		<polygon class="st1" points="103.7,37.2 103.7,40.3 98.9,38.8 		"/>
	</g>
	<g>
		<polygon class="st1" points="40,114.5 43.1,114.5 41.6,119.3 		"/>
		<polygon class="st1" points="43.1,124 40,124 41.6,119.3 		"/>
		<polygon class="st1" points="36.8,120.9 36.8,117.8 41.6,119.3 		"/>
		<polygon class="st1" points="46.3,117.8 46.3,120.9 41.6,119.3 		"/>
	</g>
	<g>
		<polygon class="st1" points="154.6,114.5 157.7,114.5 156.1,119.3 		"/>
		<polygon class="st1" points="157.7,124 154.6,124 156.1,119.3 		"/>
		<polygon class="st1" points="151.4,120.9 151.4,117.8 156.1,119.3 		"/>
		<polygon class="st1" points="160.9,117.8 160.9,120.9 156.1,119.3 		"/>
	</g>
</g>
<g>
	<path class="st0" d="M715.9,57c-2.1-0.7-4.3-0.9-5.2-0.9c-5.1,0-7.7,2.9-7.7,7.5c0,3.7,1.6,6.3,5.8,6.3c1.6,0,3.1-0.6,4-1.7l0.1,0
		l0.2,1.4h3l-0.3-2.5V57z M712.4,65.5c0,1.1-1.1,2.3-2.9,2.3c-2.5,0-3.1-2.1-3.1-4.2c0-2.8,0.9-5.1,3.7-5.1c0.9,0,1.8,0.2,2.2,0.3
		V65.5z"/>
	<path class="st0" d="M724.1,52.8c1.2,0,2.7,0.6,4.1,0.6c0.8,0,1.4-0.2,2-0.5l-0.2-2.1c-0.6,0.3-1.2,0.5-1.8,0.5
		c-1.4,0-2.4-0.7-4-0.7c-0.8,0-1.7,0.2-2.5,0.8l0.3,2C722.7,53,723.3,52.8,724.1,52.8z"/>
	<path class="st0" d="M727.2,56.1c-1.9,0-3.5,0.7-4.5,2l-0.3-1.6h-2.9l0.2,2.3v10.9h3.5v-8.5c0-1.4,1.2-2.6,3-2.6
		c1.9,0,2.2,1.2,2.2,2.8v8.3h3.5v-9C731.8,57.6,730.1,56.1,727.2,56.1z"/>
	<path class="st0" d="M741.5,56.1c-3,0-6.9,1.5-6.9,6.9c0,4.7,2.4,7,6.4,7c3.9,0,6.9-2.3,6.9-7.3C747.9,56.7,743.7,56.1,741.5,56.1z
		 M741.3,67.7c-2.6,0-3.1-2.6-3.1-5c0-2.5,1-4.3,3.1-4.3c2.2,0,3,1.8,3,4.7C744.3,65.8,743.4,67.7,741.3,67.7z"/>
	<path class="st0" d="M755.9,61.8c-1.4-0.4-2.6-0.7-2.6-1.9c0-1,1-1.5,2.1-1.5c1.2,0,2.5,0.5,3.6,1.4l1.7-1.8
		c-1.2-1.1-3.1-1.9-5.3-1.9c-2.9,0-5.4,1.4-5.4,4.2c0,2.7,2.4,3.3,4.6,3.9c1.4,0.4,2.5,0.7,2.5,1.9c0,1.2-1,1.7-2.2,1.7
		c-1.5,0-3.2-0.7-4.2-1.3l-1,2.2c0.8,0.5,2.9,1.3,5.4,1.3c3.3,0,5.6-1.5,5.6-4.2C760.5,63.2,758.1,62.4,755.9,61.8z"/>
</g>
<rect x="583.3" y="157" class="st0" width="177.5" height="22.5"/>
<g>
	<path class="st1" d="M627.1,174.7v-10.1l-3.5,1.7l-0.7-1l4.3-2.4h1.8l-0.1,1.4v10.4h2.8v1.3h-7.4v-1.3H627.1z"/>
	<path class="st1" d="M636.7,174.9c3.5-0.6,5.4-2.3,5.6-4.8c-1.1,0.6-2.3,1-3.6,1c-2.6,0-4.1-1.5-4.1-3.9c0-2.4,1.6-4.5,4.8-4.5
		c3.5,0,4.7,2.7,4.7,5.8c0,4-1.7,6.9-7,7.7L636.7,174.9z M638.9,169.9c1.5,0,2.7-0.6,3.4-1.1c0.1-2.6-0.7-4.9-3-4.9
		c-1.8,0-3,1.3-3,3.2C636.3,168.8,637.2,169.9,638.9,169.9z"/>
	<path class="st1" d="M650.9,169c-1.1-0.6-2.5-1.4-2.5-3.1c0-1.8,1.7-3.2,4.2-3.2c2.9,0,4,1.5,4,2.9c0,1.5-1.2,2.6-2.4,3.4
		c1.8,0.8,2.9,2,2.9,3.5c0,1.9-1.3,3.7-4.7,3.7c-3.4,0-4.6-1.8-4.6-3.3C647.8,170.8,649.7,169.6,650.9,169z M652.3,169.7
		c-1.3,0.5-2.7,1.5-2.7,3.1c0,1.1,0.9,2.2,2.9,2.2c1.8,0,2.8-1,2.8-2.4C655.2,171,653.6,170.2,652.3,169.7z M650.1,165.8
		c0,1.1,1,1.9,2.6,2.6c1-0.5,2.1-1.5,2.1-2.7c0-1-0.9-1.8-2.4-1.8C651,163.9,650.1,164.8,650.1,165.8z"/>
	<path class="st1" d="M662.6,174.9c3.5-0.6,5.4-2.3,5.6-4.8c-1.1,0.6-2.3,1-3.6,1c-2.6,0-4.1-1.5-4.1-3.9c0-2.4,1.6-4.5,4.8-4.5
		c3.5,0,4.7,2.7,4.7,5.8c0,4-1.7,6.9-7,7.7L662.6,174.9z M664.8,169.9c1.5,0,2.7-0.6,3.4-1.1c0.1-2.6-0.7-4.9-3-4.9
		c-1.8,0-3,1.3-3,3.2C662.2,168.8,663.1,169.9,664.8,169.9z"/>
	<path class="st1" d="M673.7,169.4h6v1.3h-6V169.4z"/>
	<path class="st1" d="M683.1,164.5c1.2-1.1,2.9-1.8,4.8-1.8c2.6,0,4,1.4,4,3.4c0,1.4-0.8,2.6-1.9,3.8l-4.7,4.8h7.5v1.3H683v-1.2
		l5.2-5.4c1.3-1.4,1.8-2,1.8-3.3c0-1.4-1.1-2.1-2.4-2.1c-1.4,0-2.6,0.8-3.4,1.5L683.1,164.5z"/>
	<path class="st1" d="M706,169.3c0,4.8-1.8,6.8-5.1,6.8c-3.3,0-5-2-5-6.7c0-4.6,2-6.8,5.2-6.8C704.1,162.7,706,164.5,706,169.3z
		 M704.2,169.4c0-4.2-1.3-5.4-3.2-5.4c-2,0-3.3,1.3-3.3,5.7c0,4,1.3,5.2,3.3,5.2C702.9,174.9,704.2,173.7,704.2,169.4z"/>
	<path class="st1" d="M713.5,174.7v-10.1l-3.5,1.7l-0.7-1l4.3-2.4h1.8l-0.1,1.4v10.4h2.8v1.3h-7.4v-1.3H713.5z"/>
	<path class="st1" d="M720.7,162.9h9.3v1.2c-4.5,3.5-5.3,7.7-5.3,11.1v0.7h-1.9v-0.9c0-3.3,0.9-7.3,4.9-10.9h-7.1V162.9z"/>
</g>
<g>
	<path class="st0" d="M650.2,135.2c0,1.1-0.1,2.1-0.3,3.2c-0.2,1-0.6,2-1.2,2.8c-0.6,0.8-1.6,1.5-3,2c-1.4,0.5-3.3,0.8-5.7,0.8
		h-44.7l-6.6,6.3h52.6c5.4,0,9.2-1.3,11.3-3.8c2-2.5,3.1-5.6,3.1-9.3v-0.2l-5.6-2.3V135.2z"/>
	<path class="st0" d="M646,50.6c-3.1-2.4-6.8-4.2-11-5.5c-4.2-1.3-8.7-1.9-13.4-1.9c-5.9,0-11.2,0.9-15.7,2.5
		c-4.5,1.7-8.4,4.1-11.5,7.3c-3.1,3.1-5.4,6.9-6.9,11.3l-0.2,0.4c-1.4,4.1-2.1,6-2.1,11.2v0.2l7.2,5.2v-0.8c0-3.9,0.5-9.5,1.6-13.3
		c1-3.6,2.7-6.8,5-9.5c2.3-2.7,5.3-4.9,9-6.5c3.6-1.6,8.1-2.4,13.4-2.4c3.9,0,7.6,0.6,10.9,1.6c3.3,1.1,6.2,2.7,8.6,4.7
		c2.4,2,4.3,4.4,5.6,7.2c1.3,2.8,2,5.9,2,9.3c0,3.5-0.9,6.8-2.5,9.9c-1.7,3.1-4,6.1-6.8,8.9c-2.8,2.8-6,5.5-9.6,8
		c-3.5,2.5-7.3,5-11,7.3c-4.2,2.5-8.4,5.2-12.6,8c-4.2,2.8-8.1,5.8-11.4,9c-3.4,3.2-6.1,6.7-8.2,10.5c-2.1,3.7-3.1,7.8-3,12l9.6-7.1
		c0.6-2.4,1.6-4,3.5-6.5c2.1-2.7,4.6-5.3,7.6-7.9c3-2.5,6.4-5,10-7.5c3.6-2.4,7.4-4.9,11.3-7.3c3.9-2.4,7.7-5,11.4-7.8
		c3.7-2.8,7-5.8,9.9-8.9c2.8-3.1,5.1-6.5,6.9-9.9c1.7-3.5,2.6-7.3,2.6-11.2c0-4.5-0.9-8.5-2.8-12C651.7,55.9,649.1,53,646,50.6z"/>
	<path class="st0" d="M744,99.4c-1.4-3.8-3.4-7.3-6-10.5c-2.6-3.2-5.6-5.9-9.1-8.1c-3.5-2.2-7.4-3.9-11.6-4.9
		c-4.3-1.3-10-2.3-13.6-2.7c-0.2,0-0.3,0-0.5,0c-4.8-0.4-7-0.6-10.1-1.8c-3.1-1.2-5.9-2.9-8.3-5c-2.4-2.1-4.3-4.6-5.6-7.5
		c-1.4-2.9-2.1-6.1-2.1-9.5c0-3.4,0.7-6.5,2.1-9.5c1.4-2.9,3.3-5.5,5.6-7.6c2.4-2.2,5.2-3.9,8.4-5.1c3.2-1.2,6.6-1.8,10.2-1.8
		c3.6,0,7,0.6,10.2,1.8c3.2,1.2,5.9,2.9,8.3,5.1c2.3,2.2,4.2,4.7,5.5,7.6c1.1,2.3,1.7,4.8,1.9,7.4l7.5,3.1c0-0.5,0.1-1.1,0.1-1.6
		c0-4.3-0.9-8.3-2.7-11.9c-1.8-3.6-4.3-6.8-7.4-9.4c-3.1-2.6-6.7-4.7-10.8-6.1c-4.1-1.5-8.4-2.2-12.9-2.2c-4.5,0-8.8,0.7-12.8,2.2
		c-4,1.5-7.6,3.5-10.7,6.1c-3.1,2.6-5.6,5.8-7.4,9.4c-1.8,3.6-2.7,7.6-2.7,11.9c0,6.3,1.8,11.9,5.4,16.7c3.6,4.8,8.4,8.3,14.4,10.4
		l0,0c0.3,0.1,3.1,1.1,10.5,3.3v0c1.2-0.1,2.4-0.2,3.6-0.2c4.9,0,9.4,0.9,13.6,2.5c4.2,1.7,7.9,4,11.1,6.9c3.2,2.9,5.7,6.3,7.5,10.2
		c1.8,3.9,2.7,8.2,2.7,12.7c0,4.6-0.9,8.8-2.8,12.7c-1.9,3.9-4.4,7.3-7.6,10.2c-3.2,2.9-6.9,5.2-11.2,6.9c-4.3,1.6-8.8,2.5-13.5,2.5
		s-9.2-0.8-13.4-2.5c-4.2-1.6-7.9-3.9-11.1-6.9c-3.2-2.9-5.7-6.3-7.6-10.2c-1.9-3.9-2.8-8.1-2.8-12.7c0-4.6,0.9-8.8,2.7-12.7
		c1.8-3.9,4.3-7.3,7.5-10.3c1-0.9,2.1-1.8,3.2-2.6c-2.1-0.5-4.7-1.3-7.4-2.6c-2.1,1.7-4.1,3.5-5.8,5.6c-2.6,3.1-4.6,6.6-6,10.4
		c-1.4,3.8-2.2,7.9-2.2,12.2c0,5.6,1.2,10.8,3.5,15.5c2.3,4.7,5.4,8.7,9.3,12.1c3.9,3.4,8.4,6.1,13.6,8c5.2,1.9,10.7,2.9,16.6,2.9
		c5.8,0,11.2-1,16.3-2.9c5.1-1.9,9.7-4.6,13.6-8c3.9-3.4,7.1-7.4,9.4-12.1c2.3-4.7,3.5-9.8,3.5-15.5
		C746.1,107.3,745.4,103.3,744,99.4z"/>
</g>
<rect x="563.8" y="19.5" class="st0" width="1.8" height="160"/>
</svg>
